M48
;Layer_Color=9474304
;FILE_FORMAT=2:5
INCH,TZ
;TYPE=PLATED
T1F00S00C0.02756
T2F00S00C0.02800
T3F00S00C0.03543
T4F00S00C0.03937
T5F00S00C0.04331
T6F00S00C0.04400
T7F00S00C0.07008
T8F00S00C0.09843
;TYPE=NON_PLATED
T9F00S00C0.13000
%
T01
X70878Y-314736
Y-309736
Y-304736
X71378Y-289236
Y-284236
Y-279236
X70378Y-192236
Y-187236
Y-182236
T02
X89424Y-318583
X75886Y-297933
X71578Y-269636
X88678Y-258036
X117478
X118678Y-238536
X131102Y-238779
X138778Y-244036
X146260Y-242224
X146078Y-232461
X147146Y-221161
X133760Y-220669
X134103Y-228236
X160978Y-229736
X143678Y-253036
X147678Y-258336
X174378Y-286136
X173878Y-300736
X96678Y-229311
X100078Y-216713
X91678Y-215936
X87778Y-220012
X74878Y-211836
X62678Y-244236
X114378Y-199136
X47378
X37878Y-240336
Y-285287
X44116Y-297098
X41878Y-314736
X139878Y-196410
X101878Y-158336
X183378Y-156587
T03
X67378Y-250236
X77378
X67878Y-225736
X57878
X47878
X37878
X27878
X17878
X7878
X7378Y-250236
X17378
X27378
X37378
X47378
X57378
X97945Y-84236
X143811
T04
X39378Y-190236
Y-180394
X28878Y-151736
X8878
Y-121736
Y-111736
X28878
Y-121736
T05
X168378Y-250736
X178378
Y-240736
Y-230736
Y-220736
Y-210736
X168378
Y-220736
Y-230736
Y-240736
T06
X88378Y-57736
Y-47736
Y-37736
T07
X13984Y-59890
T08
X211221Y-332776
X10433
X211221Y-9941
X10433
T09
X157378Y-47736
M30
