G04*
G04 #@! TF.GenerationSoftware,Altium Limited,Altium Designer,20.0.13 (296)*
G04*
G04 Layer_Color=32768*
%FSLAX25Y25*%
%MOIN*%
G70*
G01*
G75*
%ADD15C,0.00500*%
%ADD19C,0.00394*%
%ADD81C,0.00197*%
D15*
X1386Y141555D02*
Y173051D01*
X49024D01*
Y141555D02*
Y173051D01*
X1386Y141555D02*
X49024D01*
D19*
X68819Y58382D02*
X72756D01*
X70787Y56414D02*
Y60351D01*
X68319Y32882D02*
X72256D01*
X70287Y30913D02*
Y34850D01*
X67819Y155382D02*
X71756D01*
X69787Y153413D02*
Y157351D01*
X122787Y112914D02*
Y116850D01*
X120819Y114882D02*
X124756D01*
X30898Y26228D02*
Y68748D01*
X728Y26228D02*
X30898D01*
X728D02*
Y68748D01*
X30898D01*
D81*
X118248Y170020D02*
Y178799D01*
X135689Y170020D02*
Y178799D01*
X118248Y170020D02*
X135689D01*
X118248Y178799D02*
X135689D01*
Y159095D02*
Y167874D01*
X118248Y159095D02*
Y167874D01*
X135689D01*
X118248Y159095D02*
X135689D01*
X102217Y94311D02*
X143358D01*
X102217Y135453D02*
X143358D01*
X102217Y94311D02*
Y135453D01*
X143358Y94311D02*
Y135453D01*
X108398Y20988D02*
X117177D01*
X108398Y38429D02*
X117177D01*
Y20988D02*
Y38429D01*
X108398Y20988D02*
Y38429D01*
X181240Y31441D02*
Y36323D01*
X171634D02*
X181240D01*
X171634Y31441D02*
Y36323D01*
Y31441D02*
X181240D01*
X107008Y150492D02*
Y159272D01*
X89567Y150492D02*
Y159272D01*
X107008D01*
X89567Y150492D02*
X107008D01*
X82846Y254929D02*
X87728D01*
Y264535D01*
X82846D02*
X87728D01*
X82846Y254929D02*
Y264535D01*
X153457Y239882D02*
Y259882D01*
Y239882D02*
X162118D01*
Y259882D01*
X153457D02*
X162118D01*
X82846Y244036D02*
X87728D01*
X82846Y234429D02*
Y244036D01*
Y234429D02*
X87728D01*
Y244036D01*
X42587Y187063D02*
Y234701D01*
X79988D01*
Y187063D02*
Y234701D01*
X42587Y187063D02*
X79988D01*
X176457Y239882D02*
Y259882D01*
Y239882D02*
X185118D01*
Y259882D01*
X176457D02*
X185118D01*
X188957Y239882D02*
Y259882D01*
Y239882D02*
X197618D01*
Y259882D01*
X188957D02*
X197618D01*
X164087Y187063D02*
Y234701D01*
X201488D01*
Y187063D02*
Y234701D01*
X164087Y187063D02*
X201488D01*
X120587D02*
Y234701D01*
X157988D01*
Y187063D02*
Y234701D01*
X120587Y187063D02*
X157988D01*
X181740Y62941D02*
Y67823D01*
X172134D02*
X181740D01*
X172134Y62941D02*
Y67823D01*
Y62941D02*
X181740D01*
X93898Y38583D02*
X102677D01*
X93898Y21142D02*
X102677D01*
X93898D02*
Y38583D01*
X102677Y21142D02*
Y38583D01*
X108398Y71083D02*
X117177D01*
X108398Y53642D02*
X117177D01*
X108398D02*
Y71083D01*
X117177Y53642D02*
Y71083D01*
X93898Y70929D02*
X102677D01*
X93898Y53488D02*
X102677D01*
X93898D02*
Y70929D01*
X102677Y53488D02*
Y70929D01*
X123898Y54776D02*
X132677D01*
X123898Y37335D02*
X132677D01*
X123898D02*
Y54776D01*
X132677Y37335D02*
Y54776D01*
M02*
