G04*
G04 #@! TF.GenerationSoftware,Altium Limited,Altium Designer,20.0.13 (296)*
G04*
G04 Layer_Color=2752767*
%FSLAX25Y25*%
%MOIN*%
G70*
G01*
G75*
%ADD17C,0.00200*%
%ADD81C,0.00267*%
D17*
X69987Y52582D02*
Y54182D01*
X71587D01*
Y52582D01*
X69987D01*
Y57582D02*
Y59182D01*
X71587D01*
Y57582D01*
X69987D01*
Y62582D02*
Y64182D01*
X71587D01*
Y62582D01*
X69987D01*
X69487Y27082D02*
Y28682D01*
X71087D01*
Y27082D01*
X69487D01*
Y32082D02*
Y33682D01*
X71087D01*
Y32082D01*
X69487D01*
Y37082D02*
Y38682D01*
X71087D01*
Y37082D01*
X69487D01*
X68987Y149582D02*
Y151182D01*
X70587D01*
Y149582D01*
X68987D01*
Y154582D02*
Y156182D01*
X70587D01*
Y154582D01*
X68987D01*
Y159582D02*
Y161182D01*
X70587D01*
Y159582D01*
X68987D01*
X38787Y151582D02*
X37987Y153182D01*
X39587D01*
X38787Y151582D01*
Y161425D02*
X37987Y163024D01*
X39587D01*
X38787Y161425D01*
X143220Y257582D02*
X143620Y257982D01*
X144020D01*
X143620Y258382D01*
X144020Y258782D01*
X143620D01*
X143220Y259182D01*
X142820Y258782D01*
X142420D01*
X142820Y258382D01*
X142420Y257982D01*
X142820D01*
X143220Y257582D01*
X97354D02*
X97754Y257982D01*
X98154D01*
X97754Y258382D01*
X98154Y258782D01*
X97754D01*
X97354Y259182D01*
X96954Y258782D01*
X96554D01*
X96954Y258382D01*
X96554Y257982D01*
X96954D01*
X97354Y257582D01*
X67287Y116082D02*
X67687Y116482D01*
X68087D01*
X67687Y116882D01*
X68087Y117282D01*
X67687D01*
X67287Y117682D01*
X66887Y117282D01*
X66487D01*
X66887Y116882D01*
X66487Y116482D01*
X66887D01*
X67287Y116082D01*
X57287D02*
X57687Y116482D01*
X58087D01*
X57687Y116882D01*
X58087Y117282D01*
X57687D01*
X57287Y117682D01*
X56887Y117282D01*
X56487D01*
X56887Y116882D01*
X56487Y116482D01*
X56887D01*
X57287Y116082D01*
X47287D02*
X47687Y116482D01*
X48087D01*
X47687Y116882D01*
X48087Y117282D01*
X47687D01*
X47287Y117682D01*
X46887Y117282D01*
X46487D01*
X46887Y116882D01*
X46487Y116482D01*
X46887D01*
X47287Y116082D01*
X37287D02*
X37687Y116482D01*
X38087D01*
X37687Y116882D01*
X38087Y117282D01*
X37687D01*
X37287Y117682D01*
X36887Y117282D01*
X36487D01*
X36887Y116882D01*
X36487Y116482D01*
X36887D01*
X37287Y116082D01*
X27287D02*
X27687Y116482D01*
X28087D01*
X27687Y116882D01*
X28087Y117282D01*
X27687D01*
X27287Y117682D01*
X26887Y117282D01*
X26487D01*
X26887Y116882D01*
X26487Y116482D01*
X26887D01*
X27287Y116082D01*
X17287D02*
X17687Y116482D01*
X18087D01*
X17687Y116882D01*
X18087Y117282D01*
X17687D01*
X17287Y117682D01*
X16887Y117282D01*
X16487D01*
X16887Y116882D01*
X16487Y116482D01*
X16887D01*
X17287Y116082D01*
X7287D02*
X7687Y116482D01*
X8087D01*
X7687Y116882D01*
X8087Y117282D01*
X7687D01*
X7287Y117682D01*
X6887Y117282D01*
X6487D01*
X6887Y116882D01*
X6487Y116482D01*
X6887D01*
X7287Y116082D01*
X12594Y281928D02*
X12994Y282728D01*
X12594Y283528D01*
X13394Y283128D01*
X14194Y283528D01*
X13794Y282728D01*
X14194Y281928D01*
X13394Y282328D01*
X12594Y281928D01*
X156387Y294482D02*
Y294082D01*
X157187D01*
Y294482D01*
X157587D01*
Y295282D01*
X157187D01*
Y295682D01*
X156387D01*
Y295282D01*
X155987D01*
Y294482D01*
X156387D01*
X86987Y284082D02*
X87387D01*
X87787Y284482D01*
X88187Y284082D01*
X88587D01*
Y284482D01*
X88187Y284882D01*
X88587Y285282D01*
Y285682D01*
X88187D01*
X87787Y285282D01*
X87387Y285682D01*
X86987D01*
Y285282D01*
X87387Y284882D01*
X86987Y284482D01*
Y284082D01*
Y294082D02*
X87387D01*
X87787Y294482D01*
X88187Y294082D01*
X88587D01*
Y294482D01*
X88187Y294882D01*
X88587Y295282D01*
Y295682D01*
X88187D01*
X87787Y295282D01*
X87387Y295682D01*
X86987D01*
Y295282D01*
X87387Y294882D01*
X86987Y294482D01*
Y294082D01*
Y304082D02*
X87387D01*
X87787Y304482D01*
X88187Y304082D01*
X88587D01*
Y304482D01*
X88187Y304882D01*
X88587Y305282D01*
Y305682D01*
X88187D01*
X87787Y305282D01*
X87387Y305682D01*
X86987D01*
Y305282D01*
X87387Y304882D01*
X86987Y304482D01*
Y304082D01*
X28287Y190082D02*
X27487Y191682D01*
X29087D01*
X28287Y190082D01*
Y220082D02*
X27487Y221682D01*
X29087D01*
X28287Y220082D01*
Y230082D02*
X27487Y231682D01*
X29087D01*
X28287Y230082D01*
X8287Y190082D02*
X7487Y191682D01*
X9087D01*
X8287Y190082D01*
Y220082D02*
X7487Y221682D01*
X9087D01*
X8287Y220082D01*
Y230082D02*
X7487Y231682D01*
X9087D01*
X8287Y230082D01*
X176987Y131882D02*
X177787Y132682D01*
X178587Y131882D01*
X177787Y131082D01*
X176987Y131882D01*
Y121882D02*
X177787Y122682D01*
X178587Y121882D01*
X177787Y121082D01*
X176987Y121882D01*
Y111882D02*
X177787Y112682D01*
X178587Y111882D01*
X177787Y111082D01*
X176987Y111882D01*
Y101882D02*
X177787Y102682D01*
X178587Y101882D01*
X177787Y101082D01*
X176987Y101882D01*
Y91882D02*
X177787Y92682D01*
X178587Y91882D01*
X177787Y91082D01*
X176987Y91882D01*
X166987Y131882D02*
X167787Y132682D01*
X168587Y131882D01*
X167787Y131082D01*
X166987Y131882D01*
Y121882D02*
X167787Y122682D01*
X168587Y121882D01*
X167787Y121082D01*
X166987Y121882D01*
Y111882D02*
X167787Y112682D01*
X168587Y111882D01*
X167787Y111082D01*
X166987Y111882D01*
Y101882D02*
X167787Y102682D01*
X168587Y101882D01*
X167787Y101082D01*
X166987Y101882D01*
Y91882D02*
X167787Y92682D01*
X168587Y91882D01*
X167787Y91082D01*
X166987Y91882D01*
X76787Y91582D02*
X77187Y91982D01*
X77587D01*
X77187Y92382D01*
X77587Y92782D01*
X77187D01*
X76787Y93182D01*
X76387Y92782D01*
X75987D01*
X76387Y92382D01*
X75987Y91982D01*
X76387D01*
X76787Y91582D01*
X66787D02*
X67187Y91982D01*
X67587D01*
X67187Y92382D01*
X67587Y92782D01*
X67187D01*
X66787Y93182D01*
X66387Y92782D01*
X65987D01*
X66387Y92382D01*
X65987Y91982D01*
X66387D01*
X66787Y91582D01*
X56787D02*
X57187Y91982D01*
X57587D01*
X57187Y92382D01*
X57587Y92782D01*
X57187D01*
X56787Y93182D01*
X56387Y92782D01*
X55987D01*
X56387Y92382D01*
X55987Y91982D01*
X56387D01*
X56787Y91582D01*
X46787D02*
X47187Y91982D01*
X47587D01*
X47187Y92382D01*
X47587Y92782D01*
X47187D01*
X46787Y93182D01*
X46387Y92782D01*
X45987D01*
X46387Y92382D01*
X45987Y91982D01*
X46387D01*
X46787Y91582D01*
X36787D02*
X37187Y91982D01*
X37587D01*
X37187Y92382D01*
X37587Y92782D01*
X37187D01*
X36787Y93182D01*
X36387Y92782D01*
X35987D01*
X36387Y92382D01*
X35987Y91982D01*
X36387D01*
X36787Y91582D01*
X26787D02*
X27187Y91982D01*
X27587D01*
X27187Y92382D01*
X27587Y92782D01*
X27187D01*
X26787Y93182D01*
X26387Y92782D01*
X25987D01*
X26387Y92382D01*
X25987Y91982D01*
X26387D01*
X26787Y91582D01*
X16787D02*
X17187Y91982D01*
X17587D01*
X17187Y92382D01*
X17587Y92782D01*
X17187D01*
X16787Y93182D01*
X16387Y92782D01*
X15987D01*
X16387Y92382D01*
X15987Y91982D01*
X16387D01*
X16787Y91582D01*
X6787D02*
X7187Y91982D01*
X7587D01*
X7187Y92382D01*
X7587Y92782D01*
X7187D01*
X6787Y93182D01*
X6387Y92782D01*
X5987D01*
X6387Y92382D01*
X5987Y91982D01*
X6387D01*
X6787Y91582D01*
X74495Y44082D02*
Y45682D01*
X76095D01*
Y44082D01*
X74495D01*
X74895Y44482D02*
Y45282D01*
X75695D01*
Y44482D01*
X74895D01*
X73487Y129982D02*
Y131582D01*
X75087D01*
Y129982D01*
X73487D01*
X73887Y130382D02*
Y131182D01*
X74687D01*
Y130382D01*
X73887D01*
X144869Y99594D02*
Y101194D01*
X146469D01*
Y99594D01*
X144869D01*
X145269Y99994D02*
Y100794D01*
X146069D01*
Y99994D01*
X145269D01*
X40487Y27082D02*
Y28682D01*
X42087D01*
Y27082D01*
X40487D01*
X40887Y27482D02*
Y28282D01*
X41687D01*
Y27482D01*
X40887D01*
X129787Y103330D02*
Y104930D01*
X131387D01*
Y103330D01*
X129787D01*
X130187Y103730D02*
Y104530D01*
X130987D01*
Y103730D01*
X130187D01*
X172487Y41082D02*
Y42682D01*
X174087D01*
Y41082D01*
X172487D01*
X172887Y41482D02*
Y42282D01*
X173687D01*
Y41482D01*
X172887D01*
X159587Y112082D02*
Y113682D01*
X161187D01*
Y112082D01*
X159587D01*
X159987Y112482D02*
Y113282D01*
X160787D01*
Y112482D01*
X159987D01*
X144713Y121982D02*
Y123582D01*
X146313D01*
Y121982D01*
X144713D01*
X145113Y122382D02*
Y123182D01*
X145913D01*
Y122382D01*
X145113D01*
X95287Y112507D02*
Y114107D01*
X96887D01*
Y112507D01*
X95287D01*
X95687Y112907D02*
Y113707D01*
X96487D01*
Y112907D01*
X95687D01*
X36487Y101482D02*
Y103082D01*
X38087D01*
Y101482D01*
X36487D01*
X36887Y101882D02*
Y102682D01*
X37687D01*
Y101882D01*
X36887D01*
X86387Y121806D02*
Y123406D01*
X87987D01*
Y121806D01*
X86387D01*
X86787Y122206D02*
Y123006D01*
X87587D01*
Y122206D01*
X86787D01*
X17087Y56482D02*
Y58082D01*
X18687D01*
Y56482D01*
X17087D01*
X17487Y56882D02*
Y57682D01*
X18287D01*
Y56882D01*
X17487D01*
X13087Y44720D02*
Y46320D01*
X14687D01*
Y44720D01*
X13087D01*
X13487Y45120D02*
Y45920D01*
X14287D01*
Y45120D01*
X13487D01*
X70187Y72182D02*
Y73782D01*
X71787D01*
Y72182D01*
X70187D01*
X70587Y72582D02*
Y73382D01*
X71387D01*
Y72582D01*
X70587D01*
X87287Y83782D02*
Y85382D01*
X88887D01*
Y83782D01*
X87287D01*
X87687Y84182D02*
Y84982D01*
X88487D01*
Y84182D01*
X87687D01*
X116087Y83782D02*
Y85382D01*
X117687D01*
Y83782D01*
X116087D01*
X116487Y84182D02*
Y84982D01*
X117287D01*
Y84182D01*
X116487D01*
X92487Y18782D02*
Y20382D01*
X94087D01*
Y18782D01*
X92487D01*
X92887Y19182D02*
Y19982D01*
X93687D01*
Y19182D01*
X92887D01*
X110987Y142682D02*
Y144282D01*
X112587D01*
Y142682D01*
X110987D01*
X111387Y143082D02*
Y143882D01*
X112187D01*
Y143082D01*
X111387D01*
X45987Y142682D02*
Y144282D01*
X47587D01*
Y142682D01*
X45987D01*
X46387Y143082D02*
Y143882D01*
X47187D01*
Y143082D01*
X46387D01*
X98687Y125106D02*
Y126706D01*
X100287D01*
Y125106D01*
X98687D01*
X99087Y125505D02*
Y126305D01*
X99887D01*
Y125505D01*
X99087D01*
X144687Y109358D02*
Y110958D01*
X146287D01*
Y109358D01*
X144687D01*
X145087Y109757D02*
Y110557D01*
X145887D01*
Y109757D01*
X145087D01*
X61287Y97582D02*
Y99182D01*
X62887D01*
Y97582D01*
X61287D01*
X61687Y97982D02*
Y98782D01*
X62487D01*
Y97982D01*
X61687D01*
X131787Y114507D02*
Y116107D01*
X133387D01*
Y114507D01*
X131787D01*
X132187Y114907D02*
Y115707D01*
X132987D01*
Y114907D01*
X132187D01*
X92687Y123482D02*
Y125082D01*
X94287D01*
Y123482D01*
X92687D01*
X93087Y123882D02*
Y124682D01*
X93887D01*
Y123882D01*
X93087D01*
X146287Y83482D02*
Y85082D01*
X147887D01*
Y83482D01*
X146287D01*
X146687Y83882D02*
Y84682D01*
X147487D01*
Y83882D01*
X146687D01*
X142287Y88782D02*
Y90382D01*
X143887D01*
Y88782D01*
X142287D01*
X142687Y89182D02*
Y89982D01*
X143487D01*
Y89182D01*
X142687D01*
X117287Y103282D02*
Y104882D01*
X118887D01*
Y103282D01*
X117287D01*
X117687Y103682D02*
Y104482D01*
X118487D01*
Y103682D01*
X117687D01*
X129861Y136782D02*
Y138382D01*
X131461D01*
Y136782D01*
X129861D01*
X130261Y137182D02*
Y137982D01*
X131061D01*
Y137182D01*
X130261D01*
X137387Y97782D02*
Y99382D01*
X138987D01*
Y97782D01*
X137387D01*
X137787Y98182D02*
Y98982D01*
X138587D01*
Y98182D01*
X137787D01*
X172987Y55682D02*
Y57282D01*
X174587D01*
Y55682D01*
X172987D01*
X173387Y56082D02*
Y56882D01*
X174187D01*
Y56082D01*
X173387D01*
X132387Y120782D02*
Y122382D01*
X133987D01*
Y120782D01*
X132387D01*
X132787Y121182D02*
Y121982D01*
X133587D01*
Y121182D01*
X132787D01*
X74387Y278936D02*
Y280536D01*
X75987D01*
Y278936D01*
X74387D01*
X74787Y279336D02*
Y280136D01*
X75587D01*
Y279336D01*
X74787D01*
X100487Y183482D02*
Y185082D01*
X102087D01*
Y183482D01*
X100487D01*
X100887Y183882D02*
Y184682D01*
X101687D01*
Y183882D01*
X100887D01*
X181987Y185231D02*
Y186831D01*
X183587D01*
Y185231D01*
X181987D01*
X182387Y185632D02*
Y186432D01*
X183187D01*
Y185632D01*
X182387D01*
D81*
X211430Y9843D02*
G03*
X211430Y9843I-800J0D01*
G01*
Y332677D02*
G03*
X211430Y332677I-800J0D01*
G01*
X10643D02*
G03*
X10643Y332677I-800J0D01*
G01*
Y9843D02*
G03*
X10643Y9843I-800J0D01*
G01*
M02*
