G04*
G04 #@! TF.GenerationSoftware,Altium Limited,Altium Designer,20.0.13 (296)*
G04*
G04 Layer_Color=255*
%FSLAX25Y25*%
%MOIN*%
G70*
G01*
G75*
%ADD16C,0.06000*%
%ADD67O,0.07874X0.03937*%
%ADD68O,0.07874X0.03937*%
%ADD69R,0.05937X0.05937*%
%ADD70C,0.05937*%
%ADD71C,0.05906*%
%ADD72R,0.05906X0.05906*%
%ADD73O,0.06299X0.07874*%
%ADD74R,0.06299X0.07874*%
%ADD75C,0.10551*%
%ADD76C,0.13000*%
%ADD77O,0.13200X0.06600*%
%ADD78R,0.07874X0.06299*%
%ADD79O,0.07874X0.06299*%
D16*
X210630Y9843D02*
D03*
Y332677D02*
D03*
X9843D02*
D03*
Y9843D02*
D03*
D67*
X70787Y53382D02*
D03*
Y58382D02*
D03*
X70287Y27882D02*
D03*
Y32882D02*
D03*
X69787Y150382D02*
D03*
Y155382D02*
D03*
D68*
X70787Y63382D02*
D03*
X70287Y37882D02*
D03*
X69787Y160382D02*
D03*
D69*
X38787Y152382D02*
D03*
D70*
Y162224D02*
D03*
D71*
X143220Y258382D02*
D03*
X28287Y190882D02*
D03*
Y220882D02*
D03*
Y230882D02*
D03*
X8287Y190882D02*
D03*
Y220882D02*
D03*
Y230882D02*
D03*
D72*
X97354Y258382D02*
D03*
D73*
X67287Y116882D02*
D03*
X57287D02*
D03*
X47287D02*
D03*
X37287D02*
D03*
X27287D02*
D03*
X17287D02*
D03*
X66787Y92382D02*
D03*
X56787D02*
D03*
X46787D02*
D03*
X36787D02*
D03*
X26787D02*
D03*
X16787D02*
D03*
X6787D02*
D03*
D74*
X7287Y116882D02*
D03*
X76787Y92382D02*
D03*
D75*
X13394Y282728D02*
D03*
D76*
X156787Y294882D02*
D03*
D77*
X87787Y284882D02*
D03*
Y294882D02*
D03*
Y304882D02*
D03*
D78*
X177787Y131882D02*
D03*
D79*
Y121882D02*
D03*
Y111882D02*
D03*
Y101882D02*
D03*
Y91882D02*
D03*
X167787Y131882D02*
D03*
Y121882D02*
D03*
Y111882D02*
D03*
Y101882D02*
D03*
Y91882D02*
D03*
M02*
