M48
;Layer_Color=9474304
;FILE_FORMAT=2:5
INCH,LZ
;TYPE=PLATED
T1F00S00C0.02756
T2F00S00C0.02800
T3F00S00C0.03543
T4F00S00C0.03937
T5F00S00C0.04331
T6F00S00C0.04400
T7F00S00C0.07008
T8F00S00C0.09843
;TYPE=NON_PLATED
T9F00S00C0.13000
%
T01
X0070287Y0027882
Y0032882
Y0037882
X0070787Y0053382
Y0058382
Y0063382
X0069787Y0150382
Y0155382
Y0160382
T02
X0088834Y0024035
X0075295Y0044685
X0070987Y0072982
X0088087Y0084582
X0116887
X0118087Y0104082
X0130512Y0103839
X0138187Y0098582
X0145669Y0100394
X0145487Y0110158
X0146555Y0121457
X0133169Y0121949
X0133513Y0114382
X0160387Y0112882
X0143087Y0089582
X0147087Y0084282
X0173787Y0056482
X0173287Y0041882
X0096087Y0113307
X0099487Y0125906
X0091087Y0126682
X0087187Y0122606
X0074287Y0130782
X0062087Y0098382
X0113787Y0143482
X0046787
X0037287Y0102282
Y0057331
X0043525Y004552
X0041287Y0027882
X0139287Y0146208
X0101287Y0184282
X0182787Y0186031
T03
X0066787Y0092382
X0076787
X0067287Y0116882
X0057287
X0047287
X0037287
X0027287
X0017287
X0007287
X0006787Y0092382
X0016787
X0026787
X0036787
X0046787
X0056787
X0097354Y0258382
X014322
T04
X0038787Y0152382
Y0162224
X0028287Y0190882
X0008287
Y0220882
Y0230882
X0028287
Y0220882
T05
X0167787Y0091882
X0177787
Y0101882
Y0111882
Y0121882
Y0131882
X0167787
Y0121882
Y0111882
Y0101882
T06
X0087787Y0284882
Y0294882
Y0304882
T07
X0013394Y0282728
T08
X021063Y0009843
X0009843
X021063Y0332677
X0009843
T09
X0156787Y0294882
M30
