G04*
G04 #@! TF.GenerationSoftware,Altium Limited,Altium Designer,20.0.13 (296)*
G04*
G04 Layer_Physical_Order=2*
G04 Layer_Color=16711680*
%FSLAX25Y25*%
%MOIN*%
G70*
G01*
G75*
%ADD16C,0.06000*%
%ADD20C,0.01000*%
%ADD67O,0.07874X0.03937*%
%ADD68O,0.07874X0.03937*%
%ADD69R,0.05937X0.05937*%
%ADD70C,0.05937*%
%ADD71C,0.05906*%
%ADD72R,0.05906X0.05906*%
%ADD73O,0.06299X0.07874*%
%ADD74R,0.06299X0.07874*%
%ADD75C,0.10551*%
%ADD76C,0.13000*%
%ADD77O,0.13200X0.06600*%
%ADD78R,0.07874X0.06299*%
%ADD79O,0.07874X0.06299*%
%ADD80C,0.05000*%
G36*
X205162Y332677D02*
X205348Y331262D01*
X205894Y329943D01*
X206764Y328811D01*
X207896Y327942D01*
X209215Y327395D01*
X210630Y327209D01*
Y15311D01*
X209215Y15124D01*
X207896Y14578D01*
X206764Y13709D01*
X205894Y12576D01*
X205348Y11258D01*
X205162Y9843D01*
X15311D01*
X15124Y11258D01*
X14578Y12576D01*
X13709Y13709D01*
X12577Y14578D01*
X11258Y15124D01*
X9843Y15311D01*
X9843Y15311D01*
Y89581D01*
X9975Y89754D01*
X10343Y90642D01*
X10469Y91594D01*
Y93169D01*
X10343Y94122D01*
X9975Y95010D01*
X9843Y95183D01*
Y107732D01*
X10305Y107923D01*
X10566Y107661D01*
X10897Y107440D01*
X11287Y107362D01*
X17619D01*
X17826Y106862D01*
X16066Y105103D01*
X15845Y104772D01*
X15768Y104382D01*
Y96697D01*
X14947Y96357D01*
X14185Y95772D01*
X13600Y95010D01*
X13232Y94122D01*
X13106Y93169D01*
Y91594D01*
X13232Y90642D01*
X13600Y89754D01*
X14185Y88992D01*
X14947Y88407D01*
X15835Y88039D01*
X16787Y87913D01*
X17740Y88039D01*
X18628Y88407D01*
X19390Y88992D01*
X19975Y89754D01*
X20343Y90642D01*
X20469Y91594D01*
Y93169D01*
X20343Y94122D01*
X19975Y95010D01*
X19390Y95772D01*
X18628Y96357D01*
X17807Y96697D01*
Y103960D01*
X19210Y105362D01*
X35581D01*
X35717Y105040D01*
X35722Y104862D01*
X35148Y104421D01*
X34667Y103795D01*
X34365Y103065D01*
X34262Y102282D01*
X34365Y101499D01*
X34667Y100769D01*
X35148Y100142D01*
X35774Y99661D01*
X36504Y99359D01*
X37287Y99256D01*
X38071Y99359D01*
X38800Y99661D01*
X39427Y100142D01*
X39908Y100769D01*
X40112Y101262D01*
X51737D01*
X52128Y101340D01*
X52335Y101479D01*
X52654Y101090D01*
X51366Y99803D01*
X51145Y99472D01*
X51068Y99082D01*
Y88804D01*
X48465Y86202D01*
X29210D01*
X27807Y87604D01*
Y88067D01*
X28628Y88407D01*
X29390Y88992D01*
X29975Y89754D01*
X30343Y90642D01*
X30468Y91594D01*
Y93169D01*
X30343Y94122D01*
X29975Y95010D01*
X29390Y95772D01*
X28628Y96357D01*
X27740Y96725D01*
X26787Y96850D01*
X25835Y96725D01*
X24947Y96357D01*
X24184Y95772D01*
X23599Y95010D01*
X23232Y94122D01*
X23106Y93169D01*
Y91594D01*
X23232Y90642D01*
X23599Y89754D01*
X24184Y88992D01*
X24947Y88407D01*
X25768Y88067D01*
Y87182D01*
X25845Y86792D01*
X26066Y86461D01*
X28066Y84461D01*
X28397Y84240D01*
X28787Y84162D01*
X48887D01*
X49278Y84240D01*
X49608Y84461D01*
X52808Y87661D01*
X53029Y87992D01*
X53107Y88382D01*
Y89636D01*
X53575Y89748D01*
X53607Y89744D01*
X54185Y88992D01*
X54947Y88407D01*
X55835Y88039D01*
X56787Y87913D01*
X57740Y88039D01*
X58628Y88407D01*
X59390Y88992D01*
X59975Y89754D01*
X60343Y90642D01*
X60469Y91594D01*
Y93169D01*
X60343Y94122D01*
X59975Y95010D01*
X59390Y95772D01*
X58628Y96357D01*
X57807Y96697D01*
Y99960D01*
X59210Y101362D01*
X60222D01*
X60392Y100862D01*
X59948Y100522D01*
X59467Y99895D01*
X59165Y99165D01*
X59061Y98382D01*
X59165Y97599D01*
X59467Y96869D01*
X59948Y96242D01*
X60575Y95761D01*
X61304Y95459D01*
X62087Y95356D01*
X62871Y95459D01*
X63074Y95543D01*
X63652Y95241D01*
X63680Y95114D01*
X63599Y95010D01*
X63232Y94122D01*
X63106Y93169D01*
Y91594D01*
X63232Y90642D01*
X63599Y89754D01*
X64184Y88992D01*
X64947Y88407D01*
X65768Y88067D01*
Y83782D01*
X65845Y83392D01*
X66066Y83061D01*
X113466Y35661D01*
X113797Y35440D01*
X114187Y35362D01*
X174587D01*
X174978Y35440D01*
X175308Y35661D01*
X179508Y39861D01*
X179729Y40192D01*
X179807Y40582D01*
Y44582D01*
X179729Y44972D01*
X179508Y45303D01*
X144107Y80704D01*
Y82417D01*
X144607Y82586D01*
X144948Y82142D01*
X145574Y81661D01*
X146304Y81359D01*
X147087Y81256D01*
X147871Y81359D01*
X148600Y81661D01*
X149227Y82142D01*
X149708Y82769D01*
X149912Y83262D01*
X169287D01*
X169678Y83340D01*
X170008Y83561D01*
X175149Y88702D01*
X175159Y88694D01*
X176047Y88326D01*
X177000Y88201D01*
X178575D01*
X179527Y88326D01*
X180415Y88694D01*
X181178Y89279D01*
X181763Y90041D01*
X181768Y90054D01*
X182268Y89954D01*
Y66404D01*
X175064Y59200D01*
X174571Y59405D01*
X173787Y59508D01*
X173004Y59405D01*
X172274Y59102D01*
X171648Y58622D01*
X171167Y57995D01*
X170865Y57265D01*
X170762Y56482D01*
X170865Y55699D01*
X171167Y54969D01*
X171648Y54342D01*
X172274Y53861D01*
X173004Y53559D01*
X173787Y53456D01*
X174571Y53559D01*
X175300Y53861D01*
X175927Y54342D01*
X176408Y54969D01*
X176710Y55699D01*
X176813Y56482D01*
X176710Y57265D01*
X176506Y57758D01*
X184008Y65261D01*
X184229Y65592D01*
X184307Y65982D01*
Y94382D01*
X184229Y94772D01*
X184008Y95103D01*
X181808Y97303D01*
X181478Y97524D01*
X181087Y97601D01*
X170391D01*
X170291Y98102D01*
X170668Y98257D01*
X171534Y98922D01*
X172199Y99789D01*
X172618Y100799D01*
X172694Y101382D01*
X162880D01*
X162957Y100799D01*
X163375Y99789D01*
X164041Y98922D01*
X164907Y98257D01*
X165283Y98102D01*
X165184Y97601D01*
X147780D01*
X147610Y98102D01*
X147809Y98254D01*
X148290Y98881D01*
X148592Y99611D01*
X148695Y100394D01*
X148592Y101177D01*
X148290Y101907D01*
X147809Y102533D01*
X147182Y103014D01*
X146452Y103316D01*
X145669Y103420D01*
X144886Y103316D01*
X144393Y103112D01*
X142702Y104802D01*
X143021Y105191D01*
X143097Y105140D01*
X143487Y105062D01*
X163580D01*
X163826Y104562D01*
X163375Y103975D01*
X162957Y102965D01*
X162880Y102382D01*
X172694D01*
X172618Y102965D01*
X172199Y103975D01*
X171821Y104468D01*
X172034Y104931D01*
X172452Y104975D01*
X173781Y103647D01*
X173444Y102835D01*
X173319Y101882D01*
X173444Y100929D01*
X173812Y100041D01*
X174397Y99279D01*
X175159Y98694D01*
X176047Y98326D01*
X177000Y98201D01*
X178575D01*
X179527Y98326D01*
X180415Y98694D01*
X181178Y99279D01*
X181763Y100041D01*
X182131Y100929D01*
X182256Y101882D01*
X182131Y102835D01*
X181763Y103722D01*
X181178Y104485D01*
X180415Y105070D01*
X179527Y105438D01*
X178575Y105563D01*
X177000D01*
X176047Y105438D01*
X175217Y105094D01*
X173508Y106803D01*
X173178Y107024D01*
X172787Y107102D01*
X147218D01*
X147135Y107269D01*
X147084Y107601D01*
X147627Y108018D01*
X148108Y108645D01*
X148410Y109374D01*
X148513Y110158D01*
X148410Y110941D01*
X148108Y111670D01*
X147627Y112297D01*
X147000Y112778D01*
X146507Y112982D01*
Y116082D01*
X146429Y116472D01*
X146208Y116803D01*
X134809Y128202D01*
X135016Y128702D01*
X151525D01*
X164066Y116161D01*
X164397Y115940D01*
X164599Y115900D01*
X164744Y115391D01*
X164743Y115381D01*
X164041Y114841D01*
X163601Y114269D01*
X163029Y114344D01*
X163008Y114395D01*
X162527Y115022D01*
X161900Y115502D01*
X161171Y115805D01*
X160387Y115908D01*
X159604Y115805D01*
X159111Y115600D01*
X151234Y123477D01*
X150904Y123698D01*
X150513Y123775D01*
X148461D01*
X148068Y124077D01*
X147338Y124380D01*
X146555Y124483D01*
X145772Y124380D01*
X145042Y124077D01*
X144415Y123596D01*
X143935Y122970D01*
X143632Y122240D01*
X143529Y121457D01*
X143632Y120674D01*
X143935Y119944D01*
X144415Y119317D01*
X145042Y118836D01*
X145772Y118534D01*
X146555Y118431D01*
X147338Y118534D01*
X148068Y118836D01*
X148695Y119317D01*
X149176Y119944D01*
X149478Y120674D01*
X149581Y121457D01*
X149667Y121554D01*
X150258Y121570D01*
X157669Y114158D01*
X157465Y113665D01*
X157361Y112882D01*
X157465Y112099D01*
X157767Y111369D01*
X158248Y110742D01*
X158874Y110261D01*
X159604Y109959D01*
X160387Y109856D01*
X161171Y109959D01*
X161900Y110261D01*
X162478Y110705D01*
X162528Y110714D01*
X162680Y110698D01*
X163042Y110593D01*
X163375Y109789D01*
X164041Y108922D01*
X164907Y108257D01*
X165917Y107839D01*
X167000Y107696D01*
X167287D01*
Y111882D01*
X167787D01*
Y112382D01*
X172694D01*
X172618Y112965D01*
X172199Y113975D01*
X171534Y114841D01*
X170855Y115362D01*
X171025Y115862D01*
X171565D01*
X173781Y113647D01*
X173444Y112835D01*
X173319Y111882D01*
X173444Y110929D01*
X173812Y110041D01*
X174397Y109279D01*
X175159Y108694D01*
X176047Y108326D01*
X177000Y108201D01*
X178575D01*
X179527Y108326D01*
X180415Y108694D01*
X181178Y109279D01*
X181763Y110041D01*
X182131Y110929D01*
X182256Y111882D01*
X182131Y112835D01*
X181763Y113722D01*
X181178Y114485D01*
X180415Y115070D01*
X179527Y115438D01*
X178575Y115563D01*
X177000D01*
X176047Y115438D01*
X175217Y115094D01*
X172708Y117603D01*
X172378Y117824D01*
X171987Y117902D01*
X171025D01*
X170855Y118402D01*
X171534Y118922D01*
X172199Y119789D01*
X172618Y120799D01*
X172694Y121382D01*
X167787D01*
Y121882D01*
X167287D01*
Y126067D01*
X167000D01*
X165917Y125925D01*
X164907Y125507D01*
X164041Y124841D01*
X163492Y124127D01*
X162905Y124006D01*
X154469Y132443D01*
X154138Y132664D01*
X153748Y132741D01*
X81627D01*
X81237Y132664D01*
X80906Y132443D01*
X76897Y128434D01*
X76520Y128764D01*
X76628Y128905D01*
X76908Y129269D01*
X77210Y129999D01*
X77313Y130782D01*
X77210Y131565D01*
X76908Y132295D01*
X76473Y132862D01*
X76587Y133362D01*
X127461D01*
X127852Y133440D01*
X128182Y133661D01*
X138011Y143490D01*
X138504Y143285D01*
X139287Y143182D01*
X140071Y143285D01*
X140800Y143587D01*
X141427Y144068D01*
X141908Y144695D01*
X142210Y145425D01*
X142313Y146208D01*
X142210Y146991D01*
X141908Y147721D01*
X141427Y148347D01*
X140800Y148828D01*
X140071Y149131D01*
X139287Y149234D01*
X138504Y149131D01*
X137775Y148828D01*
X137148Y148347D01*
X136667Y147721D01*
X136365Y146991D01*
X136261Y146208D01*
X136365Y145425D01*
X136569Y144931D01*
X127039Y135401D01*
X19287D01*
X18897Y135324D01*
X18566Y135103D01*
X16566Y133103D01*
X16345Y132772D01*
X16268Y132382D01*
Y121197D01*
X15447Y120857D01*
X14684Y120272D01*
X14099Y119510D01*
X13732Y118622D01*
X13606Y117669D01*
Y116095D01*
X13732Y115142D01*
X14099Y114254D01*
X14684Y113492D01*
X15447Y112907D01*
X16268Y112566D01*
Y112382D01*
X16345Y111992D01*
X16566Y111661D01*
X17566Y110661D01*
X17897Y110440D01*
X18287Y110362D01*
X46287D01*
X46678Y110440D01*
X47008Y110661D01*
X48008Y111661D01*
X48229Y111992D01*
X48307Y112382D01*
Y112566D01*
X49128Y112907D01*
X49890Y113492D01*
X50475Y114254D01*
X50843Y115142D01*
X50968Y116095D01*
Y117669D01*
X50843Y118622D01*
X50475Y119510D01*
X49890Y120272D01*
X49128Y120857D01*
X48240Y121225D01*
X47287Y121350D01*
X46335Y121225D01*
X45447Y120857D01*
X44684Y120272D01*
X44100Y119510D01*
X43732Y118622D01*
X43606Y117669D01*
Y116095D01*
X43732Y115142D01*
X44100Y114254D01*
X44684Y113492D01*
X45447Y112907D01*
X45459Y112901D01*
X45360Y112401D01*
X39215D01*
X39116Y112901D01*
X39128Y112907D01*
X39890Y113492D01*
X40475Y114254D01*
X40843Y115142D01*
X40968Y116095D01*
Y117669D01*
X40843Y118622D01*
X40475Y119510D01*
X39890Y120272D01*
X39128Y120857D01*
X38240Y121225D01*
X37287Y121350D01*
X36335Y121225D01*
X35447Y120857D01*
X34685Y120272D01*
X34100Y119510D01*
X33732Y118622D01*
X33606Y117669D01*
Y116095D01*
X33732Y115142D01*
X34100Y114254D01*
X34685Y113492D01*
X35447Y112907D01*
X35459Y112901D01*
X35360Y112401D01*
X29215D01*
X29116Y112901D01*
X29128Y112907D01*
X29890Y113492D01*
X30475Y114254D01*
X30843Y115142D01*
X30968Y116095D01*
Y117669D01*
X30843Y118622D01*
X30475Y119510D01*
X29890Y120272D01*
X29128Y120857D01*
X28307Y121197D01*
Y127960D01*
X30110Y129762D01*
X71463D01*
X71667Y129269D01*
X72148Y128642D01*
X72774Y128161D01*
X73504Y127859D01*
X74287Y127756D01*
X75071Y127859D01*
X75800Y128161D01*
X76165Y128441D01*
X76306Y128549D01*
X76636Y128172D01*
X71785Y123321D01*
X67087Y122382D01*
X66995Y122343D01*
X66897Y122324D01*
X66813Y122268D01*
X66720Y122229D01*
X66650Y122158D01*
X66566Y122103D01*
X66510Y122019D01*
X66439Y121948D01*
X66401Y121855D01*
X66345Y121772D01*
X66337Y121730D01*
X66204Y121712D01*
X65195Y121294D01*
X64328Y120629D01*
X63663Y119762D01*
X63245Y118753D01*
X63102Y117669D01*
Y117382D01*
X67287D01*
X71473D01*
Y117669D01*
X71330Y118753D01*
X70912Y119762D01*
X70383Y120451D01*
X70540Y120993D01*
X72487Y121382D01*
X72580Y121420D01*
X72678Y121440D01*
X72761Y121496D01*
X72855Y121535D01*
X72925Y121605D01*
X73008Y121661D01*
X82050Y130702D01*
X111333D01*
X111540Y130202D01*
X97364Y116025D01*
X96871Y116230D01*
X96087Y116333D01*
X95304Y116230D01*
X94574Y115928D01*
X93948Y115447D01*
X93467Y114820D01*
X93165Y114090D01*
X93062Y113307D01*
X93165Y112524D01*
X93467Y111794D01*
X93948Y111168D01*
X94574Y110687D01*
X95304Y110384D01*
X96087Y110281D01*
X96871Y110384D01*
X97600Y110687D01*
X98227Y111168D01*
X98708Y111794D01*
X99010Y112524D01*
X99113Y113307D01*
X99010Y114090D01*
X98806Y114584D01*
X112924Y128702D01*
X118259D01*
X118466Y128202D01*
X93665Y103402D01*
X79132D01*
X78925Y103902D01*
X98211Y123187D01*
X98704Y122983D01*
X99487Y122880D01*
X100271Y122983D01*
X101000Y123285D01*
X101627Y123766D01*
X102108Y124393D01*
X102410Y125122D01*
X102513Y125906D01*
X102410Y126689D01*
X102108Y127418D01*
X101627Y128045D01*
X101000Y128526D01*
X100271Y128828D01*
X99487Y128931D01*
X98704Y128828D01*
X97974Y128526D01*
X97348Y128045D01*
X96867Y127418D01*
X96565Y126689D01*
X96461Y125906D01*
X96565Y125122D01*
X96769Y124629D01*
X77542Y105402D01*
X72132D01*
X71925Y105902D01*
X85911Y119888D01*
X86404Y119684D01*
X87187Y119580D01*
X87971Y119684D01*
X88700Y119986D01*
X89327Y120467D01*
X89808Y121093D01*
X90110Y121823D01*
X90213Y122606D01*
X90122Y123297D01*
X90156Y123381D01*
X90272Y123528D01*
X90509Y123732D01*
X91087Y123656D01*
X91871Y123759D01*
X92600Y124061D01*
X93227Y124542D01*
X93708Y125169D01*
X94010Y125899D01*
X94113Y126682D01*
X94010Y127465D01*
X93708Y128195D01*
X93227Y128822D01*
X92600Y129302D01*
X91871Y129605D01*
X91087Y129708D01*
X90304Y129605D01*
X89574Y129302D01*
X88948Y128822D01*
X88467Y128195D01*
X88262Y127701D01*
X85487D01*
X85097Y127624D01*
X84766Y127403D01*
X71515Y114152D01*
X71092Y114435D01*
X71330Y115011D01*
X71473Y116095D01*
Y116382D01*
X67287D01*
X63102D01*
Y116095D01*
X63245Y115011D01*
X63663Y114002D01*
X64328Y113135D01*
X65154Y112501D01*
X65202Y112416D01*
X65275Y111905D01*
X65102Y111702D01*
X50037D01*
X49647Y111624D01*
X49316Y111403D01*
X47315Y109402D01*
X11710D01*
X9843Y111269D01*
Y111945D01*
X11437D01*
Y116382D01*
X7287D01*
Y117382D01*
X11437D01*
Y121819D01*
X9843D01*
Y187789D01*
X10029Y187866D01*
X10750Y188419D01*
X11303Y189141D01*
X11651Y189980D01*
X11770Y190882D01*
X11651Y191783D01*
X11303Y192623D01*
X10750Y193344D01*
X10029Y193898D01*
X9843Y193975D01*
Y217789D01*
X10029Y217866D01*
X10750Y218419D01*
X11303Y219141D01*
X11651Y219981D01*
X11770Y220882D01*
X11651Y221783D01*
X11352Y222505D01*
X18710Y229862D01*
X24972D01*
X25271Y229141D01*
X25825Y228419D01*
X26546Y227866D01*
X27386Y227518D01*
X28287Y227399D01*
X29189Y227518D01*
X30029Y227866D01*
X30750Y228419D01*
X31303Y229141D01*
X31651Y229980D01*
X31770Y230882D01*
X31651Y231783D01*
X31303Y232623D01*
X30750Y233344D01*
X30029Y233898D01*
X29307Y234197D01*
Y301960D01*
X31210Y303862D01*
X80797D01*
X81168Y302965D01*
X81777Y302172D01*
X82571Y301563D01*
X83495Y301180D01*
X84487Y301049D01*
X91087D01*
X92079Y301180D01*
X93004Y301563D01*
X93798Y302172D01*
X94407Y302965D01*
X94778Y303862D01*
X96298D01*
X140155Y260005D01*
X139857Y259283D01*
X139738Y258382D01*
X139857Y257481D01*
X140204Y256641D01*
X140758Y255919D01*
X141479Y255366D01*
X142319Y255018D01*
X143220Y254899D01*
X144122Y255018D01*
X144962Y255366D01*
X145683Y255919D01*
X146236Y256641D01*
X146584Y257481D01*
X146703Y258382D01*
X146584Y259283D01*
X146236Y260123D01*
X145683Y260844D01*
X144962Y261398D01*
X144122Y261746D01*
X143220Y261864D01*
X142319Y261746D01*
X141597Y261447D01*
X97441Y305603D01*
X97111Y305824D01*
X96720Y305902D01*
X94778D01*
X94407Y306798D01*
X93798Y307592D01*
X93004Y308201D01*
X92079Y308584D01*
X91087Y308715D01*
X84487D01*
X83495Y308584D01*
X82571Y308201D01*
X81777Y307592D01*
X81168Y306798D01*
X80797Y305902D01*
X30787D01*
X30397Y305824D01*
X30066Y305603D01*
X27566Y303103D01*
X27345Y302772D01*
X27268Y302382D01*
Y234197D01*
X26546Y233898D01*
X25825Y233344D01*
X25271Y232623D01*
X24972Y231902D01*
X18287D01*
X17897Y231824D01*
X17566Y231603D01*
X10343Y224379D01*
X9843Y224586D01*
Y227789D01*
X10029Y227866D01*
X10750Y228419D01*
X11303Y229141D01*
X11651Y229980D01*
X11770Y230882D01*
X11651Y231783D01*
X11303Y232623D01*
X10750Y233344D01*
X10029Y233898D01*
X9843Y233975D01*
Y277608D01*
X10291Y277829D01*
X10481Y277683D01*
X11886Y277101D01*
X13394Y276903D01*
X14901Y277101D01*
X16307Y277683D01*
X17513Y278609D01*
X18439Y279816D01*
X19021Y281221D01*
X19219Y282728D01*
X19021Y284236D01*
X18439Y285641D01*
X17513Y286847D01*
X16307Y287773D01*
X14901Y288355D01*
X13394Y288554D01*
X11886Y288355D01*
X10481Y287773D01*
X10291Y287627D01*
X9843Y287848D01*
Y327209D01*
X9843Y327209D01*
X11258Y327395D01*
X12577Y327942D01*
X13709Y328811D01*
X14578Y329943D01*
X15124Y331262D01*
X15311Y332677D01*
X15311Y332677D01*
X205162D01*
X205162Y332677D01*
D02*
G37*
G36*
X130892Y112869D02*
X131373Y112242D01*
X131817Y111901D01*
X131647Y111401D01*
X111887D01*
X111497Y111324D01*
X111166Y111103D01*
X93465Y93401D01*
X80437D01*
Y96819D01*
X73138D01*
Y87945D01*
X80437D01*
Y91362D01*
X93887D01*
X94278Y91440D01*
X94608Y91661D01*
X112310Y109362D01*
X115819D01*
X116026Y108862D01*
X113066Y105903D01*
X112845Y105572D01*
X112768Y105182D01*
Y101382D01*
X112845Y100992D01*
X113066Y100661D01*
X170569Y43158D01*
X170365Y42665D01*
X170262Y41882D01*
X170365Y41099D01*
X170667Y40369D01*
X171148Y39742D01*
X171774Y39261D01*
X172504Y38959D01*
X173287Y38856D01*
X174071Y38959D01*
X174800Y39261D01*
X175427Y39742D01*
X175908Y40369D01*
X176210Y41099D01*
X176313Y41882D01*
X176210Y42665D01*
X175908Y43395D01*
X175427Y44021D01*
X174800Y44502D01*
X174071Y44805D01*
X173287Y44908D01*
X172504Y44805D01*
X172011Y44600D01*
X115869Y100742D01*
X116199Y101119D01*
X116322Y101025D01*
X117174Y100672D01*
X117587Y100618D01*
Y104082D01*
X118087D01*
Y104582D01*
X121552D01*
X121497Y104996D01*
X121145Y105847D01*
X120584Y106578D01*
X120213Y106862D01*
X120383Y107362D01*
X125913D01*
X127905Y105370D01*
X127891Y105351D01*
X127589Y104622D01*
X127486Y103839D01*
X127589Y103055D01*
X127891Y102326D01*
X128372Y101699D01*
X128999Y101218D01*
X129729Y100916D01*
X130512Y100813D01*
X131295Y100916D01*
X132025Y101218D01*
X132651Y101699D01*
X133132Y102326D01*
X133435Y103055D01*
X133538Y103839D01*
X133435Y104622D01*
X133132Y105351D01*
X132651Y105978D01*
X132025Y106459D01*
X131295Y106761D01*
X130512Y106865D01*
X129729Y106761D01*
X129495Y106665D01*
X127297Y108862D01*
X127504Y109362D01*
X135259D01*
X142951Y101670D01*
X142746Y101177D01*
X142643Y100394D01*
X142746Y99611D01*
X143049Y98881D01*
X143530Y98254D01*
X143728Y98102D01*
X143559Y97601D01*
X141530D01*
X141150Y98102D01*
X141213Y98582D01*
X141110Y99365D01*
X140808Y100095D01*
X140327Y100722D01*
X139700Y101202D01*
X138971Y101505D01*
X138187Y101608D01*
X137404Y101505D01*
X136674Y101202D01*
X136048Y100722D01*
X135567Y100095D01*
X135265Y99365D01*
X135161Y98582D01*
X135265Y97799D01*
X135567Y97069D01*
X136048Y96442D01*
X136674Y95961D01*
X137060Y95802D01*
X136961Y95302D01*
X128310D01*
X121188Y102423D01*
X121497Y103168D01*
X121552Y103582D01*
X118587D01*
Y100618D01*
X119001Y100672D01*
X119747Y100981D01*
X127166Y93561D01*
X127497Y93340D01*
X127887Y93262D01*
X142701D01*
X142828Y93078D01*
X142591Y92542D01*
X142304Y92505D01*
X141575Y92202D01*
X140948Y91721D01*
X140467Y91095D01*
X140165Y90365D01*
X140061Y89582D01*
X140165Y88799D01*
X140467Y88069D01*
X140948Y87442D01*
X141575Y86961D01*
X142068Y86757D01*
Y80282D01*
X142145Y79892D01*
X142366Y79561D01*
X177768Y44160D01*
Y41004D01*
X174165Y37402D01*
X114610D01*
X67807Y84204D01*
Y88067D01*
X68628Y88407D01*
X69390Y88992D01*
X69975Y89754D01*
X70343Y90642D01*
X70468Y91594D01*
Y93169D01*
X70343Y94122D01*
X69975Y95010D01*
X69390Y95772D01*
X68628Y96357D01*
X67740Y96725D01*
X66787Y96850D01*
X65835Y96725D01*
X64947Y96357D01*
X64943Y96355D01*
X64587Y96711D01*
X64708Y96869D01*
X64912Y97362D01*
X93487D01*
X93878Y97440D01*
X94208Y97661D01*
X109910Y113362D01*
X130688D01*
X130892Y112869D01*
D02*
G37*
G36*
X175154Y95094D02*
X175150Y95062D01*
X174397Y94485D01*
X173812Y93722D01*
X173444Y92835D01*
X173319Y91882D01*
X173444Y90929D01*
X173751Y90188D01*
X168865Y85302D01*
X149912D01*
X149708Y85795D01*
X149227Y86422D01*
X148600Y86902D01*
X147871Y87205D01*
X147087Y87308D01*
X146304Y87205D01*
X145574Y86902D01*
X144948Y86422D01*
X144607Y85977D01*
X144107Y86147D01*
Y86757D01*
X144600Y86961D01*
X145227Y87442D01*
X145708Y88069D01*
X146010Y88799D01*
X146113Y89582D01*
X146010Y90365D01*
X145976Y90447D01*
X146254Y90862D01*
X162949D01*
X162957Y90799D01*
X163375Y89789D01*
X164041Y88922D01*
X164907Y88257D01*
X165917Y87839D01*
X167000Y87696D01*
X167287D01*
Y91882D01*
X167787D01*
Y92382D01*
X172694D01*
X172618Y92965D01*
X172199Y93975D01*
X171534Y94841D01*
X171247Y95062D01*
X171416Y95562D01*
X175042D01*
X175154Y95094D01*
D02*
G37*
%LPC*%
G36*
X91087Y299219D02*
X88287D01*
Y295382D01*
X95359D01*
X95277Y296004D01*
X94843Y297050D01*
X94154Y297949D01*
X93256Y298638D01*
X92210Y299071D01*
X91087Y299219D01*
D02*
G37*
G36*
X87287D02*
X84487D01*
X83365Y299071D01*
X82319Y298638D01*
X81421Y297949D01*
X80731Y297050D01*
X80298Y296004D01*
X80216Y295382D01*
X87287D01*
Y299219D01*
D02*
G37*
G36*
X95359Y294382D02*
X88287D01*
Y290545D01*
X91087D01*
X92210Y290693D01*
X93256Y291126D01*
X94154Y291815D01*
X94843Y292713D01*
X95277Y293759D01*
X95359Y294382D01*
D02*
G37*
G36*
X87287D02*
X80216D01*
X80298Y293759D01*
X80731Y292713D01*
X81421Y291815D01*
X82319Y291126D01*
X83365Y290693D01*
X84487Y290545D01*
X87287D01*
Y294382D01*
D02*
G37*
G36*
X91087Y288715D02*
X84487D01*
X83495Y288584D01*
X82571Y288201D01*
X81777Y287592D01*
X81168Y286798D01*
X80785Y285874D01*
X80655Y284882D01*
X80785Y283890D01*
X81168Y282965D01*
X81777Y282172D01*
X82571Y281563D01*
X83495Y281180D01*
X84487Y281049D01*
X91087D01*
X92079Y281180D01*
X93004Y281563D01*
X93798Y282172D01*
X94407Y282965D01*
X94790Y283890D01*
X94920Y284882D01*
X94790Y285874D01*
X94407Y286798D01*
X93798Y287592D01*
X93004Y288201D01*
X92079Y288584D01*
X91087Y288715D01*
D02*
G37*
G36*
X156787Y311918D02*
X154564Y311773D01*
X152378Y311338D01*
X150268Y310622D01*
X148269Y309636D01*
X146416Y308398D01*
X144741Y306928D01*
X143272Y305253D01*
X142033Y303400D01*
X141048Y301401D01*
X140331Y299291D01*
X139897Y297106D01*
X139751Y294882D01*
X139897Y292658D01*
X140331Y290473D01*
X141048Y288362D01*
X142033Y286364D01*
X143272Y284511D01*
X144741Y282835D01*
X146416Y281366D01*
X148269Y280128D01*
X150268Y279142D01*
X152378Y278426D01*
X154564Y277991D01*
X156787Y277845D01*
X159011Y277991D01*
X161197Y278426D01*
X163307Y279142D01*
X165306Y280128D01*
X167158Y281366D01*
X168834Y282835D01*
X170303Y284511D01*
X171541Y286364D01*
X172527Y288362D01*
X173243Y290473D01*
X173678Y292658D01*
X173824Y294882D01*
X173678Y297106D01*
X173243Y299291D01*
X172527Y301401D01*
X171541Y303400D01*
X170303Y305253D01*
X168834Y306928D01*
X167158Y308398D01*
X165306Y309636D01*
X163307Y310622D01*
X161197Y311338D01*
X159011Y311773D01*
X156787Y311918D01*
D02*
G37*
G36*
X100807Y261835D02*
X93902D01*
Y254929D01*
X100807D01*
Y261835D01*
D02*
G37*
G36*
X28287Y194364D02*
X27386Y194246D01*
X26546Y193898D01*
X25825Y193344D01*
X25271Y192623D01*
X24924Y191783D01*
X24805Y190882D01*
X24924Y189980D01*
X25271Y189141D01*
X25825Y188419D01*
X26546Y187866D01*
X27386Y187518D01*
X28287Y187399D01*
X29189Y187518D01*
X30029Y187866D01*
X30750Y188419D01*
X31303Y189141D01*
X31651Y189980D01*
X31770Y190882D01*
X31651Y191783D01*
X31303Y192623D01*
X30750Y193344D01*
X30029Y193898D01*
X29189Y194246D01*
X28287Y194364D01*
D02*
G37*
G36*
X182787Y189057D02*
X182004Y188954D01*
X181274Y188652D01*
X180648Y188171D01*
X180167Y187544D01*
X179865Y186815D01*
X179762Y186031D01*
X179808Y185677D01*
X179478Y185301D01*
X104112D01*
X103908Y185795D01*
X103427Y186422D01*
X102800Y186902D01*
X102071Y187205D01*
X101287Y187308D01*
X100504Y187205D01*
X99774Y186902D01*
X99148Y186422D01*
X98667Y185795D01*
X98365Y185065D01*
X98261Y184282D01*
X98365Y183499D01*
X98667Y182769D01*
X99148Y182142D01*
X99774Y181661D01*
X100504Y181359D01*
X101287Y181256D01*
X102071Y181359D01*
X102800Y181661D01*
X103427Y182142D01*
X103908Y182769D01*
X104112Y183262D01*
X181038D01*
X181428Y183340D01*
X181435Y183344D01*
X182004Y183109D01*
X182787Y183006D01*
X183571Y183109D01*
X184300Y183411D01*
X184927Y183892D01*
X185408Y184519D01*
X185710Y185248D01*
X185813Y186031D01*
X185710Y186815D01*
X185408Y187544D01*
X184927Y188171D01*
X184300Y188652D01*
X183571Y188954D01*
X182787Y189057D01*
D02*
G37*
G36*
X39287Y166161D02*
Y162724D01*
X42724D01*
X42654Y163260D01*
X42254Y164226D01*
X41618Y165055D01*
X40789Y165691D01*
X39823Y166091D01*
X39287Y166161D01*
D02*
G37*
G36*
X38287D02*
X37751Y166091D01*
X36786Y165691D01*
X35957Y165055D01*
X35321Y164226D01*
X34921Y163260D01*
X34850Y162724D01*
X38287D01*
Y166161D01*
D02*
G37*
G36*
Y161724D02*
X34850D01*
X34921Y161188D01*
X35321Y160223D01*
X35957Y159394D01*
X36786Y158758D01*
X37751Y158358D01*
X38287Y158288D01*
Y161724D01*
D02*
G37*
G36*
X28287Y224364D02*
X27386Y224246D01*
X26546Y223898D01*
X25825Y223344D01*
X25271Y222623D01*
X24924Y221783D01*
X24805Y220882D01*
X24924Y219981D01*
X25271Y219141D01*
X25825Y218419D01*
X26546Y217866D01*
X27386Y217518D01*
X28287Y217399D01*
X29189Y217518D01*
X30029Y217866D01*
X30750Y218419D01*
X31303Y219141D01*
X31602Y219862D01*
X66865D01*
X68768Y217960D01*
Y162899D01*
X67819D01*
X66856Y162707D01*
X66039Y162162D01*
X65494Y161345D01*
X65302Y160382D01*
X65494Y159419D01*
X66039Y158602D01*
X66702Y158160D01*
X66716Y158118D01*
Y157645D01*
X66702Y157604D01*
X66039Y157162D01*
X65494Y156345D01*
X65302Y155382D01*
X65494Y154419D01*
X66039Y153602D01*
X66279Y153442D01*
X66208Y152888D01*
X65702Y152499D01*
X65226Y151879D01*
X65028Y151401D01*
X51052D01*
X42244Y160210D01*
X42254Y160223D01*
X42654Y161188D01*
X42724Y161724D01*
X39287D01*
Y158288D01*
X39823Y158358D01*
X40789Y158758D01*
X40802Y158768D01*
X49909Y149661D01*
X50240Y149440D01*
X50630Y149362D01*
X65028D01*
X65226Y148885D01*
X65702Y148265D01*
X66322Y147789D01*
X67044Y147490D01*
X67819Y147388D01*
X69287D01*
Y150382D01*
X69787D01*
Y150882D01*
X74684D01*
X74648Y151157D01*
X74349Y151879D01*
X73873Y152499D01*
X73366Y152888D01*
X73295Y153442D01*
X73536Y153602D01*
X74081Y154419D01*
X74273Y155382D01*
X74081Y156345D01*
X73536Y157162D01*
X72873Y157604D01*
X72859Y157645D01*
Y158118D01*
X72873Y158160D01*
X73536Y158602D01*
X74081Y159419D01*
X74273Y160382D01*
X74081Y161345D01*
X73536Y162162D01*
X72719Y162707D01*
X71756Y162899D01*
X70807D01*
Y218382D01*
X70729Y218772D01*
X70508Y219103D01*
X68008Y221603D01*
X67678Y221824D01*
X67287Y221901D01*
X31602D01*
X31303Y222623D01*
X30750Y223344D01*
X30029Y223898D01*
X29189Y224246D01*
X28287Y224364D01*
D02*
G37*
G36*
X42256Y155850D02*
X35319D01*
Y148913D01*
X42256D01*
Y155850D01*
D02*
G37*
G36*
X74684Y149882D02*
X70287D01*
Y147388D01*
X71756D01*
X72531Y147490D01*
X73253Y147789D01*
X73873Y148265D01*
X74349Y148885D01*
X74648Y149607D01*
X74684Y149882D01*
D02*
G37*
G36*
X113787Y146508D02*
X113004Y146405D01*
X112275Y146102D01*
X111648Y145622D01*
X111167Y144995D01*
X110962Y144501D01*
X49612D01*
X49408Y144995D01*
X48927Y145622D01*
X48300Y146102D01*
X47571Y146405D01*
X46787Y146508D01*
X46004Y146405D01*
X45274Y146102D01*
X44648Y145622D01*
X44167Y144995D01*
X43865Y144265D01*
X43762Y143482D01*
X43865Y142699D01*
X44167Y141969D01*
X44648Y141342D01*
X45274Y140861D01*
X46004Y140559D01*
X46787Y140456D01*
X47571Y140559D01*
X48300Y140861D01*
X48927Y141342D01*
X49408Y141969D01*
X49612Y142462D01*
X110962D01*
X111167Y141969D01*
X111648Y141342D01*
X112275Y140861D01*
X113004Y140559D01*
X113787Y140456D01*
X114571Y140559D01*
X115300Y140861D01*
X115927Y141342D01*
X116408Y141969D01*
X116710Y142699D01*
X116813Y143482D01*
X116710Y144265D01*
X116408Y144995D01*
X115927Y145622D01*
X115300Y146102D01*
X114571Y146405D01*
X113787Y146508D01*
D02*
G37*
G36*
X182224Y135531D02*
X173350D01*
Y128232D01*
X182224D01*
Y135531D01*
D02*
G37*
G36*
X168575Y135563D02*
X167000D01*
X166047Y135438D01*
X165159Y135070D01*
X164397Y134485D01*
X163812Y133722D01*
X163444Y132835D01*
X163319Y131882D01*
X163444Y130929D01*
X163812Y130041D01*
X164397Y129279D01*
X165159Y128694D01*
X166047Y128326D01*
X167000Y128201D01*
X168575D01*
X169527Y128326D01*
X170415Y128694D01*
X171178Y129279D01*
X171763Y130041D01*
X172131Y130929D01*
X172256Y131882D01*
X172131Y132835D01*
X171763Y133722D01*
X171178Y134485D01*
X170415Y135070D01*
X169527Y135438D01*
X168575Y135563D01*
D02*
G37*
G36*
Y126067D02*
X168287D01*
Y122382D01*
X172694D01*
X172618Y122965D01*
X172199Y123975D01*
X171534Y124841D01*
X170668Y125507D01*
X169658Y125925D01*
X168575Y126067D01*
D02*
G37*
G36*
X178575Y125563D02*
X177000D01*
X176047Y125438D01*
X175159Y125070D01*
X174397Y124485D01*
X173812Y123722D01*
X173444Y122835D01*
X173319Y121882D01*
X173444Y120929D01*
X173812Y120041D01*
X174397Y119279D01*
X175159Y118694D01*
X176047Y118326D01*
X177000Y118201D01*
X178575D01*
X179527Y118326D01*
X180415Y118694D01*
X181178Y119279D01*
X181763Y120041D01*
X182131Y120929D01*
X182256Y121882D01*
X182131Y122835D01*
X181763Y123722D01*
X181178Y124485D01*
X180415Y125070D01*
X179527Y125438D01*
X178575Y125563D01*
D02*
G37*
G36*
X57287Y121350D02*
X56335Y121225D01*
X55447Y120857D01*
X54685Y120272D01*
X54100Y119510D01*
X53732Y118622D01*
X53606Y117669D01*
Y116095D01*
X53732Y115142D01*
X54100Y114254D01*
X54685Y113492D01*
X55447Y112907D01*
X56335Y112539D01*
X57287Y112413D01*
X58240Y112539D01*
X59128Y112907D01*
X59890Y113492D01*
X60475Y114254D01*
X60843Y115142D01*
X60969Y116095D01*
Y117669D01*
X60843Y118622D01*
X60475Y119510D01*
X59890Y120272D01*
X59128Y120857D01*
X58240Y121225D01*
X57287Y121350D01*
D02*
G37*
G36*
X172694Y111382D02*
X168287D01*
Y107696D01*
X168575D01*
X169658Y107839D01*
X170668Y108257D01*
X171534Y108922D01*
X172199Y109789D01*
X172618Y110799D01*
X172694Y111382D01*
D02*
G37*
G36*
X46787Y96850D02*
X45835Y96725D01*
X44947Y96357D01*
X44184Y95772D01*
X43600Y95010D01*
X43232Y94122D01*
X43106Y93169D01*
Y91594D01*
X43232Y90642D01*
X43600Y89754D01*
X44184Y88992D01*
X44947Y88407D01*
X45835Y88039D01*
X46787Y87913D01*
X47740Y88039D01*
X48628Y88407D01*
X49390Y88992D01*
X49975Y89754D01*
X50343Y90642D01*
X50468Y91594D01*
Y93169D01*
X50343Y94122D01*
X49975Y95010D01*
X49390Y95772D01*
X48628Y96357D01*
X47740Y96725D01*
X46787Y96850D01*
D02*
G37*
G36*
X36787D02*
X35835Y96725D01*
X34947Y96357D01*
X34185Y95772D01*
X33599Y95010D01*
X33232Y94122D01*
X33106Y93169D01*
Y91594D01*
X33232Y90642D01*
X33599Y89754D01*
X34185Y88992D01*
X34947Y88407D01*
X35835Y88039D01*
X36787Y87913D01*
X37740Y88039D01*
X38628Y88407D01*
X39390Y88992D01*
X39975Y89754D01*
X40343Y90642D01*
X40468Y91594D01*
Y93169D01*
X40343Y94122D01*
X39975Y95010D01*
X39390Y95772D01*
X38628Y96357D01*
X37740Y96725D01*
X36787Y96850D01*
D02*
G37*
G36*
X70987Y76008D02*
X70204Y75905D01*
X69475Y75602D01*
X68848Y75121D01*
X68367Y74495D01*
X68065Y73765D01*
X67962Y72982D01*
X68065Y72199D01*
X68269Y71705D01*
X44802Y48238D01*
X44308Y48443D01*
X43525Y48546D01*
X42742Y48443D01*
X42012Y48140D01*
X41386Y47659D01*
X40905Y47033D01*
X40602Y46303D01*
X40499Y45520D01*
X40602Y44736D01*
X40905Y44007D01*
X41386Y43380D01*
X42012Y42899D01*
X42742Y42597D01*
X43525Y42494D01*
X44308Y42597D01*
X45038Y42899D01*
X45665Y43380D01*
X46146Y44007D01*
X46448Y44736D01*
X46551Y45520D01*
X46448Y46303D01*
X46244Y46796D01*
X69711Y70263D01*
X70204Y70059D01*
X70987Y69956D01*
X71771Y70059D01*
X72500Y70361D01*
X73127Y70842D01*
X73608Y71469D01*
X73910Y72199D01*
X74013Y72982D01*
X73910Y73765D01*
X73608Y74495D01*
X73127Y75121D01*
X72500Y75602D01*
X71771Y75905D01*
X70987Y76008D01*
D02*
G37*
G36*
X75684Y52882D02*
X71287D01*
Y50388D01*
X72756D01*
X73531Y50490D01*
X74253Y50789D01*
X74873Y51265D01*
X75349Y51885D01*
X75648Y52607D01*
X75684Y52882D01*
D02*
G37*
G36*
X72756Y65899D02*
X68819D01*
X67856Y65707D01*
X67039Y65162D01*
X66494Y64345D01*
X66448Y64114D01*
X64720Y63999D01*
X64560Y63956D01*
X64397Y63924D01*
X64369Y63905D01*
X64335Y63896D01*
X64204Y63795D01*
X64066Y63703D01*
X64047Y63674D01*
X64020Y63653D01*
X63937Y63510D01*
X63845Y63372D01*
X63839Y63338D01*
X63822Y63309D01*
X63800Y63144D01*
X63768Y62982D01*
Y53215D01*
X63845Y52825D01*
X64066Y52494D01*
X72329Y44232D01*
X72373Y43902D01*
X72675Y43172D01*
X73156Y42545D01*
X73782Y42064D01*
X74512Y41762D01*
X75295Y41659D01*
X76078Y41762D01*
X76808Y42064D01*
X77435Y42545D01*
X77916Y43172D01*
X78218Y43902D01*
X78321Y44685D01*
X78218Y45468D01*
X77916Y46198D01*
X77435Y46825D01*
X76808Y47306D01*
X76078Y47608D01*
X75295Y47711D01*
X74512Y47608D01*
X73782Y47306D01*
X73156Y46825D01*
X73154Y46822D01*
X72655Y46790D01*
X69519Y49926D01*
X69710Y50388D01*
X70287D01*
Y53382D01*
X70787D01*
Y53882D01*
X75684D01*
X75648Y54157D01*
X75349Y54879D01*
X74873Y55499D01*
X74366Y55888D01*
X74295Y56442D01*
X74536Y56602D01*
X75081Y57419D01*
X75273Y58382D01*
X75081Y59345D01*
X74536Y60162D01*
X73873Y60604D01*
X73859Y60645D01*
Y61118D01*
X73873Y61160D01*
X74536Y61602D01*
X75081Y62419D01*
X75273Y63382D01*
X75081Y64345D01*
X74536Y65162D01*
X73719Y65707D01*
X72756Y65899D01*
D02*
G37*
G36*
X37287Y60357D02*
X36504Y60254D01*
X35774Y59951D01*
X35148Y59470D01*
X34667Y58844D01*
X34365Y58114D01*
X34262Y57331D01*
X34365Y56547D01*
X34667Y55818D01*
X35148Y55191D01*
X35774Y54710D01*
X36268Y54506D01*
Y40382D01*
X36345Y39992D01*
X36566Y39661D01*
X39066Y37161D01*
X39397Y36940D01*
X39787Y36862D01*
X66031D01*
X66539Y36102D01*
X67202Y35660D01*
X67216Y35618D01*
Y35145D01*
X67202Y35104D01*
X66539Y34662D01*
X65994Y33845D01*
X65802Y32882D01*
X65994Y31919D01*
X66539Y31102D01*
X67202Y30660D01*
X67216Y30618D01*
Y30145D01*
X67202Y30104D01*
X66539Y29662D01*
X66031Y28901D01*
X44112D01*
X43908Y29395D01*
X43427Y30022D01*
X42800Y30502D01*
X42071Y30805D01*
X41287Y30908D01*
X40504Y30805D01*
X39775Y30502D01*
X39148Y30022D01*
X38667Y29395D01*
X38365Y28665D01*
X38262Y27882D01*
X38365Y27099D01*
X38667Y26369D01*
X39148Y25742D01*
X39775Y25261D01*
X40504Y24959D01*
X41287Y24856D01*
X42071Y24959D01*
X42800Y25261D01*
X43427Y25742D01*
X43908Y26369D01*
X44112Y26862D01*
X66031D01*
X66539Y26102D01*
X67356Y25557D01*
X68319Y25365D01*
X72256D01*
X73219Y25557D01*
X74036Y26102D01*
X74581Y26919D01*
X74773Y27882D01*
X74581Y28845D01*
X74036Y29662D01*
X73373Y30104D01*
X73359Y30145D01*
Y30618D01*
X73373Y30660D01*
X74036Y31102D01*
X74543Y31862D01*
X79565D01*
X86115Y25312D01*
X85911Y24819D01*
X85808Y24035D01*
X85911Y23252D01*
X86213Y22523D01*
X86694Y21896D01*
X87321Y21415D01*
X88051Y21113D01*
X88834Y21010D01*
X89617Y21113D01*
X90347Y21415D01*
X90973Y21896D01*
X91454Y22523D01*
X91757Y23252D01*
X91860Y24035D01*
X91757Y24819D01*
X91454Y25548D01*
X90973Y26175D01*
X90347Y26656D01*
X89617Y26958D01*
X88834Y27061D01*
X88051Y26958D01*
X87557Y26754D01*
X80708Y33603D01*
X80378Y33824D01*
X79987Y33902D01*
X74543D01*
X74036Y34662D01*
X73373Y35104D01*
X73359Y35145D01*
Y35618D01*
X73373Y35660D01*
X74036Y36102D01*
X74581Y36919D01*
X74773Y37882D01*
X74581Y38845D01*
X74036Y39662D01*
X73219Y40207D01*
X72256Y40399D01*
X68319D01*
X67356Y40207D01*
X66539Y39662D01*
X66031Y38901D01*
X40210D01*
X38307Y40804D01*
Y54506D01*
X38800Y54710D01*
X39427Y55191D01*
X39908Y55818D01*
X40210Y56547D01*
X40313Y57331D01*
X40210Y58114D01*
X39908Y58844D01*
X39427Y59470D01*
X38800Y59951D01*
X38071Y60254D01*
X37287Y60357D01*
D02*
G37*
G36*
X116887Y87608D02*
X116104Y87505D01*
X115375Y87202D01*
X114748Y86721D01*
X114267Y86095D01*
X114062Y85602D01*
X90912D01*
X90708Y86095D01*
X90227Y86721D01*
X89600Y87202D01*
X88871Y87505D01*
X88087Y87608D01*
X87304Y87505D01*
X86575Y87202D01*
X85948Y86721D01*
X85467Y86095D01*
X85165Y85365D01*
X85062Y84582D01*
X85165Y83799D01*
X85467Y83069D01*
X85948Y82442D01*
X86575Y81961D01*
X87304Y81659D01*
X88087Y81556D01*
X88871Y81659D01*
X89600Y81961D01*
X90227Y82442D01*
X90708Y83069D01*
X90912Y83562D01*
X114062D01*
X114267Y83069D01*
X114748Y82442D01*
X115375Y81961D01*
X116104Y81659D01*
X116887Y81556D01*
X117671Y81659D01*
X118400Y81961D01*
X119027Y82442D01*
X119508Y83069D01*
X119810Y83799D01*
X119913Y84582D01*
X119810Y85365D01*
X119508Y86095D01*
X119027Y86721D01*
X118400Y87202D01*
X117671Y87505D01*
X116887Y87608D01*
D02*
G37*
G36*
X172694Y91382D02*
X168287D01*
Y87696D01*
X168575D01*
X169658Y87839D01*
X170668Y88257D01*
X171534Y88922D01*
X172199Y89789D01*
X172618Y90799D01*
X172694Y91382D01*
D02*
G37*
%LPD*%
D16*
X210630Y9843D02*
D03*
Y332677D02*
D03*
X9843D02*
D03*
Y9843D02*
D03*
D20*
X181038Y184282D02*
X182787Y186031D01*
X17287Y116882D02*
Y132382D01*
X19287Y134382D01*
X127461D01*
X139287Y146208D01*
X145787Y91882D02*
X167787D01*
X143387Y94282D02*
X145787Y91882D01*
X127887Y94282D02*
X143387D01*
X118087Y104082D02*
X127887Y94282D01*
X126335Y108382D02*
X130661Y104056D01*
X116987Y108382D02*
X126335D01*
X113787Y105182D02*
X116987Y108382D01*
X113787Y101382D02*
Y105182D01*
Y101382D02*
X173287Y41882D01*
X27287Y116882D02*
Y128382D01*
X29687Y130782D01*
X74287D01*
X41287Y27882D02*
X70287D01*
X101287Y184282D02*
X181038D01*
X17287Y112382D02*
Y116882D01*
Y112382D02*
X18287Y111382D01*
X46287D01*
X47287Y112382D01*
Y116882D01*
X50630Y150382D02*
X69787D01*
X38787Y162224D02*
X50630Y150382D01*
X67287Y116882D02*
Y121382D01*
X72287Y122382D01*
X81627Y131722D01*
X153748D01*
X163587Y121882D01*
X167787D01*
X67287Y112182D02*
Y116882D01*
X65787Y110682D02*
X67287Y112182D01*
X50037Y110682D02*
X65787D01*
X47737Y108382D02*
X50037Y110682D01*
X11287Y108382D02*
X47737D01*
X7287Y112382D02*
X11287Y108382D01*
X7287Y112382D02*
Y116882D01*
X138187Y98182D02*
Y98582D01*
Y98182D02*
X139787Y96582D01*
X181087D01*
X183287Y94382D01*
Y65982D02*
Y94382D01*
X173787Y56482D02*
X183287Y65982D01*
X8287Y220882D02*
X18287Y230882D01*
X28287D01*
Y302382D01*
X30787Y304882D01*
X87787D01*
X96720D01*
X143220Y258382D01*
X145487Y122756D02*
X150513D01*
X160387Y112882D01*
X96087Y113307D02*
X112502Y129722D01*
X151948D01*
X164787Y116882D01*
X171987D01*
X176987Y111882D01*
X177787D01*
X133811Y122205D02*
X137187Y119182D01*
Y112382D02*
Y119182D01*
Y112382D02*
X143487Y106082D01*
X172787D01*
X176987Y101882D01*
X177787D01*
X176887Y91882D02*
X177787D01*
X169287Y84282D02*
X176887Y91882D01*
X147087Y84282D02*
X169287D01*
X37287Y102282D02*
X51737D01*
X55837Y106382D01*
X70963D01*
X87187Y122606D01*
X62087Y98382D02*
X93487D01*
X109487Y114382D01*
X133513D01*
X37287Y40382D02*
Y57331D01*
Y40382D02*
X39787Y37882D01*
X70287D01*
X43525Y45520D02*
X70987Y72982D01*
X76787Y92382D02*
X93887D01*
X111887Y110382D01*
X135681D01*
X145669Y100394D01*
X66787Y83782D02*
Y92382D01*
Y83782D02*
X114187Y36382D01*
X174587D01*
X178787Y40582D01*
Y44582D01*
X143087Y80282D02*
X178787Y44582D01*
X143087Y80282D02*
Y89582D01*
X56787Y92382D02*
Y100382D01*
X58787Y102382D01*
X94087D01*
X119427Y127722D01*
X133848D01*
X145487Y116082D01*
Y110158D02*
Y116082D01*
X46787Y143482D02*
X113787D01*
X26787Y87182D02*
Y92382D01*
Y87182D02*
X28787Y85182D01*
X48887D01*
X52087Y88382D01*
Y99082D01*
X57387Y104382D01*
X77964D01*
X99487Y125906D01*
X16787Y92382D02*
Y104382D01*
X18787Y106382D01*
X50087D01*
X52087Y108382D01*
X67187D01*
X85487Y126682D01*
X91087D01*
X28287Y220882D02*
X67287D01*
X69787Y218382D01*
Y160382D02*
Y218382D01*
X73121Y44882D02*
X75918D01*
X64787Y53215D02*
X73121Y44882D01*
X64787Y53215D02*
Y62982D01*
X70787Y63382D01*
X70287Y32882D02*
X79987D01*
X88834Y24035D01*
X88087Y84582D02*
X116887D01*
D67*
X70787Y53382D02*
D03*
Y58382D02*
D03*
X70287Y27882D02*
D03*
Y32882D02*
D03*
X69787Y150382D02*
D03*
Y155382D02*
D03*
D68*
X70787Y63382D02*
D03*
X70287Y37882D02*
D03*
X69787Y160382D02*
D03*
D69*
X38787Y152382D02*
D03*
D70*
Y162224D02*
D03*
D71*
X143220Y258382D02*
D03*
X28287Y190882D02*
D03*
Y220882D02*
D03*
Y230882D02*
D03*
X8287Y190882D02*
D03*
Y220882D02*
D03*
Y230882D02*
D03*
D72*
X97354Y258382D02*
D03*
D73*
X67287Y116882D02*
D03*
X57287D02*
D03*
X47287D02*
D03*
X37287D02*
D03*
X27287D02*
D03*
X17287D02*
D03*
X66787Y92382D02*
D03*
X56787D02*
D03*
X46787D02*
D03*
X36787D02*
D03*
X26787D02*
D03*
X16787D02*
D03*
X6787D02*
D03*
D74*
X7287Y116882D02*
D03*
X76787Y92382D02*
D03*
D75*
X13394Y282728D02*
D03*
D76*
X156787Y294882D02*
D03*
D77*
X87787Y284882D02*
D03*
Y294882D02*
D03*
Y304882D02*
D03*
D78*
X177787Y131882D02*
D03*
D79*
Y121882D02*
D03*
Y111882D02*
D03*
Y101882D02*
D03*
Y91882D02*
D03*
X167787Y131882D02*
D03*
Y121882D02*
D03*
Y111882D02*
D03*
Y101882D02*
D03*
Y91882D02*
D03*
D80*
X75295Y44685D02*
D03*
X146555Y121457D02*
D03*
X133169Y121949D02*
D03*
X130512Y103839D02*
D03*
X101287Y184282D02*
D03*
X139287Y146208D02*
D03*
X118087Y104082D02*
D03*
X173287Y41882D02*
D03*
X74287Y130782D02*
D03*
X41287Y27882D02*
D03*
X182787Y186031D02*
D03*
X138187Y98582D02*
D03*
X173787Y56482D02*
D03*
X160387Y112882D02*
D03*
X96087Y113307D02*
D03*
X147087Y84282D02*
D03*
X37287Y102282D02*
D03*
X87187Y122606D02*
D03*
X62087Y98382D02*
D03*
X133513Y114382D02*
D03*
X37287Y57331D02*
D03*
X43525Y45520D02*
D03*
X70987Y72982D02*
D03*
X145669Y100394D02*
D03*
X143087Y89582D02*
D03*
X145487Y110158D02*
D03*
X46787Y143482D02*
D03*
X113787D02*
D03*
X99487Y125906D02*
D03*
X91087Y126682D02*
D03*
X88834Y24035D02*
D03*
X88087Y84582D02*
D03*
X116887D02*
D03*
M02*
