G04*
G04 #@! TF.GenerationSoftware,Altium Limited,Altium Designer,20.0.13 (296)*
G04*
G04 Layer_Physical_Order=1*
G04 Layer_Color=255*
%FSLAX25Y25*%
%MOIN*%
G70*
G01*
G75*
%ADD16C,0.06000*%
%ADD20C,0.01000*%
%ADD22R,0.03819X0.06811*%
%ADD23O,0.02165X0.05906*%
%ADD24O,0.05906X0.02165*%
%ADD25R,0.06811X0.03819*%
%ADD26R,0.02126X0.03701*%
%ADD27R,0.03701X0.02126*%
%ADD28R,0.25000X0.15000*%
%ADD29R,0.15984X0.12992*%
G04:AMPARAMS|DCode=30|XSize=47.64mil|YSize=28.74mil|CornerRadius=2.59mil|HoleSize=0mil|Usage=FLASHONLY|Rotation=270.000|XOffset=0mil|YOffset=0mil|HoleType=Round|Shape=RoundedRectangle|*
%AMROUNDEDRECTD30*
21,1,0.04764,0.02357,0,0,270.0*
21,1,0.04247,0.02874,0,0,270.0*
1,1,0.00517,-0.01178,-0.02123*
1,1,0.00517,-0.01178,0.02123*
1,1,0.00517,0.01178,0.02123*
1,1,0.00517,0.01178,-0.02123*
%
%ADD30ROUNDEDRECTD30*%
%ADD31R,0.07087X0.16535*%
%ADD32R,0.14173X0.08661*%
%ADD33R,0.04800X0.08800*%
%ADD34R,0.21654X0.07874*%
%ADD35R,0.06102X0.02362*%
%ADD36R,0.07874X0.04724*%
%ADD67O,0.07874X0.03937*%
%ADD68O,0.07874X0.03937*%
%ADD69R,0.05937X0.05937*%
%ADD70C,0.05937*%
%ADD71C,0.05906*%
%ADD72R,0.05906X0.05906*%
%ADD73O,0.06299X0.07874*%
%ADD74R,0.06299X0.07874*%
%ADD75C,0.10551*%
%ADD76C,0.13000*%
%ADD77O,0.13200X0.06600*%
%ADD78R,0.07874X0.06299*%
%ADD79O,0.07874X0.06299*%
%ADD80C,0.05000*%
G36*
X205162Y332677D02*
X205348Y331262D01*
X205894Y329943D01*
X206764Y328811D01*
X207896Y327942D01*
X209215Y327395D01*
X210630Y327209D01*
Y15311D01*
X209215Y15124D01*
X207896Y14578D01*
X206764Y13709D01*
X205894Y12576D01*
X205348Y11258D01*
X205162Y9843D01*
X15311D01*
X15124Y11258D01*
X14578Y12576D01*
X13709Y13709D01*
X12577Y14578D01*
X11258Y15124D01*
X9843Y15311D01*
X9843Y15311D01*
Y29665D01*
X13484D01*
Y35390D01*
X9843D01*
Y59587D01*
X13484D01*
Y65311D01*
X9843D01*
Y89581D01*
X9975Y89754D01*
X10343Y90642D01*
X10469Y91594D01*
Y93169D01*
X10343Y94122D01*
X9975Y95010D01*
X9843Y95183D01*
Y111945D01*
X11437D01*
Y116382D01*
X7287D01*
Y117382D01*
X11437D01*
Y121819D01*
X9843D01*
Y179232D01*
X10305Y179423D01*
X35319Y154409D01*
Y148913D01*
X42256D01*
Y155850D01*
X36761D01*
X9843Y182769D01*
Y187789D01*
X10029Y187866D01*
X10750Y188419D01*
X11303Y189141D01*
X11651Y189980D01*
X11770Y190882D01*
X11651Y191783D01*
X11303Y192623D01*
X10750Y193344D01*
X10029Y193898D01*
X9843Y193975D01*
Y217789D01*
X10029Y217866D01*
X10750Y218419D01*
X11303Y219141D01*
X11651Y219981D01*
X11770Y220882D01*
X11651Y221783D01*
X11303Y222623D01*
X10750Y223344D01*
X10029Y223898D01*
X9843Y223975D01*
Y227789D01*
X10029Y227866D01*
X10750Y228419D01*
X11303Y229141D01*
X11651Y229980D01*
X11770Y230882D01*
X11651Y231783D01*
X11303Y232623D01*
X10750Y233344D01*
X10029Y233898D01*
X9843Y233975D01*
Y277608D01*
X10291Y277829D01*
X10481Y277683D01*
X11886Y277101D01*
X13394Y276903D01*
X14901Y277101D01*
X16307Y277683D01*
X17513Y278609D01*
X18439Y279816D01*
X19021Y281221D01*
X19219Y282728D01*
X19021Y284236D01*
X18439Y285641D01*
X17513Y286847D01*
X16307Y287773D01*
X14901Y288355D01*
X13394Y288554D01*
X11886Y288355D01*
X10481Y287773D01*
X10291Y287627D01*
X9843Y287848D01*
Y327209D01*
X9843Y327209D01*
X11258Y327395D01*
X12577Y327942D01*
X13709Y328811D01*
X14578Y329943D01*
X15124Y331262D01*
X15311Y332677D01*
X15311Y332677D01*
X205162D01*
X205162Y332677D01*
D02*
G37*
%LPC*%
G36*
X41697Y316543D02*
X28697D01*
Y308543D01*
X41697D01*
Y316543D01*
D02*
G37*
G36*
X27697D02*
X14697D01*
Y308543D01*
X27697D01*
Y316543D01*
D02*
G37*
G36*
X91087Y308715D02*
X84487D01*
X83495Y308584D01*
X82571Y308201D01*
X81777Y307592D01*
X81168Y306798D01*
X80785Y305874D01*
X80655Y304882D01*
X80785Y303890D01*
X81168Y302965D01*
X81777Y302172D01*
X82571Y301563D01*
X83495Y301180D01*
X84487Y301049D01*
X91087D01*
X92079Y301180D01*
X93004Y301563D01*
X93798Y302172D01*
X94407Y302965D01*
X94790Y303890D01*
X94920Y304882D01*
X94790Y305874D01*
X94407Y306798D01*
X93798Y307592D01*
X93004Y308201D01*
X92079Y308584D01*
X91087Y308715D01*
D02*
G37*
G36*
X27697Y307543D02*
X14697D01*
Y299543D01*
X27697D01*
Y307543D01*
D02*
G37*
G36*
X41697D02*
X28697D01*
Y299543D01*
X35255D01*
X38435Y296363D01*
X38243Y295901D01*
X30697D01*
X30307Y295824D01*
X29976Y295603D01*
X27476Y293103D01*
X27255Y292772D01*
X27177Y292382D01*
Y264220D01*
X14697D01*
Y256221D01*
X41697D01*
Y264220D01*
X29216D01*
Y291960D01*
X31119Y293862D01*
X80285D01*
X80298Y293759D01*
X80731Y292713D01*
X81421Y291815D01*
X82319Y291126D01*
X83365Y290693D01*
X84487Y290545D01*
X87287D01*
Y294882D01*
Y299219D01*
X84487D01*
X83365Y299071D01*
X82319Y298638D01*
X81421Y297949D01*
X80731Y297050D01*
X80298Y296004D01*
X80285Y295901D01*
X41780D01*
X38601Y299081D01*
X38792Y299543D01*
X41697D01*
Y307543D01*
D02*
G37*
G36*
X156787Y311918D02*
X154564Y311773D01*
X152378Y311338D01*
X150268Y310622D01*
X148269Y309636D01*
X146416Y308398D01*
X144741Y306928D01*
X143272Y305253D01*
X142033Y303400D01*
X141048Y301401D01*
X140331Y299291D01*
X139897Y297106D01*
X139751Y294882D01*
X139897Y292658D01*
X140331Y290473D01*
X141048Y288362D01*
X142033Y286364D01*
X143272Y284511D01*
X144741Y282835D01*
X146416Y281366D01*
X148269Y280128D01*
X150268Y279142D01*
X152378Y278426D01*
X154564Y277991D01*
X156787Y277845D01*
X159011Y277991D01*
X161197Y278426D01*
X163307Y279142D01*
X165306Y280128D01*
X167158Y281366D01*
X168834Y282835D01*
X170303Y284511D01*
X171541Y286364D01*
X172527Y288362D01*
X173243Y290473D01*
X173678Y292658D01*
X173824Y294882D01*
X173678Y297106D01*
X173243Y299291D01*
X172527Y301401D01*
X171541Y303400D01*
X170303Y305253D01*
X168834Y306928D01*
X167158Y308398D01*
X165306Y309636D01*
X163307Y310622D01*
X161197Y311338D01*
X159011Y311773D01*
X156787Y311918D01*
D02*
G37*
G36*
X91087Y288715D02*
X84487D01*
X83495Y288584D01*
X82571Y288201D01*
X81777Y287592D01*
X81168Y286798D01*
X80785Y285874D01*
X80655Y284882D01*
X80785Y283890D01*
X81168Y282965D01*
X81777Y282172D01*
X82571Y281563D01*
X83495Y281180D01*
X84487Y281049D01*
X86768D01*
Y265804D01*
X85409Y264445D01*
X82937D01*
Y261319D01*
X87638D01*
Y261862D01*
X93413D01*
X93902Y261835D01*
Y260001D01*
X67210D01*
X65201Y262010D01*
Y272740D01*
X72673D01*
Y286732D01*
X55689D01*
Y272740D01*
X63162D01*
Y261588D01*
X63239Y261198D01*
X63460Y260867D01*
X66066Y258261D01*
X66397Y258040D01*
X66787Y257962D01*
X82437D01*
Y257083D01*
X85287D01*
X88138D01*
Y257962D01*
X93902D01*
Y254929D01*
X100807D01*
Y261835D01*
X101296Y261862D01*
X107465D01*
X109368Y259960D01*
Y220928D01*
X108874Y220913D01*
X108868Y220913D01*
X93701D01*
Y211252D01*
X108868D01*
X108874Y211252D01*
X109368Y211237D01*
Y196581D01*
X107487D01*
Y195977D01*
X107026Y195786D01*
X105008Y197803D01*
X104678Y198024D01*
X104287Y198101D01*
X77687D01*
X77297Y198024D01*
X76966Y197803D01*
X51266Y172103D01*
X51045Y171772D01*
X50968Y171382D01*
Y119627D01*
X50499Y119516D01*
X50468Y119520D01*
X49890Y120272D01*
X49128Y120857D01*
X48240Y121225D01*
X47287Y121350D01*
X46335Y121225D01*
X45447Y120857D01*
X44684Y120272D01*
X44107Y119520D01*
X44075Y119516D01*
X43607Y119627D01*
Y138860D01*
X45511Y140763D01*
X46004Y140559D01*
X46787Y140456D01*
X47571Y140559D01*
X48300Y140861D01*
X48927Y141342D01*
X49408Y141969D01*
X49710Y142699D01*
X49813Y143482D01*
X49710Y144265D01*
X49408Y144995D01*
X48927Y145622D01*
X48300Y146102D01*
X47571Y146405D01*
X46787Y146508D01*
X46004Y146405D01*
X45274Y146102D01*
X44648Y145622D01*
X44167Y144995D01*
X43865Y144265D01*
X43762Y143482D01*
X43865Y142699D01*
X44069Y142205D01*
X41866Y140003D01*
X41645Y139672D01*
X41568Y139282D01*
Y102804D01*
X40783Y102020D01*
X40310Y102253D01*
X40313Y102282D01*
X40210Y103065D01*
X39908Y103795D01*
X39427Y104421D01*
X38800Y104902D01*
X38307Y105107D01*
Y112566D01*
X39128Y112907D01*
X39890Y113492D01*
X40475Y114254D01*
X40843Y115142D01*
X40968Y116095D01*
Y117669D01*
X40843Y118622D01*
X40475Y119510D01*
X39890Y120272D01*
X39128Y120857D01*
X38240Y121225D01*
X37287Y121350D01*
X36335Y121225D01*
X35447Y120857D01*
X34685Y120272D01*
X34100Y119510D01*
X33732Y118622D01*
X33606Y117669D01*
Y116095D01*
X33732Y115142D01*
X34100Y114254D01*
X34685Y113492D01*
X35447Y112907D01*
X36268Y112566D01*
Y105107D01*
X35774Y104902D01*
X35148Y104421D01*
X34667Y103795D01*
X34365Y103065D01*
X34262Y102282D01*
X34365Y101499D01*
X34667Y100769D01*
X35148Y100142D01*
X35774Y99661D01*
X36504Y99359D01*
X37133Y99276D01*
X37361Y98798D01*
X36066Y97503D01*
X35845Y97172D01*
X35768Y96782D01*
Y96697D01*
X34947Y96357D01*
X34185Y95772D01*
X33599Y95010D01*
X33232Y94122D01*
X33106Y93169D01*
Y91594D01*
X33232Y90642D01*
X33599Y89754D01*
X34185Y88992D01*
X34947Y88407D01*
X35835Y88039D01*
X36787Y87913D01*
X37740Y88039D01*
X38628Y88407D01*
X39390Y88992D01*
X39975Y89754D01*
X40343Y90642D01*
X40468Y91594D01*
Y93169D01*
X40343Y94122D01*
X39975Y95010D01*
X39390Y95772D01*
X38628Y96357D01*
X38462Y96426D01*
X38364Y96917D01*
X39265Y97817D01*
X39378Y97840D01*
X39708Y98061D01*
X43308Y101661D01*
X43529Y101992D01*
X43607Y102382D01*
Y114136D01*
X44075Y114248D01*
X44107Y114244D01*
X44684Y113492D01*
X45447Y112907D01*
X46335Y112539D01*
X47287Y112413D01*
X48240Y112539D01*
X49128Y112907D01*
X49890Y113492D01*
X50468Y114244D01*
X50499Y114248D01*
X50968Y114136D01*
Y112804D01*
X46066Y107903D01*
X45845Y107572D01*
X45768Y107182D01*
Y96697D01*
X44947Y96357D01*
X44184Y95772D01*
X43600Y95010D01*
X43232Y94122D01*
X43106Y93169D01*
Y91594D01*
X43232Y90642D01*
X43600Y89754D01*
X44184Y88992D01*
X44947Y88407D01*
X45835Y88039D01*
X46787Y87913D01*
X47740Y88039D01*
X48628Y88407D01*
X49390Y88992D01*
X49975Y89754D01*
X50343Y90642D01*
X50468Y91594D01*
Y93169D01*
X50343Y94122D01*
X49975Y95010D01*
X49390Y95772D01*
X48628Y96357D01*
X47807Y96697D01*
Y106760D01*
X52708Y111661D01*
X52929Y111992D01*
X53007Y112382D01*
Y170960D01*
X78110Y196062D01*
X88787D01*
Y192182D01*
X95587D01*
Y196062D01*
X98387D01*
Y186782D01*
X98847D01*
X99040Y186282D01*
X98667Y185795D01*
X98365Y185065D01*
X98261Y184282D01*
X98365Y183499D01*
X98667Y182769D01*
X99148Y182142D01*
X99774Y181661D01*
X100504Y181359D01*
X101287Y181256D01*
X102071Y181359D01*
X102800Y181661D01*
X103427Y182142D01*
X103908Y182769D01*
X104210Y183499D01*
X104313Y184282D01*
X104210Y185065D01*
X103908Y185795D01*
X103534Y186282D01*
X103727Y186782D01*
X104187D01*
Y195087D01*
X104649Y195278D01*
X105768Y194160D01*
Y186882D01*
X105845Y186492D01*
X106066Y186161D01*
X108066Y184161D01*
X108397Y183940D01*
X108787Y183862D01*
X121165D01*
X123068Y181960D01*
Y178315D01*
X118732D01*
Y173414D01*
X107266Y161949D01*
X107045Y161618D01*
X106968Y161228D01*
Y158922D01*
X106524Y158787D01*
Y158787D01*
X101705D01*
Y150976D01*
X101705D01*
X101869Y150579D01*
X86692Y135401D01*
X72287D01*
X71897Y135324D01*
X71566Y135103D01*
X69566Y133103D01*
X69345Y132772D01*
X69268Y132382D01*
Y124482D01*
X69345Y124092D01*
X69566Y123761D01*
X87068Y106260D01*
Y87407D01*
X86575Y87202D01*
X85948Y86721D01*
X85467Y86095D01*
X85165Y85365D01*
X85062Y84582D01*
X85165Y83799D01*
X85467Y83069D01*
X85948Y82442D01*
X86575Y81961D01*
X87304Y81659D01*
X88087Y81556D01*
X88871Y81659D01*
X89600Y81961D01*
X90227Y82442D01*
X90708Y83069D01*
X91010Y83799D01*
X91113Y84582D01*
X91010Y85365D01*
X90708Y86095D01*
X90227Y86721D01*
X89600Y87202D01*
X89107Y87407D01*
Y106682D01*
X89029Y107072D01*
X88808Y107403D01*
X71307Y124904D01*
Y128917D01*
X71807Y129086D01*
X72148Y128642D01*
X72774Y128161D01*
X73504Y127859D01*
X74287Y127756D01*
X75071Y127859D01*
X75800Y128161D01*
X76427Y128642D01*
X76908Y129269D01*
X77112Y129762D01*
X80465D01*
X82268Y127960D01*
Y120382D01*
X82345Y119992D01*
X82566Y119661D01*
X85566Y116661D01*
X85897Y116440D01*
X86287Y116362D01*
X94356D01*
X94437Y116201D01*
X94489Y115862D01*
X93948Y115447D01*
X93467Y114820D01*
X93165Y114090D01*
X93062Y113307D01*
X93165Y112524D01*
X93467Y111794D01*
X93948Y111168D01*
X94574Y110687D01*
X95304Y110384D01*
X96087Y110281D01*
X96871Y110384D01*
X97600Y110687D01*
X98227Y111168D01*
X98708Y111794D01*
X98912Y112287D01*
X102963D01*
X103044Y112166D01*
X103243Y112033D01*
Y111561D01*
X102849Y111177D01*
X100663D01*
X100273Y111100D01*
X99942Y110878D01*
X94166Y105103D01*
X93945Y104772D01*
X93868Y104382D01*
Y84404D01*
X83465Y74001D01*
X73812D01*
X73608Y74495D01*
X73127Y75121D01*
X72500Y75602D01*
X71771Y75905D01*
X70987Y76008D01*
X70204Y75905D01*
X69475Y75602D01*
X68848Y75121D01*
X68367Y74495D01*
X68065Y73765D01*
X67962Y72982D01*
X68065Y72199D01*
X68367Y71469D01*
X68848Y70842D01*
X69475Y70361D01*
X70204Y70059D01*
X70987Y69956D01*
X71771Y70059D01*
X72500Y70361D01*
X73127Y70842D01*
X73608Y71469D01*
X73812Y71962D01*
X83887D01*
X84278Y72040D01*
X84608Y72261D01*
X95608Y83261D01*
X95829Y83592D01*
X95907Y83982D01*
Y103960D01*
X101085Y109138D01*
X102963D01*
X103044Y109017D01*
X103243Y108883D01*
Y108411D01*
X102849Y108028D01*
X102313D01*
X101923Y107950D01*
X101592Y107729D01*
X98966Y105103D01*
X98745Y104772D01*
X98668Y104382D01*
Y79582D01*
X98745Y79192D01*
X98966Y78861D01*
X106768Y71060D01*
Y64782D01*
X106845Y64392D01*
X107066Y64061D01*
X110166Y60961D01*
X110272Y60891D01*
X110366Y60806D01*
X110436Y60781D01*
X110497Y60740D01*
X110622Y60715D01*
X110741Y60673D01*
X116535Y59833D01*
X116701Y59442D01*
X116474Y58945D01*
X110320D01*
X102193Y67072D01*
Y70445D01*
X94382D01*
Y69055D01*
X84487D01*
X84097Y68977D01*
X83766Y68756D01*
X75069Y60059D01*
X74571Y60108D01*
X74536Y60162D01*
X73873Y60604D01*
X73859Y60645D01*
Y61118D01*
X73873Y61160D01*
X74536Y61602D01*
X75081Y62419D01*
X75273Y63382D01*
X75081Y64345D01*
X74536Y65162D01*
X73719Y65707D01*
X72756Y65899D01*
X68819D01*
X67856Y65707D01*
X67039Y65162D01*
X66807Y64814D01*
X66307Y64966D01*
Y76560D01*
X72208Y82461D01*
X72429Y82792D01*
X72507Y83182D01*
Y100482D01*
X72429Y100872D01*
X72208Y101203D01*
X68307Y105104D01*
Y112043D01*
X68371Y112052D01*
X69380Y112470D01*
X70247Y113135D01*
X70912Y114002D01*
X71330Y115011D01*
X71473Y116095D01*
Y116382D01*
X67287D01*
X63102D01*
Y116095D01*
X63245Y115011D01*
X63663Y114002D01*
X64328Y113135D01*
X65195Y112470D01*
X66204Y112052D01*
X66268Y112043D01*
Y104682D01*
X66345Y104292D01*
X66566Y103961D01*
X70468Y100060D01*
Y95127D01*
X69999Y95016D01*
X69968Y95020D01*
X69390Y95772D01*
X68628Y96357D01*
X67740Y96725D01*
X66787Y96850D01*
X65835Y96725D01*
X64947Y96357D01*
X64943Y96355D01*
X64587Y96711D01*
X64708Y96869D01*
X65010Y97599D01*
X65113Y98382D01*
X65010Y99165D01*
X64708Y99895D01*
X64227Y100522D01*
X63600Y101002D01*
X62871Y101305D01*
X62087Y101408D01*
X61304Y101305D01*
X60811Y101100D01*
X58307Y103604D01*
Y112566D01*
X59128Y112907D01*
X59890Y113492D01*
X60475Y114254D01*
X60843Y115142D01*
X60969Y116095D01*
Y117669D01*
X60843Y118622D01*
X60475Y119510D01*
X59890Y120272D01*
X59128Y120857D01*
X58240Y121225D01*
X57287Y121350D01*
X56335Y121225D01*
X55447Y120857D01*
X54685Y120272D01*
X54100Y119510D01*
X53732Y118622D01*
X53606Y117669D01*
Y116095D01*
X53732Y115142D01*
X54100Y114254D01*
X54685Y113492D01*
X55447Y112907D01*
X56268Y112566D01*
Y103182D01*
X56345Y102792D01*
X56566Y102461D01*
X59369Y99658D01*
X59165Y99165D01*
X59061Y98382D01*
X59165Y97599D01*
X59467Y96869D01*
X59948Y96242D01*
X60575Y95761D01*
X61304Y95459D01*
X62087Y95356D01*
X62871Y95459D01*
X63074Y95543D01*
X63652Y95241D01*
X63680Y95114D01*
X63599Y95010D01*
X63232Y94122D01*
X63106Y93169D01*
Y91594D01*
X63232Y90642D01*
X63599Y89754D01*
X64184Y88992D01*
X64947Y88407D01*
X65835Y88039D01*
X66787Y87913D01*
X67740Y88039D01*
X68628Y88407D01*
X69390Y88992D01*
X69968Y89744D01*
X69999Y89748D01*
X70468Y89636D01*
Y83604D01*
X64566Y77703D01*
X41277Y54413D01*
X39235D01*
X39065Y54913D01*
X39427Y55191D01*
X39908Y55818D01*
X40210Y56547D01*
X40313Y57331D01*
X40210Y58114D01*
X39908Y58844D01*
X39427Y59470D01*
X38800Y59951D01*
X38071Y60254D01*
X37287Y60357D01*
X36504Y60254D01*
X35774Y59951D01*
X35148Y59470D01*
X34667Y58844D01*
X34462Y58350D01*
X27461D01*
Y59012D01*
X20358D01*
Y55650D01*
X19889Y55575D01*
X19858D01*
Y53894D01*
X23909D01*
Y52894D01*
X19858D01*
Y51213D01*
X19889D01*
X20358Y51138D01*
Y47776D01*
X27461D01*
Y48880D01*
X42493D01*
X42592Y48381D01*
X42012Y48140D01*
X41386Y47659D01*
X40905Y47033D01*
X40700Y46539D01*
X27461D01*
Y47201D01*
X20358D01*
Y43839D01*
X27461D01*
Y44500D01*
X40700D01*
X40905Y44007D01*
X41386Y43380D01*
X41748Y43102D01*
X41578Y42602D01*
X27461D01*
Y43264D01*
X20358D01*
Y39902D01*
X27461D01*
Y40563D01*
X62588D01*
X62978Y40641D01*
X63309Y40862D01*
X69828Y47381D01*
X73059D01*
X73228Y46880D01*
X73156Y46825D01*
X72675Y46198D01*
X72373Y45468D01*
X72269Y44685D01*
X72373Y43902D01*
X72675Y43172D01*
X73156Y42545D01*
X73782Y42064D01*
X74512Y41762D01*
X75295Y41659D01*
X76078Y41762D01*
X76808Y42064D01*
X77083Y42275D01*
X84390Y34968D01*
X84721Y34747D01*
X85111Y34669D01*
X94382D01*
Y33279D01*
X102193D01*
Y34669D01*
X105037D01*
X105151Y34593D01*
X105541Y34516D01*
X108882D01*
Y33126D01*
X116693D01*
Y37945D01*
X108882D01*
Y36555D01*
X105891D01*
X105778Y36631D01*
X105387Y36709D01*
X102193D01*
Y38098D01*
X94382D01*
Y36709D01*
X85533D01*
X78232Y44010D01*
X78321Y44685D01*
X78231Y45370D01*
X78475Y45557D01*
X78680Y45628D01*
X84800Y39507D01*
X85131Y39286D01*
X85521Y39209D01*
X124382D01*
Y37819D01*
X132193D01*
Y42638D01*
X124382D01*
Y41248D01*
X85944D01*
X78773Y48419D01*
X78964Y48880D01*
X112881D01*
X113271Y48958D01*
X113602Y49179D01*
X113602Y49179D01*
X118508Y54085D01*
X118729Y54416D01*
X118807Y54806D01*
Y60682D01*
X118782Y60806D01*
X118776Y60933D01*
X118744Y61000D01*
X118729Y61072D01*
X118659Y61177D01*
X118604Y61292D01*
X118549Y61341D01*
X118508Y61403D01*
X118403Y61473D01*
X118309Y61558D01*
X118239Y61583D01*
X118178Y61624D01*
X118053Y61649D01*
X117934Y61691D01*
X111369Y62642D01*
X108807Y65204D01*
Y65311D01*
X108882Y65779D01*
X116693D01*
Y70598D01*
X113764D01*
X113729Y70772D01*
X113508Y71103D01*
X102708Y81903D01*
Y102337D01*
X103071Y102699D01*
X103568Y102367D01*
X104185Y102245D01*
X107925D01*
X108543Y102367D01*
X109066Y102717D01*
X109416Y103241D01*
X109539Y103858D01*
X109416Y104476D01*
X109066Y104999D01*
X108867Y105132D01*
Y105734D01*
X109066Y105867D01*
X109416Y106390D01*
X109539Y107008D01*
X109416Y107625D01*
X109066Y108149D01*
X108867Y108282D01*
Y108883D01*
X109066Y109017D01*
X109416Y109540D01*
X109539Y110158D01*
X109416Y110775D01*
X109066Y111299D01*
X108867Y111432D01*
Y112033D01*
X109066Y112166D01*
X109416Y112690D01*
X109539Y113307D01*
X109416Y113925D01*
X109066Y114448D01*
X108867Y114581D01*
Y115183D01*
X109066Y115316D01*
X109416Y115839D01*
X109539Y116457D01*
X109416Y117074D01*
X109066Y117598D01*
X108867Y117731D01*
Y118203D01*
X109262Y118587D01*
X109312D01*
X109702Y118664D01*
X110033Y118885D01*
X110808Y119661D01*
X111029Y119992D01*
X111107Y120382D01*
Y127482D01*
X111051Y127762D01*
X111265Y128075D01*
X111411Y128200D01*
X111764Y128130D01*
X112381Y128253D01*
X112905Y128603D01*
X113038Y128802D01*
X113639D01*
X113772Y128603D01*
X114296Y128253D01*
X114913Y128130D01*
X115531Y128253D01*
X116054Y128603D01*
X116188Y128802D01*
X116789D01*
X116922Y128603D01*
X117446Y128253D01*
X118063Y128130D01*
X118681Y128253D01*
X118972Y128448D01*
X119615Y128386D01*
X119711Y128243D01*
X120193Y127920D01*
Y107629D01*
X119747Y107183D01*
X119001Y107492D01*
X118587Y107546D01*
Y104082D01*
X118087D01*
Y103582D01*
X114623D01*
X114678Y103168D01*
X115030Y102317D01*
X115208Y102085D01*
X114926Y101631D01*
X114913Y101634D01*
X114296Y101511D01*
X113772Y101161D01*
X113639Y100962D01*
X113038D01*
X112905Y101161D01*
X112381Y101511D01*
X111764Y101634D01*
X111146Y101511D01*
X110623Y101161D01*
X110273Y100637D01*
X110150Y100020D01*
Y96280D01*
X110273Y95662D01*
X110623Y95139D01*
X110744Y95057D01*
Y83582D01*
X110822Y83192D01*
X111043Y82861D01*
X127268Y66636D01*
Y54291D01*
X124382D01*
Y49472D01*
X132193D01*
Y54291D01*
X129307D01*
Y67058D01*
X129229Y67449D01*
X129008Y67779D01*
X115362Y81425D01*
X115646Y81849D01*
X116104Y81659D01*
X116887Y81556D01*
X117671Y81659D01*
X118400Y81961D01*
X119027Y82442D01*
X119508Y83069D01*
X119810Y83799D01*
X119913Y84582D01*
X119810Y85365D01*
X119508Y86095D01*
X119027Y86721D01*
X118400Y87202D01*
X117671Y87505D01*
X116887Y87608D01*
X116433Y87548D01*
X115933Y87939D01*
Y94692D01*
X116381Y94943D01*
X116465Y94922D01*
X116561Y94778D01*
X117250Y94318D01*
X117563Y94256D01*
Y98150D01*
X118563D01*
Y94256D01*
X118876Y94318D01*
X119564Y94778D01*
X119661Y94922D01*
X119745Y94943D01*
X120193Y94692D01*
Y94382D01*
X120271Y93992D01*
X120492Y93661D01*
X134592Y79561D01*
X134922Y79340D01*
X135313Y79262D01*
X150250D01*
X150640Y79340D01*
X150971Y79561D01*
X154831Y83420D01*
X155331Y83213D01*
Y77967D01*
X133466Y56103D01*
X133245Y55772D01*
X133168Y55382D01*
Y28804D01*
X129265Y24902D01*
X116693D01*
Y26291D01*
X111820D01*
X109508Y28603D01*
X109178Y28824D01*
X108787Y28901D01*
X74543D01*
X74036Y29662D01*
X73373Y30104D01*
X73359Y30145D01*
Y30618D01*
X73373Y30660D01*
X74036Y31102D01*
X74581Y31919D01*
X74773Y32882D01*
X74581Y33845D01*
X74036Y34662D01*
X73373Y35104D01*
X73359Y35145D01*
Y35618D01*
X73373Y35660D01*
X74036Y36102D01*
X74581Y36919D01*
X74773Y37882D01*
X74581Y38845D01*
X74036Y39662D01*
X73219Y40207D01*
X72256Y40399D01*
X68319D01*
X67356Y40207D01*
X66539Y39662D01*
X65994Y38845D01*
X65802Y37882D01*
X65994Y36919D01*
X66539Y36102D01*
X67202Y35660D01*
X67216Y35618D01*
Y35145D01*
X67202Y35104D01*
X66539Y34662D01*
X65994Y33845D01*
X65802Y32882D01*
X65994Y31919D01*
X66539Y31102D01*
X67202Y30660D01*
X67216Y30618D01*
Y30145D01*
X67202Y30104D01*
X66539Y29662D01*
X65994Y28845D01*
X65802Y27882D01*
X65994Y26919D01*
X66539Y26102D01*
X67356Y25557D01*
X68319Y25365D01*
X72256D01*
X73219Y25557D01*
X74036Y26102D01*
X74543Y26862D01*
X86768D01*
X86938Y26362D01*
X86694Y26175D01*
X86213Y25548D01*
X85911Y24819D01*
X85808Y24035D01*
X85911Y23252D01*
X86213Y22523D01*
X86694Y21896D01*
X87321Y21415D01*
X88051Y21113D01*
X88834Y21010D01*
X89617Y21113D01*
X90347Y21415D01*
X90973Y21896D01*
X91454Y22523D01*
X91659Y23016D01*
X94382D01*
Y21626D01*
X102193D01*
Y26445D01*
X102392Y26862D01*
X108365D01*
X108582Y26646D01*
X108882Y26291D01*
X108882D01*
X108882Y26291D01*
Y21472D01*
X116693D01*
Y22862D01*
X129687D01*
X130078Y22940D01*
X130408Y23161D01*
X134908Y27661D01*
X135129Y27992D01*
X135207Y28382D01*
Y54960D01*
X157071Y76824D01*
X157292Y77154D01*
X157370Y77545D01*
Y111066D01*
X157870Y111235D01*
X158248Y110742D01*
X158874Y110261D01*
X159604Y109959D01*
X160387Y109856D01*
X161171Y109959D01*
X161900Y110261D01*
X162478Y110705D01*
X162528Y110714D01*
X162680Y110698D01*
X163042Y110593D01*
X163375Y109789D01*
X164041Y108922D01*
X164907Y108257D01*
X165917Y107839D01*
X166768Y107727D01*
Y106037D01*
X165917Y105925D01*
X164907Y105507D01*
X164041Y104841D01*
X163375Y103975D01*
X162957Y102965D01*
X162880Y102382D01*
X172694D01*
X172618Y102965D01*
X172199Y103975D01*
X171534Y104841D01*
X170668Y105507D01*
X169658Y105925D01*
X168807Y106037D01*
Y107727D01*
X169658Y107839D01*
X170668Y108257D01*
X171534Y108922D01*
X172199Y109789D01*
X172618Y110799D01*
X172694Y111382D01*
X167787D01*
Y112382D01*
X172694D01*
X172618Y112965D01*
X172199Y113975D01*
X171534Y114841D01*
X170668Y115507D01*
X169658Y115925D01*
X168807Y116037D01*
Y117727D01*
X169658Y117839D01*
X170668Y118257D01*
X171534Y118922D01*
X172199Y119789D01*
X172618Y120799D01*
X172694Y121382D01*
X167787D01*
Y122382D01*
X172694D01*
X172618Y122965D01*
X172199Y123975D01*
X171534Y124841D01*
X170668Y125507D01*
X170291Y125662D01*
X170391Y126162D01*
X172287D01*
X172678Y126240D01*
X173008Y126461D01*
X174780Y128232D01*
X182224D01*
Y135531D01*
X173768D01*
X173586Y135531D01*
X173379Y136031D01*
X194008Y156661D01*
X194229Y156992D01*
X194307Y157382D01*
Y240371D01*
X194466D01*
X194762Y240430D01*
X195013Y240598D01*
X195180Y240848D01*
X195239Y241144D01*
Y245391D01*
X195180Y245687D01*
X195013Y245938D01*
X194762Y246106D01*
X194466Y246164D01*
X192109D01*
X191813Y246106D01*
X191562Y245938D01*
X191394Y245687D01*
X191335Y245391D01*
Y243690D01*
X190835Y243641D01*
X190829Y243672D01*
X190608Y244003D01*
X181807Y252804D01*
Y253599D01*
X181966D01*
X182262Y253658D01*
X182513Y253826D01*
X182680Y254077D01*
X182739Y254373D01*
Y255476D01*
X191335D01*
Y254373D01*
X191394Y254077D01*
X191562Y253826D01*
X191813Y253658D01*
X192109Y253599D01*
X194466D01*
X194762Y253658D01*
X195013Y253826D01*
X195180Y254077D01*
X195239Y254373D01*
Y258619D01*
X195180Y258915D01*
X195013Y259166D01*
X194762Y259334D01*
X194466Y259393D01*
X192109D01*
X191813Y259334D01*
X191562Y259166D01*
X191394Y258915D01*
X191335Y258619D01*
Y257516D01*
X182739D01*
Y258619D01*
X182680Y258915D01*
X182513Y259166D01*
X182262Y259334D01*
X181966Y259393D01*
X179609D01*
X179313Y259334D01*
X179062Y259166D01*
X178894Y258915D01*
X178835Y258619D01*
Y254373D01*
X178894Y254077D01*
X179062Y253826D01*
X179313Y253658D01*
X179609Y253599D01*
X179768D01*
Y252382D01*
X179845Y251992D01*
X180066Y251661D01*
X188868Y242860D01*
Y233954D01*
X188368Y233747D01*
X182206Y239909D01*
X182229Y240120D01*
X182340Y240482D01*
X182513Y240598D01*
X182680Y240848D01*
X182739Y241144D01*
Y245391D01*
X182680Y245687D01*
X182513Y245938D01*
X182262Y246106D01*
X181966Y246164D01*
X179609D01*
X179313Y246106D01*
X179062Y245938D01*
X178894Y245687D01*
X178835Y245391D01*
Y241144D01*
X178894Y240848D01*
X179062Y240598D01*
X179313Y240430D01*
X179609Y240371D01*
X179768D01*
Y239886D01*
X179845Y239495D01*
X180066Y239165D01*
X185037Y234194D01*
X184846Y233732D01*
X183287D01*
Y224465D01*
Y215197D01*
X186868D01*
Y214404D01*
X184365Y211901D01*
X168687D01*
X168297Y211824D01*
X167966Y211603D01*
X154665Y198301D01*
X143331D01*
Y206067D01*
X135244D01*
Y198319D01*
X116005D01*
X115615Y198241D01*
X115284Y198020D01*
X113682Y196418D01*
X113287Y196581D01*
Y196581D01*
X111407D01*
Y260382D01*
X111329Y260772D01*
X111108Y261103D01*
X108608Y263603D01*
X108278Y263824D01*
X107887Y263901D01*
X88402D01*
X88211Y264363D01*
X88508Y264661D01*
X88729Y264992D01*
X88807Y265382D01*
Y281049D01*
X91087D01*
X92079Y281180D01*
X93004Y281563D01*
X93798Y282172D01*
X94407Y282965D01*
X94790Y283890D01*
X94920Y284882D01*
X94790Y285874D01*
X94407Y286798D01*
X93798Y287592D01*
X93004Y288201D01*
X92079Y288584D01*
X91087Y288715D01*
D02*
G37*
G36*
X88138Y256083D02*
X85787D01*
Y254520D01*
X88138D01*
Y256083D01*
D02*
G37*
G36*
X143220Y261864D02*
X142319Y261746D01*
X141479Y261398D01*
X140758Y260844D01*
X140204Y260123D01*
X139857Y259283D01*
X139738Y258382D01*
X139857Y257481D01*
X140204Y256641D01*
X140758Y255919D01*
X141479Y255366D01*
X142319Y255018D01*
X143220Y254899D01*
X144122Y255018D01*
X144962Y255366D01*
X145683Y255919D01*
X146236Y256641D01*
X146535Y257362D01*
X155479D01*
X155835Y257006D01*
Y254373D01*
X155894Y254077D01*
X156062Y253826D01*
X156313Y253658D01*
X156609Y253599D01*
X158966D01*
X159262Y253658D01*
X159513Y253826D01*
X159680Y254077D01*
X159739Y254373D01*
Y258619D01*
X159680Y258915D01*
X159513Y259166D01*
X159262Y259334D01*
X158966Y259393D01*
X156609D01*
X156313Y259334D01*
X156295Y259322D01*
X156292Y259324D01*
X155902Y259401D01*
X146535D01*
X146236Y260123D01*
X145683Y260844D01*
X144962Y261398D01*
X144122Y261746D01*
X143220Y261864D01*
D02*
G37*
G36*
X158966Y246674D02*
X158287D01*
Y243768D01*
X160249D01*
Y245391D01*
X160151Y245882D01*
X159873Y246298D01*
X159457Y246576D01*
X158966Y246674D01*
D02*
G37*
G36*
X157287D02*
X156609D01*
X156118Y246576D01*
X155702Y246298D01*
X155423Y245882D01*
X155326Y245391D01*
Y243768D01*
X157287D01*
Y246674D01*
D02*
G37*
G36*
X84787Y256083D02*
X82437D01*
Y255174D01*
X70664Y243402D01*
X41958D01*
X38601Y246759D01*
X38792Y247220D01*
X41697D01*
Y255221D01*
X14697D01*
Y247220D01*
X27177D01*
Y239914D01*
X23566Y236303D01*
X23345Y235972D01*
X23268Y235582D01*
Y227382D01*
X23345Y226992D01*
X23566Y226661D01*
X26066Y224161D01*
X26067Y224161D01*
X26087Y223546D01*
X25825Y223344D01*
X25271Y222623D01*
X24924Y221783D01*
X24805Y220882D01*
X24924Y219981D01*
X25271Y219141D01*
X25825Y218419D01*
X26546Y217866D01*
X27386Y217518D01*
X28287Y217399D01*
X29189Y217518D01*
X30029Y217866D01*
X30750Y218419D01*
X31303Y219141D01*
X31651Y219981D01*
X31770Y220882D01*
X31651Y221783D01*
X31303Y222623D01*
X30750Y223344D01*
X30692Y223389D01*
X30853Y223862D01*
X49039D01*
X54292Y223367D01*
X54340Y223372D01*
X54387Y223362D01*
X56744D01*
Y221281D01*
X38066Y202603D01*
X37845Y202272D01*
X37768Y201882D01*
Y166093D01*
X37751Y166091D01*
X36786Y165691D01*
X35957Y165055D01*
X35321Y164226D01*
X34921Y163260D01*
X34850Y162724D01*
X38787D01*
X42724D01*
X42654Y163260D01*
X42254Y164226D01*
X41618Y165055D01*
X40789Y165691D01*
X39823Y166091D01*
X39807Y166093D01*
Y201460D01*
X56282Y217935D01*
X56744Y217743D01*
Y215197D01*
X60787D01*
Y224465D01*
Y233732D01*
X56744D01*
Y225401D01*
X54435D01*
X49183Y225897D01*
X49135Y225892D01*
X49087Y225902D01*
X27210D01*
X25307Y227804D01*
Y228316D01*
X25780Y228477D01*
X25825Y228419D01*
X26546Y227866D01*
X27386Y227518D01*
X28287Y227399D01*
X29189Y227518D01*
X30029Y227866D01*
X30750Y228419D01*
X31303Y229141D01*
X31651Y229980D01*
X31770Y230882D01*
X31651Y231783D01*
X31352Y232505D01*
X33911Y235063D01*
X76365D01*
X77968Y233460D01*
Y232382D01*
Y216704D01*
X65793Y204529D01*
X65331Y204720D01*
Y206067D01*
X57244D01*
Y188532D01*
X65331D01*
Y201183D01*
X79708Y215561D01*
X79929Y215892D01*
X80007Y216282D01*
Y231960D01*
X82675Y234628D01*
X82937Y234520D01*
Y234520D01*
X87638D01*
Y237646D01*
X82937D01*
Y237102D01*
X82688D01*
X82298Y237025D01*
X81967Y236804D01*
X80079Y234916D01*
X79384Y234928D01*
X77508Y236804D01*
X77178Y237025D01*
X76787Y237102D01*
X33488D01*
X33098Y237025D01*
X32767Y236804D01*
X29910Y233947D01*
X29189Y234246D01*
X28287Y234364D01*
X27386Y234246D01*
X26546Y233898D01*
X25825Y233344D01*
X25780Y233286D01*
X25307Y233447D01*
Y235160D01*
X28918Y238770D01*
X29139Y239101D01*
X29216Y239491D01*
Y247220D01*
X35255D01*
X40814Y241661D01*
X41145Y241440D01*
X41535Y241362D01*
X82437D01*
Y240319D01*
X84787D01*
Y242382D01*
Y244445D01*
X82437D01*
Y243402D01*
X74201D01*
X74010Y243863D01*
X84666Y254520D01*
X84787D01*
Y256083D01*
D02*
G37*
G36*
X88138Y244445D02*
X85787D01*
Y242882D01*
X88138D01*
Y244445D01*
D02*
G37*
G36*
Y241882D02*
X85787D01*
Y240319D01*
X88138D01*
Y241882D01*
D02*
G37*
G36*
X65831Y233732D02*
X61787D01*
Y224964D01*
X65831D01*
Y233732D01*
D02*
G37*
G36*
X91087Y299219D02*
X88287D01*
Y294882D01*
Y290545D01*
X91087D01*
X92210Y290693D01*
X93256Y291126D01*
X94154Y291815D01*
X94843Y292713D01*
X95277Y293759D01*
X95290Y293862D01*
X97465D01*
X138268Y253060D01*
Y233732D01*
X134744D01*
Y224964D01*
X139287D01*
Y224465D01*
X139787D01*
Y215197D01*
X143831D01*
Y223445D01*
X178244D01*
Y215197D01*
X182287D01*
Y224465D01*
Y233732D01*
X178244D01*
Y225484D01*
X171027D01*
X158807Y237704D01*
Y239861D01*
X158966D01*
X159457Y239959D01*
X159873Y240237D01*
X160151Y240653D01*
X160249Y241144D01*
Y242768D01*
X157787D01*
X155326D01*
Y241144D01*
X155423Y240653D01*
X155702Y240237D01*
X156118Y239959D01*
X156609Y239861D01*
X156768D01*
Y237282D01*
Y227887D01*
X154365Y225484D01*
X143831D01*
Y233732D01*
X140307D01*
Y253482D01*
X140229Y253872D01*
X140008Y254203D01*
X98608Y295603D01*
X98278Y295824D01*
X97887Y295901D01*
X95290D01*
X95277Y296004D01*
X94843Y297050D01*
X94154Y297949D01*
X93256Y298638D01*
X92210Y299071D01*
X91087Y299219D01*
D02*
G37*
G36*
X138787Y223965D02*
X134744D01*
Y215197D01*
X138787D01*
Y223965D01*
D02*
G37*
G36*
X65831D02*
X61787D01*
Y215197D01*
X65831D01*
Y223965D01*
D02*
G37*
G36*
X28287Y194364D02*
X27386Y194246D01*
X26546Y193898D01*
X25825Y193344D01*
X25271Y192623D01*
X24924Y191783D01*
X24805Y190882D01*
X24924Y189980D01*
X25271Y189141D01*
X25825Y188419D01*
X26546Y187866D01*
X27386Y187518D01*
X28287Y187399D01*
X29189Y187518D01*
X30029Y187866D01*
X30750Y188419D01*
X31303Y189141D01*
X31651Y189980D01*
X31770Y190882D01*
X31651Y191783D01*
X31303Y192623D01*
X30750Y193344D01*
X30029Y193898D01*
X29189Y194246D01*
X28287Y194364D01*
D02*
G37*
G36*
X42724Y161724D02*
X39287D01*
Y158288D01*
X39823Y158358D01*
X40789Y158758D01*
X41618Y159394D01*
X42254Y160223D01*
X42654Y161188D01*
X42724Y161724D01*
D02*
G37*
G36*
X38287D02*
X34850D01*
X34921Y161188D01*
X35321Y160223D01*
X35957Y159394D01*
X36786Y158758D01*
X37751Y158358D01*
X38287Y158288D01*
Y161724D01*
D02*
G37*
G36*
X95587Y191182D02*
X88787D01*
Y186282D01*
X89992D01*
X90183Y185820D01*
X72165Y167801D01*
X66687D01*
X66297Y167724D01*
X65966Y167503D01*
X63566Y165103D01*
X63345Y164772D01*
X63268Y164382D01*
Y151382D01*
X63345Y150992D01*
X63566Y150661D01*
X65143Y149084D01*
X65226Y148885D01*
X65702Y148265D01*
X66268Y147830D01*
Y121721D01*
X66204Y121712D01*
X65195Y121294D01*
X64328Y120629D01*
X63663Y119762D01*
X63245Y118753D01*
X63102Y117669D01*
Y117382D01*
X67287D01*
X71473D01*
Y117669D01*
X71330Y118753D01*
X70912Y119762D01*
X70247Y120629D01*
X69380Y121294D01*
X68371Y121712D01*
X68307Y121721D01*
Y147388D01*
X69287D01*
Y150382D01*
X69787D01*
Y150882D01*
X74684D01*
X74648Y151157D01*
X74349Y151879D01*
X73873Y152499D01*
X73366Y152888D01*
X73295Y153442D01*
X73536Y153602D01*
X74044Y154362D01*
X90051D01*
Y150976D01*
X94870D01*
Y158787D01*
X90051D01*
Y156402D01*
X74044D01*
X73536Y157162D01*
X72873Y157604D01*
X72859Y157645D01*
Y158118D01*
X72873Y158160D01*
X73536Y158602D01*
X74081Y159419D01*
X74273Y160382D01*
X74081Y161345D01*
X73536Y162162D01*
X72719Y162707D01*
X71756Y162899D01*
X67819D01*
X66856Y162707D01*
X66039Y162162D01*
X65807Y161814D01*
X65307Y161966D01*
Y163960D01*
X67110Y165762D01*
X72587D01*
X72978Y165840D01*
X73308Y166061D01*
X92908Y185661D01*
X93129Y185992D01*
X93187Y186282D01*
X95587D01*
Y191182D01*
D02*
G37*
G36*
X74684Y149882D02*
X70287D01*
Y147388D01*
X71756D01*
X72531Y147490D01*
X73253Y147789D01*
X73873Y148265D01*
X74349Y148885D01*
X74648Y149607D01*
X74684Y149882D01*
D02*
G37*
G36*
X178575Y125563D02*
X177000D01*
X176047Y125438D01*
X175159Y125070D01*
X174397Y124485D01*
X173812Y123722D01*
X173444Y122835D01*
X173319Y121882D01*
X173444Y120929D01*
X173812Y120041D01*
X174397Y119279D01*
X175159Y118694D01*
X176047Y118326D01*
X177000Y118201D01*
X178575D01*
X179527Y118326D01*
X180415Y118694D01*
X181178Y119279D01*
X181763Y120041D01*
X182131Y120929D01*
X182256Y121882D01*
X182131Y122835D01*
X181763Y123722D01*
X181178Y124485D01*
X180415Y125070D01*
X179527Y125438D01*
X178575Y125563D01*
D02*
G37*
G36*
X27287Y121350D02*
X26335Y121225D01*
X25447Y120857D01*
X24685Y120272D01*
X24100Y119510D01*
X23732Y118622D01*
X23606Y117669D01*
Y116095D01*
X23732Y115142D01*
X24100Y114254D01*
X24685Y113492D01*
X25447Y112907D01*
X26335Y112539D01*
X27287Y112413D01*
X28240Y112539D01*
X29128Y112907D01*
X29890Y113492D01*
X30475Y114254D01*
X30843Y115142D01*
X30968Y116095D01*
Y117669D01*
X30843Y118622D01*
X30475Y119510D01*
X29890Y120272D01*
X29128Y120857D01*
X28240Y121225D01*
X27287Y121350D01*
D02*
G37*
G36*
X17287D02*
X16335Y121225D01*
X15447Y120857D01*
X14684Y120272D01*
X14099Y119510D01*
X13732Y118622D01*
X13606Y117669D01*
Y116095D01*
X13732Y115142D01*
X14099Y114254D01*
X14684Y113492D01*
X15447Y112907D01*
X16335Y112539D01*
X17287Y112413D01*
X18240Y112539D01*
X19128Y112907D01*
X19890Y113492D01*
X20475Y114254D01*
X20843Y115142D01*
X20968Y116095D01*
Y117669D01*
X20843Y118622D01*
X20475Y119510D01*
X19890Y120272D01*
X19128Y120857D01*
X18240Y121225D01*
X17287Y121350D01*
D02*
G37*
G36*
X178575Y115563D02*
X177000D01*
X176047Y115438D01*
X175159Y115070D01*
X174397Y114485D01*
X173812Y113722D01*
X173444Y112835D01*
X173319Y111882D01*
X173444Y110929D01*
X173812Y110041D01*
X174397Y109279D01*
X175159Y108694D01*
X176047Y108326D01*
X177000Y108201D01*
X178575D01*
X179527Y108326D01*
X180415Y108694D01*
X181178Y109279D01*
X181763Y110041D01*
X182131Y110929D01*
X182256Y111882D01*
X182131Y112835D01*
X181763Y113722D01*
X181178Y114485D01*
X180415Y115070D01*
X179527Y115438D01*
X178575Y115563D01*
D02*
G37*
G36*
X117587Y107546D02*
X117174Y107492D01*
X116322Y107139D01*
X115591Y106578D01*
X115030Y105847D01*
X114678Y104996D01*
X114623Y104582D01*
X117587D01*
Y107546D01*
D02*
G37*
G36*
X178575Y105563D02*
X177000D01*
X176047Y105438D01*
X175159Y105070D01*
X174397Y104485D01*
X173812Y103722D01*
X173444Y102835D01*
X173319Y101882D01*
X173444Y100929D01*
X173812Y100041D01*
X174397Y99279D01*
X175159Y98694D01*
X176047Y98326D01*
X177000Y98201D01*
X178575D01*
X179527Y98326D01*
X180415Y98694D01*
X181178Y99279D01*
X181763Y100041D01*
X182131Y100929D01*
X182256Y101882D01*
X182131Y102835D01*
X181763Y103722D01*
X181178Y104485D01*
X180415Y105070D01*
X179527Y105438D01*
X178575Y105563D01*
D02*
G37*
G36*
X172694Y101382D02*
X162880D01*
X162957Y100799D01*
X163375Y99789D01*
X164041Y98922D01*
X164907Y98257D01*
X165917Y97839D01*
X166768Y97727D01*
Y96037D01*
X165917Y95925D01*
X164907Y95507D01*
X164041Y94841D01*
X163375Y93975D01*
X162957Y92965D01*
X162880Y92382D01*
X172694D01*
X172618Y92965D01*
X172199Y93975D01*
X171534Y94841D01*
X170668Y95507D01*
X169658Y95925D01*
X168807Y96037D01*
Y97727D01*
X169658Y97839D01*
X170668Y98257D01*
X171534Y98922D01*
X172199Y99789D01*
X172618Y100799D01*
X172694Y101382D01*
D02*
G37*
G36*
X178575Y95563D02*
X177000D01*
X176047Y95438D01*
X175159Y95070D01*
X174397Y94485D01*
X173812Y93722D01*
X173444Y92835D01*
X173319Y91882D01*
X173444Y90929D01*
X173812Y90041D01*
X174397Y89279D01*
X175159Y88694D01*
X176047Y88326D01*
X177000Y88201D01*
X178575D01*
X179527Y88326D01*
X180415Y88694D01*
X181178Y89279D01*
X181763Y90041D01*
X182131Y90929D01*
X182256Y91882D01*
X182131Y92835D01*
X181763Y93722D01*
X181178Y94485D01*
X180415Y95070D01*
X179527Y95438D01*
X178575Y95563D01*
D02*
G37*
G36*
X80437Y96819D02*
X73138D01*
Y87945D01*
X80437D01*
Y96819D01*
D02*
G37*
G36*
X56787Y96850D02*
X55835Y96725D01*
X54947Y96357D01*
X54185Y95772D01*
X53600Y95010D01*
X53232Y94122D01*
X53106Y93169D01*
Y91594D01*
X53232Y90642D01*
X53600Y89754D01*
X54185Y88992D01*
X54947Y88407D01*
X55835Y88039D01*
X56787Y87913D01*
X57740Y88039D01*
X58628Y88407D01*
X59390Y88992D01*
X59975Y89754D01*
X60343Y90642D01*
X60469Y91594D01*
Y93169D01*
X60343Y94122D01*
X59975Y95010D01*
X59390Y95772D01*
X58628Y96357D01*
X57740Y96725D01*
X56787Y96850D01*
D02*
G37*
G36*
X26787D02*
X25835Y96725D01*
X24947Y96357D01*
X24184Y95772D01*
X23599Y95010D01*
X23232Y94122D01*
X23106Y93169D01*
Y91594D01*
X23232Y90642D01*
X23599Y89754D01*
X24184Y88992D01*
X24947Y88407D01*
X25835Y88039D01*
X26787Y87913D01*
X27740Y88039D01*
X28628Y88407D01*
X29390Y88992D01*
X29975Y89754D01*
X30343Y90642D01*
X30468Y91594D01*
Y93169D01*
X30343Y94122D01*
X29975Y95010D01*
X29390Y95772D01*
X28628Y96357D01*
X27740Y96725D01*
X26787Y96850D01*
D02*
G37*
G36*
X16787D02*
X15835Y96725D01*
X14947Y96357D01*
X14185Y95772D01*
X13600Y95010D01*
X13232Y94122D01*
X13106Y93169D01*
Y91594D01*
X13232Y90642D01*
X13600Y89754D01*
X14185Y88992D01*
X14947Y88407D01*
X15835Y88039D01*
X16787Y87913D01*
X17740Y88039D01*
X18628Y88407D01*
X19390Y88992D01*
X19975Y89754D01*
X20343Y90642D01*
X20469Y91594D01*
Y93169D01*
X20343Y94122D01*
X19975Y95010D01*
X19390Y95772D01*
X18628Y96357D01*
X17740Y96725D01*
X16787Y96850D01*
D02*
G37*
G36*
X182150Y68232D02*
X180587D01*
Y65882D01*
X182150D01*
Y68232D01*
D02*
G37*
G36*
X172694Y91382D02*
X162880D01*
X162957Y90799D01*
X163375Y89789D01*
X164041Y88922D01*
X164907Y88257D01*
X165917Y87839D01*
X166768Y87727D01*
Y77681D01*
X166845Y77291D01*
X167066Y76960D01*
X178024Y66003D01*
Y65882D01*
X179587D01*
Y68232D01*
X178678D01*
X168807Y78103D01*
Y87727D01*
X169658Y87839D01*
X170668Y88257D01*
X171534Y88922D01*
X172199Y89789D01*
X172618Y90799D01*
X172694Y91382D01*
D02*
G37*
G36*
X175350Y67732D02*
X172224D01*
Y63032D01*
X172768D01*
Y59307D01*
X172274Y59102D01*
X171648Y58622D01*
X171167Y57995D01*
X170865Y57265D01*
X170762Y56482D01*
X170865Y55699D01*
X171167Y54969D01*
X171648Y54342D01*
X172274Y53861D01*
X172768Y53657D01*
Y52304D01*
X170413Y49950D01*
X169913Y50018D01*
Y53319D01*
X147260D01*
Y44445D01*
X169913D01*
Y47862D01*
X170787D01*
X171178Y47940D01*
X171508Y48161D01*
X174508Y51161D01*
X174729Y51492D01*
X174807Y51882D01*
Y53657D01*
X175300Y53861D01*
X175927Y54342D01*
X176408Y54969D01*
X176710Y55699D01*
X176813Y56482D01*
X176710Y57265D01*
X176408Y57995D01*
X175927Y58622D01*
X175300Y59102D01*
X174807Y59307D01*
Y63032D01*
X175350D01*
Y67732D01*
D02*
G37*
G36*
X182150Y64882D02*
X180087D01*
X178024D01*
Y62532D01*
X179067D01*
Y50304D01*
X178866Y50103D01*
X178645Y49772D01*
X178567Y49382D01*
Y36732D01*
X177524D01*
Y34382D01*
X179587D01*
X181650D01*
Y36732D01*
X180606D01*
Y48960D01*
X180808Y49161D01*
X181029Y49492D01*
X181106Y49882D01*
Y62532D01*
X182150D01*
Y64882D01*
D02*
G37*
G36*
X207315Y53319D02*
X184661D01*
Y44445D01*
X191868D01*
Y35004D01*
X188365Y31501D01*
X181650D01*
Y33382D01*
X179587D01*
X177524D01*
Y31501D01*
X175210D01*
X174850Y31861D01*
Y36232D01*
X174307D01*
Y39057D01*
X174800Y39261D01*
X175427Y39742D01*
X175908Y40369D01*
X176210Y41099D01*
X176313Y41882D01*
X176210Y42665D01*
X175908Y43395D01*
X175427Y44021D01*
X174800Y44502D01*
X174071Y44805D01*
X173287Y44908D01*
X172504Y44805D01*
X171774Y44502D01*
X171148Y44021D01*
X170667Y43395D01*
X170365Y42665D01*
X170262Y41882D01*
X170365Y41099D01*
X170667Y40369D01*
X171148Y39742D01*
X171774Y39261D01*
X172268Y39057D01*
Y36232D01*
X171724D01*
Y31532D01*
X172386D01*
X172566Y31261D01*
X174066Y29761D01*
X174397Y29540D01*
X174787Y29462D01*
X188787D01*
X189178Y29540D01*
X189508Y29761D01*
X193608Y33861D01*
X193829Y34192D01*
X193907Y34582D01*
Y44445D01*
X207315D01*
Y53319D01*
D02*
G37*
G36*
X27461Y39327D02*
X20358D01*
Y35965D01*
X27461D01*
Y36626D01*
X31101D01*
X38569Y29158D01*
X38365Y28665D01*
X38262Y27882D01*
X38365Y27099D01*
X38667Y26369D01*
X39148Y25742D01*
X39775Y25261D01*
X40504Y24959D01*
X41287Y24856D01*
X42071Y24959D01*
X42800Y25261D01*
X43427Y25742D01*
X43908Y26369D01*
X44210Y27099D01*
X44313Y27882D01*
X44210Y28665D01*
X43908Y29395D01*
X43427Y30022D01*
X42800Y30502D01*
X42071Y30805D01*
X41287Y30908D01*
X40504Y30805D01*
X40011Y30600D01*
X32245Y38367D01*
X31914Y38588D01*
X31524Y38665D01*
X27461D01*
Y39327D01*
D02*
G37*
%LPD*%
G36*
X138268Y179960D02*
Y149033D01*
X137775Y148828D01*
X137148Y148347D01*
X136667Y147721D01*
X136365Y146991D01*
X136261Y146208D01*
X136365Y145425D01*
X136569Y144931D01*
X129940Y138303D01*
X129719Y137972D01*
X129642Y137582D01*
Y134706D01*
X129520Y134625D01*
X129387Y134426D01*
X128786D01*
X128653Y134625D01*
X128129Y134975D01*
X127512Y135098D01*
X126894Y134975D01*
X126371Y134625D01*
X126238Y134426D01*
X125636D01*
X125503Y134625D01*
X124980Y134975D01*
X124362Y135098D01*
X123745Y134975D01*
X123453Y134780D01*
X122810Y134842D01*
X122714Y134986D01*
X122025Y135446D01*
X121713Y135508D01*
Y131614D01*
X120713D01*
Y135508D01*
X120400Y135446D01*
X119711Y134986D01*
X119615Y134842D01*
X118972Y134780D01*
X118681Y134975D01*
X118063Y135098D01*
X117446Y134975D01*
X116922Y134625D01*
X116903Y134597D01*
X116347Y134574D01*
X116085Y134883D01*
X116115Y135141D01*
X136508Y155535D01*
X136729Y155866D01*
X136807Y156256D01*
Y167982D01*
X136729Y168372D01*
X136508Y168703D01*
X135508Y169703D01*
X135178Y169924D01*
X134787Y170001D01*
X130937D01*
X130731Y170188D01*
X130642Y170482D01*
X130663Y170504D01*
X135205D01*
Y178315D01*
X133815D01*
Y179960D01*
X135417Y181562D01*
X136665D01*
X138268Y179960D01*
D02*
G37*
G36*
X94382Y65626D02*
X100755D01*
X108882Y57499D01*
Y54126D01*
X115012D01*
X115203Y53664D01*
X112459Y50920D01*
X75199D01*
X74992Y51420D01*
X75349Y51885D01*
X75547Y52362D01*
X95287D01*
X95678Y52440D01*
X96008Y52661D01*
X96820Y53472D01*
X97787D01*
Y55882D01*
X93882D01*
Y54401D01*
X75547D01*
X75349Y54879D01*
X74873Y55499D01*
X74366Y55888D01*
X74295Y56442D01*
X74536Y56602D01*
X75076Y57410D01*
X75224Y57440D01*
X75555Y57661D01*
X84910Y67016D01*
X94382D01*
Y65626D01*
D02*
G37*
%LPC*%
G36*
X102693Y59291D02*
X98787D01*
Y56882D01*
X102693D01*
Y59291D01*
D02*
G37*
G36*
X97787D02*
X93882D01*
Y56882D01*
X97787D01*
Y59291D01*
D02*
G37*
G36*
X102693Y55882D02*
X98787D01*
Y53472D01*
X102693D01*
Y55882D01*
D02*
G37*
%LPD*%
D16*
X210630Y9843D02*
D03*
Y332677D02*
D03*
X9843D02*
D03*
Y9843D02*
D03*
D20*
X139287Y197282D02*
X155087D01*
X139287Y146208D02*
Y180382D01*
Y189074D02*
Y197282D01*
Y197299D01*
Y180382D02*
Y189074D01*
X170605Y224465D02*
X182787D01*
X154787D02*
X170605D01*
X121213Y107207D02*
Y128382D01*
X124362Y101382D02*
Y125232D01*
Y98150D02*
Y101382D01*
X119425Y102744D02*
X121213Y104532D01*
X118063Y101382D02*
X119425Y102744D01*
X118063Y101382D02*
Y104058D01*
X41358Y294882D02*
X87787D01*
X30697D02*
X41358D01*
X54387Y224382D02*
X61287D01*
X65287Y76982D02*
X71487Y83182D01*
X192887Y34582D02*
Y48882D01*
X78987Y232382D02*
Y233883D01*
X80887Y130782D02*
X85687D01*
X74287D02*
X80887D01*
X112787Y23882D02*
X129687D01*
X134187Y28382D02*
Y55382D01*
X130661Y131614D02*
Y137582D01*
X139287Y146208D01*
X132795Y174409D02*
Y180382D01*
X65287Y150382D02*
X69787D01*
X72587Y166782D02*
X92187Y186382D01*
Y191682D01*
X118063Y104058D02*
X118087Y104082D01*
X121213Y104532D02*
X124362Y101382D01*
X121213Y128382D02*
Y131614D01*
X118063Y98150D02*
Y101382D01*
X173287Y33882D02*
Y41882D01*
X173787Y51882D02*
Y56482D01*
X158587Y48882D02*
X170787D01*
X80887Y130782D02*
X83287Y128382D01*
Y120382D02*
Y128382D01*
Y120382D02*
X86287Y117382D01*
X101587D02*
X106055Y116457D01*
X31524Y37646D02*
X41287Y27882D01*
X23909Y37646D02*
X31524D01*
X108787Y27882D02*
X112787Y23882D01*
X121870Y163484D02*
X132795Y174409D01*
X116005Y197299D02*
X139287D01*
X110387Y191682D02*
Y260382D01*
X107887Y262882D02*
X110387Y260382D01*
X184787Y210882D02*
X187887Y213982D01*
Y232786D01*
X87787Y265382D02*
Y284882D01*
X64181Y261588D02*
Y279736D01*
Y261588D02*
X66787Y258982D01*
X96754D02*
X97354Y258382D01*
X66287Y53382D02*
X70787D01*
X65287Y54382D02*
X66287Y53382D01*
X71487Y83182D02*
Y100482D01*
X67287Y104682D02*
X71487Y100482D01*
X67287Y104682D02*
Y116882D01*
X95287Y53382D02*
X98287Y56382D01*
X167787Y111882D02*
Y121882D01*
X38787Y162224D02*
Y201882D01*
X61287Y224382D02*
Y224465D01*
X167787Y91882D02*
Y101882D01*
Y77681D02*
Y91882D01*
Y77681D02*
X180087Y65382D01*
X26787Y224882D02*
X49087D01*
X24287Y227382D02*
X26787Y224882D01*
X24287Y235582D02*
X28197Y239491D01*
Y255720D02*
X41535Y242382D01*
X71087D01*
X85287Y256583D01*
X71087Y242382D02*
X85287D01*
X28197Y292382D02*
X30697Y294882D01*
X87787D02*
X97887D01*
X173287Y31982D02*
Y33882D01*
Y31982D02*
X174787Y30482D01*
X188787D01*
X133811Y92206D02*
Y98150D01*
Y92206D02*
X138187Y96582D01*
X170787Y48882D02*
X173787Y51882D01*
X33488Y236083D02*
X76787D01*
X78987Y233883D01*
Y216282D02*
Y232382D01*
X61287Y197299D02*
Y198582D01*
X121213Y94382D02*
Y98150D01*
Y94382D02*
X135313Y80282D01*
X154350Y188345D02*
X173087Y207082D01*
X180787Y252382D02*
Y256496D01*
X127512Y92382D02*
Y98150D01*
Y92382D02*
X139612Y80282D01*
X150250D01*
X154350Y84382D02*
Y188345D01*
X180787Y256496D02*
X193287D01*
Y157382D02*
Y243268D01*
X139520Y122756D02*
X145487D01*
X160387Y112882D02*
Y122782D01*
X164787Y127182D01*
X172287D01*
X176987Y131882D01*
X96087Y113307D02*
X106055D01*
X149664Y125906D02*
X151987Y123582D01*
X139520Y125906D02*
X149664D01*
X121142Y174382D02*
Y174409D01*
X107987Y161228D02*
X121142Y174382D01*
X107987Y145882D02*
Y161228D01*
X92887Y130782D02*
X107987Y145882D01*
X86287Y117382D02*
X101587D01*
X90187Y119606D02*
X106055D01*
X109312D01*
X110087Y120382D01*
X109587Y127982D02*
X110087Y127482D01*
X109587Y127982D02*
Y146382D01*
X120419Y157213D01*
X130787D01*
X132795Y159221D02*
Y163484D01*
X133513Y114382D02*
X134587Y113307D01*
X23909Y49457D02*
X24353Y49900D01*
X112881D02*
X117787Y54806D01*
Y60682D01*
X107787Y64782D02*
X110887Y61682D01*
X107787Y64782D02*
Y71482D01*
X99687Y104382D02*
X102313Y107008D01*
X106055D01*
X70987Y72982D02*
X83887D01*
X94887Y83982D01*
X69406Y48400D02*
X77350D01*
X142984Y100394D02*
X145669D01*
X143087Y89582D02*
X149887Y96382D01*
X148787Y105882D02*
X149887Y104782D01*
X139520Y107008D02*
X143261D01*
X139520Y110158D02*
X145487D01*
X77687Y197082D02*
X104287D01*
X106787Y186882D02*
X108787Y184882D01*
X121587D01*
X124087Y182382D01*
Y170382D02*
Y182382D01*
X118187Y167382D02*
X119787Y168982D01*
X118187Y159382D02*
X118787Y158782D01*
X125087D02*
X128687Y162382D01*
X130787Y168982D02*
X134787D01*
X135787Y156256D02*
Y167982D01*
X114913Y131614D02*
Y135382D01*
X36787Y96782D02*
X38787Y98782D01*
X42587Y139282D02*
X46787Y143482D01*
X91087Y126682D02*
X95887Y121882D01*
X8287Y182882D02*
X38787Y152382D01*
X8287Y182882D02*
Y190882D01*
X91961Y155382D02*
X92461Y154882D01*
X85111Y35689D02*
X98287D01*
X70787Y58382D02*
X74834D01*
X84487Y68036D01*
X98287D01*
X111287Y56536D02*
X112787D01*
X104114Y151382D02*
Y154882D01*
X87114Y134382D02*
X104114Y151382D01*
X70287Y132382D02*
X72287Y134382D01*
X88087Y84582D02*
Y106682D01*
X101688Y81481D02*
Y102759D01*
X102787Y103858D01*
X111764Y83582D02*
Y98150D01*
Y83582D02*
X128287Y67058D01*
X132795Y180382D02*
Y182582D01*
X157787Y237282D02*
Y243268D01*
Y227465D02*
Y237282D01*
X121213Y104532D02*
Y107207D01*
X65287Y150382D02*
X67287Y148382D01*
X41699Y53394D02*
X65287Y76982D01*
X135313Y80282D02*
X139612D01*
X129687Y23882D02*
X134187Y28382D01*
Y55382D02*
X156350Y77545D01*
Y159594D01*
X182787Y186031D01*
X132795Y180382D02*
X134995Y182582D01*
X137087D02*
X139287Y180382D01*
X134995Y182582D02*
X137087D01*
X132795D02*
X139287Y189074D01*
X67287Y116882D02*
Y148382D01*
X64287Y151382D02*
X65287Y150382D01*
X64287Y151382D02*
Y164382D01*
X66687Y166782D01*
X72587D01*
X118087Y104082D02*
X121213Y107207D01*
Y128382D02*
X124362Y125232D01*
X139287Y224465D02*
X154787D01*
X157787Y227465D01*
X173787Y56482D02*
Y65382D01*
X70287Y27882D02*
X108787D01*
X182787Y186031D02*
Y197299D01*
X101287Y184282D02*
Y191682D01*
X110387D02*
X116005Y197299D01*
X121142Y163484D02*
X121870D01*
X85287Y262882D02*
X107887D01*
X155087Y197282D02*
X168687Y210882D01*
X184787D01*
X180787Y239886D02*
X187887Y232786D01*
X180787Y239886D02*
Y243268D01*
X85287Y262882D02*
X87787Y265382D01*
X66787Y258982D02*
X96754D01*
X65287Y54382D02*
Y76982D01*
X23909Y53394D02*
X41699D01*
X70787Y53382D02*
X95287D01*
X38787Y201882D02*
X61287Y224382D01*
X167787Y101882D02*
Y111882D01*
X180087Y49882D02*
Y65382D01*
X179587Y49382D02*
X180087Y49882D01*
X179587Y33882D02*
Y49382D01*
X49087Y224882D02*
X54387Y224382D01*
X24287Y227382D02*
Y235582D01*
X28197Y239491D02*
Y255720D01*
Y292382D01*
Y308043D02*
X41358Y294882D01*
X97887D02*
X139287Y253482D01*
Y224465D02*
Y253482D01*
X157787Y237282D02*
X170605Y224465D01*
X188787Y30482D02*
X192887Y34582D01*
Y48882D02*
X195988D01*
X130661Y98150D02*
Y104056D01*
X138187Y96582D02*
Y98582D01*
X28287Y230882D02*
X33488Y236083D01*
X61287Y198582D02*
X78987Y216282D01*
X82688Y236083D02*
X85287D01*
X78987Y232382D02*
X82688Y236083D01*
X143220Y258382D02*
X155902D01*
X157787Y256496D01*
X150250Y80282D02*
X154350Y84382D01*
X173087Y207082D02*
X186887D01*
X189887Y210082D01*
Y243282D01*
X180787Y252382D02*
X189887Y243282D01*
X167787Y131882D02*
X193287Y157382D01*
X176987Y131882D02*
X177787D01*
X133811Y122205D02*
Y131614D01*
X147087Y84282D02*
X151987Y89182D01*
Y123582D01*
X102513Y116457D02*
X106055D01*
X101587Y117382D02*
X102513Y116457D01*
X85687Y130782D02*
X92887D01*
X83287Y128382D02*
X85687Y130782D01*
X37287Y102282D02*
Y116882D01*
X87187Y122606D02*
X90187Y119606D01*
X110087Y120382D02*
Y127482D01*
X130787Y157213D02*
X132795Y159221D01*
X57287Y103182D02*
Y116882D01*
Y103182D02*
X62087Y98382D01*
X134587Y113307D02*
X139520D01*
X23909Y57331D02*
X37287D01*
X24353Y49900D02*
X112881D01*
X110887Y61682D02*
X117787Y60682D01*
X99687Y79582D02*
X107787Y71482D01*
X99687Y79582D02*
Y104382D01*
X23909Y45520D02*
X43525D01*
X94887Y83982D02*
Y104382D01*
X100663Y110158D01*
X106055D01*
X23909Y41583D02*
X62588D01*
X69406Y48400D01*
X77350D02*
X85521Y40228D01*
X128287D01*
X139520Y103858D02*
X142984Y100394D01*
X149887Y96382D02*
Y104782D01*
X144387Y105882D02*
X148787D01*
X143261Y107008D02*
X144387Y105882D01*
X46787Y92382D02*
Y107182D01*
X51987Y112382D01*
Y171382D01*
X77687Y197082D01*
X104287D02*
X106787Y194582D01*
Y186882D02*
Y194582D01*
X122687Y168982D02*
X124087Y170382D01*
X119787Y168982D02*
X122687D01*
X118187Y159382D02*
Y167382D01*
X118787Y158782D02*
X125087D01*
X128687Y162382D02*
Y166882D01*
X130787Y168982D01*
X134787D02*
X135787Y167982D01*
X114913Y135382D02*
X135787Y156256D01*
X36787Y92382D02*
Y96782D01*
X38787Y98782D02*
X38987D01*
X42587Y102382D01*
Y139282D01*
X111764Y141458D02*
X113787Y143482D01*
X111764Y131614D02*
Y141458D01*
X99487Y125906D02*
X106055D01*
X95887Y121882D02*
X102187D01*
X106055Y122756D01*
X69787Y155382D02*
X91961D01*
X98287Y35689D02*
X105387D01*
X105541Y35535D01*
X112787D01*
X75918Y44882D02*
X85111Y35689D01*
X98287Y68036D02*
X99787D01*
X111287Y56536D01*
X88834Y24035D02*
X98287D01*
X72287Y134382D02*
X87114D01*
X70287Y124482D02*
Y132382D01*
Y124482D02*
X88087Y106682D01*
X114913Y86556D02*
X116887Y84582D01*
X114913Y86556D02*
Y98150D01*
X112787Y68189D02*
Y70382D01*
X101688Y81481D02*
X112787Y70382D01*
X102787Y103858D02*
X106055D01*
X128287Y51882D02*
Y67058D01*
D22*
X121142Y174409D02*
D03*
X132795D02*
D03*
Y163484D02*
D03*
X121142D02*
D03*
X104114Y154882D02*
D03*
X92461D02*
D03*
D23*
X111764Y98150D02*
D03*
X114913D02*
D03*
X118063D02*
D03*
X121213D02*
D03*
X124362D02*
D03*
X127512D02*
D03*
X130661D02*
D03*
X133811D02*
D03*
Y131614D02*
D03*
X130661D02*
D03*
X127512D02*
D03*
X124362D02*
D03*
X121213D02*
D03*
X118063D02*
D03*
X114913D02*
D03*
X111764D02*
D03*
D24*
X139520Y103858D02*
D03*
Y107008D02*
D03*
Y110158D02*
D03*
Y113307D02*
D03*
Y116457D02*
D03*
Y119606D02*
D03*
Y122756D02*
D03*
Y125906D02*
D03*
X106055D02*
D03*
Y122756D02*
D03*
Y119606D02*
D03*
Y116457D02*
D03*
Y113307D02*
D03*
Y110158D02*
D03*
Y107008D02*
D03*
Y103858D02*
D03*
D25*
X112787Y23882D02*
D03*
Y35535D02*
D03*
X98287Y35689D02*
D03*
Y24035D02*
D03*
X112787Y68189D02*
D03*
Y56536D02*
D03*
X98287Y68036D02*
D03*
Y56382D02*
D03*
X128287Y51882D02*
D03*
Y40228D02*
D03*
D26*
X173287Y33882D02*
D03*
X179587D02*
D03*
X173787Y65382D02*
D03*
X180087D02*
D03*
D27*
X85287Y262882D02*
D03*
Y256583D02*
D03*
Y236083D02*
D03*
Y242382D02*
D03*
D28*
X28197Y255720D02*
D03*
Y308043D02*
D03*
D29*
X64181Y279736D02*
D03*
D30*
X157787Y243268D02*
D03*
Y256496D02*
D03*
X180787Y243268D02*
D03*
Y256496D02*
D03*
X193287Y243268D02*
D03*
Y256496D02*
D03*
D31*
X61287Y197299D02*
D03*
Y224465D02*
D03*
X182787Y197299D02*
D03*
Y224465D02*
D03*
X139287Y197299D02*
D03*
Y224465D02*
D03*
D32*
X101287Y216082D02*
D03*
D33*
X110387Y191682D02*
D03*
X101287D02*
D03*
X92187D02*
D03*
D34*
X195988Y48882D02*
D03*
X158587D02*
D03*
D35*
X23909Y57331D02*
D03*
Y53394D02*
D03*
Y49457D02*
D03*
Y45520D02*
D03*
Y41583D02*
D03*
Y37646D02*
D03*
D36*
X9047Y62449D02*
D03*
Y32528D02*
D03*
D67*
X70787Y53382D02*
D03*
Y58382D02*
D03*
X70287Y27882D02*
D03*
Y32882D02*
D03*
X69787Y150382D02*
D03*
Y155382D02*
D03*
D68*
X70787Y63382D02*
D03*
X70287Y37882D02*
D03*
X69787Y160382D02*
D03*
D69*
X38787Y152382D02*
D03*
D70*
Y162224D02*
D03*
D71*
X143220Y258382D02*
D03*
X28287Y190882D02*
D03*
Y220882D02*
D03*
Y230882D02*
D03*
X8287Y190882D02*
D03*
Y220882D02*
D03*
Y230882D02*
D03*
D72*
X97354Y258382D02*
D03*
D73*
X67287Y116882D02*
D03*
X57287D02*
D03*
X47287D02*
D03*
X37287D02*
D03*
X27287D02*
D03*
X17287D02*
D03*
X66787Y92382D02*
D03*
X56787D02*
D03*
X46787D02*
D03*
X36787D02*
D03*
X26787D02*
D03*
X16787D02*
D03*
X6787D02*
D03*
D74*
X7287Y116882D02*
D03*
X76787Y92382D02*
D03*
D75*
X13394Y282728D02*
D03*
D76*
X156787Y294882D02*
D03*
D77*
X87787Y284882D02*
D03*
Y294882D02*
D03*
Y304882D02*
D03*
D78*
X177787Y131882D02*
D03*
D79*
Y121882D02*
D03*
Y111882D02*
D03*
Y101882D02*
D03*
Y91882D02*
D03*
X167787Y131882D02*
D03*
Y121882D02*
D03*
Y111882D02*
D03*
Y101882D02*
D03*
Y91882D02*
D03*
D80*
X75295Y44685D02*
D03*
X146555Y121457D02*
D03*
X133169Y121949D02*
D03*
X130512Y103839D02*
D03*
X101287Y184282D02*
D03*
X139287Y146208D02*
D03*
X118087Y104082D02*
D03*
X173287Y41882D02*
D03*
X74287Y130782D02*
D03*
X41287Y27882D02*
D03*
X182787Y186031D02*
D03*
X138187Y98582D02*
D03*
X173787Y56482D02*
D03*
X160387Y112882D02*
D03*
X96087Y113307D02*
D03*
X147087Y84282D02*
D03*
X37287Y102282D02*
D03*
X87187Y122606D02*
D03*
X62087Y98382D02*
D03*
X133513Y114382D02*
D03*
X37287Y57331D02*
D03*
X43525Y45520D02*
D03*
X70987Y72982D02*
D03*
X145669Y100394D02*
D03*
X143087Y89582D02*
D03*
X145487Y110158D02*
D03*
X46787Y143482D02*
D03*
X113787D02*
D03*
X99487Y125906D02*
D03*
X91087Y126682D02*
D03*
X88834Y24035D02*
D03*
X88087Y84582D02*
D03*
X116887D02*
D03*
M02*
