G04*
G04 #@! TF.GenerationSoftware,Altium Limited,Altium Designer,20.0.13 (296)*
G04*
G04 Layer_Color=128*
%FSLAX25Y25*%
%MOIN*%
G70*
G01*
G75*
%ADD17C,0.00200*%
D17*
X69410Y53382D02*
X72165D01*
X70787Y52004D02*
Y54760D01*
X69410Y58382D02*
X72165D01*
X70787Y57004D02*
Y59760D01*
X69410Y63382D02*
X72165D01*
X70787Y62004D02*
Y64760D01*
X68910Y27882D02*
X71665D01*
X70287Y26504D02*
Y29260D01*
X68910Y32882D02*
X71665D01*
X70287Y31504D02*
Y34260D01*
X68910Y37882D02*
X71665D01*
X70287Y36504D02*
Y39260D01*
X68410Y150382D02*
X71165D01*
X69787Y149004D02*
Y151760D01*
X68410Y155382D02*
X71165D01*
X69787Y154004D02*
Y156760D01*
X68410Y160382D02*
X71165D01*
X69787Y159004D02*
Y161760D01*
X205709Y9843D02*
X215551D01*
X210630Y4921D02*
Y14764D01*
X205709Y332677D02*
X215551D01*
X210630Y327756D02*
Y337598D01*
X4921Y332677D02*
X14764D01*
X9843Y327756D02*
Y337598D01*
X4921Y9843D02*
X14764D01*
X9843Y4921D02*
Y14764D01*
X36819Y152382D02*
X40756D01*
X38787Y150413D02*
Y154350D01*
X36819Y162224D02*
X40756D01*
X38787Y160256D02*
Y164193D01*
X141449Y258382D02*
X144992D01*
X143220Y256610D02*
Y260154D01*
X95583Y258382D02*
X99126D01*
X97354Y256610D02*
Y260154D01*
X65516Y116882D02*
X69059D01*
X67287Y115110D02*
Y118654D01*
X55516Y116882D02*
X59059D01*
X57287Y115110D02*
Y118654D01*
X45516Y116882D02*
X49059D01*
X47287Y115110D02*
Y118654D01*
X35516Y116882D02*
X39059D01*
X37287Y115110D02*
Y118654D01*
X25516Y116882D02*
X29059D01*
X27287Y115110D02*
Y118654D01*
X15516Y116882D02*
X19059D01*
X17287Y115110D02*
Y118654D01*
X5516Y116882D02*
X9059D01*
X7287Y115110D02*
Y118654D01*
X9890Y282728D02*
X16898D01*
X13394Y279224D02*
Y286232D01*
X150287Y294882D02*
X163287D01*
X156787Y288382D02*
Y301382D01*
X85587Y284882D02*
X89987D01*
X87787Y282682D02*
Y287082D01*
X85587Y294882D02*
X89987D01*
X87787Y292682D02*
Y297082D01*
X85587Y304882D02*
X89987D01*
X87787Y302682D02*
Y307082D01*
X26319Y190882D02*
X30256D01*
X28287Y188913D02*
Y192850D01*
X26319Y220882D02*
X30256D01*
X28287Y218913D02*
Y222850D01*
X26319Y230882D02*
X30256D01*
X28287Y228913D02*
Y232850D01*
X6319Y190882D02*
X10256D01*
X8287Y188913D02*
Y192850D01*
X6319Y220882D02*
X10256D01*
X8287Y218913D02*
Y222850D01*
X6319Y230882D02*
X10256D01*
X8287Y228913D02*
Y232850D01*
X175622Y131882D02*
X179953D01*
X177787Y129717D02*
Y134047D01*
X175622Y121882D02*
X179953D01*
X177787Y119717D02*
Y124047D01*
X175622Y111882D02*
X179953D01*
X177787Y109716D02*
Y114047D01*
X175622Y101882D02*
X179953D01*
X177787Y99717D02*
Y104047D01*
X175622Y91882D02*
X179953D01*
X177787Y89717D02*
Y94047D01*
X165622Y131882D02*
X169953D01*
X167787Y129717D02*
Y134047D01*
X165622Y121882D02*
X169953D01*
X167787Y119717D02*
Y124047D01*
X165622Y111882D02*
X169953D01*
X167787Y109716D02*
Y114047D01*
X165622Y101882D02*
X169953D01*
X167787Y99717D02*
Y104047D01*
X165622Y91882D02*
X169953D01*
X167787Y89717D02*
Y94047D01*
X75016Y92382D02*
X78559D01*
X76787Y90610D02*
Y94153D01*
X65016Y92382D02*
X68559D01*
X66787Y90610D02*
Y94153D01*
X55016Y92382D02*
X58559D01*
X56787Y90610D02*
Y94153D01*
X45016Y92382D02*
X48559D01*
X46787Y90610D02*
Y94153D01*
X35016Y92382D02*
X38559D01*
X36787Y90610D02*
Y94153D01*
X25016Y92382D02*
X28559D01*
X26787Y90610D02*
Y94153D01*
X15016Y92382D02*
X18559D01*
X16787Y90610D02*
Y94153D01*
X5016Y92382D02*
X8559D01*
X6787Y90610D02*
Y94153D01*
X73895Y44882D02*
X76695D01*
X75295Y43482D02*
Y46282D01*
X72887Y130782D02*
X75687D01*
X74287Y129382D02*
Y132182D01*
X144269Y100394D02*
X147069D01*
X145669Y98994D02*
Y101794D01*
X39887Y27882D02*
X42687D01*
X41287Y26482D02*
Y29282D01*
X129187Y104130D02*
X131987D01*
X130587Y102730D02*
Y105530D01*
X171887Y41882D02*
X174687D01*
X173287Y40482D02*
Y43282D01*
X158987Y112882D02*
X161787D01*
X160387Y111482D02*
Y114282D01*
X144113Y122782D02*
X146913D01*
X145513Y121382D02*
Y124182D01*
X94687Y113307D02*
X97487D01*
X96087Y111907D02*
Y114707D01*
X35887Y102282D02*
X38687D01*
X37287Y100882D02*
Y103682D01*
X85787Y122606D02*
X88587D01*
X87187Y121206D02*
Y124006D01*
X16487Y57282D02*
X19287D01*
X17887Y55882D02*
Y58682D01*
X12487Y45520D02*
X15287D01*
X13887Y44120D02*
Y46920D01*
X69587Y72982D02*
X72387D01*
X70987Y71582D02*
Y74382D01*
X86687Y84582D02*
X89487D01*
X88087Y83182D02*
Y85982D01*
X115487Y84582D02*
X118287D01*
X116887Y83182D02*
Y85982D01*
X91887Y19582D02*
X94687D01*
X93287Y18182D02*
Y20982D01*
X110387Y143482D02*
X113187D01*
X111787Y142082D02*
Y144882D01*
X45387Y143482D02*
X48187D01*
X46787Y142082D02*
Y144882D01*
X98087Y125906D02*
X100887D01*
X99487Y124505D02*
Y127305D01*
X144087Y110158D02*
X146887D01*
X145487Y108757D02*
Y111557D01*
X60687Y98382D02*
X63487D01*
X62087Y96982D02*
Y99782D01*
X131187Y115307D02*
X133987D01*
X132587Y113907D02*
Y116707D01*
X92087Y124282D02*
X94887D01*
X93487Y122882D02*
Y125682D01*
X145687Y84282D02*
X148487D01*
X147087Y82882D02*
Y85682D01*
X141687Y89582D02*
X144487D01*
X143087Y88182D02*
Y90982D01*
X116687Y104082D02*
X119487D01*
X118087Y102682D02*
Y105482D01*
X129261Y137582D02*
X132061D01*
X130661Y136182D02*
Y138982D01*
X136787Y98582D02*
X139587D01*
X138187Y97182D02*
Y99982D01*
X172387Y56482D02*
X175187D01*
X173787Y55082D02*
Y57882D01*
X131787Y121582D02*
X134587D01*
X133187Y120182D02*
Y122982D01*
X73787Y279736D02*
X76587D01*
X75187Y278336D02*
Y281136D01*
X99887Y184282D02*
X102687D01*
X101287Y182882D02*
Y185682D01*
X181387Y186031D02*
X184187D01*
X182787Y184632D02*
Y187432D01*
M02*
