G04*
G04 #@! TF.GenerationSoftware,Altium Limited,Altium Designer,20.0.13 (296)*
G04*
G04 Layer_Color=32896*
%FSLAX25Y25*%
%MOIN*%
G70*
G01*
G75*
%ADD20C,0.01000*%
D20*
X183600Y10165D02*
Y5166D01*
Y10165D02*
X181458D01*
X180744Y9927D01*
X180505Y9689D01*
X180267Y9213D01*
Y8737D01*
X180505Y8261D01*
X180744Y8023D01*
X181458Y7785D01*
X183600D02*
X181458D01*
X180744Y7547D01*
X180505Y7309D01*
X180267Y6833D01*
Y6118D01*
X180505Y5642D01*
X180744Y5404D01*
X181458Y5166D01*
X183600D01*
X178911Y8499D02*
X177482Y5166D01*
X176054Y8499D02*
X177482Y5166D01*
X177958Y4214D01*
X178434Y3738D01*
X178911Y3500D01*
X179149D01*
X171293Y10165D02*
X170103Y5166D01*
X168913Y10165D02*
X170103Y5166D01*
X168913Y10165D02*
X167722Y5166D01*
X166532Y10165D02*
X167722Y5166D01*
X164342Y8499D02*
X164818Y8261D01*
X165294Y7785D01*
X165532Y7071D01*
Y6595D01*
X165294Y5880D01*
X164818Y5404D01*
X164342Y5166D01*
X163628D01*
X163152Y5404D01*
X162676Y5880D01*
X162438Y6595D01*
Y7071D01*
X162676Y7785D01*
X163152Y8261D01*
X163628Y8499D01*
X164342D01*
X161343D02*
Y6118D01*
X161105Y5404D01*
X160629Y5166D01*
X159915D01*
X159439Y5404D01*
X158724Y6118D01*
Y8499D02*
Y5166D01*
X156701Y10165D02*
Y6118D01*
X156463Y5404D01*
X155987Y5166D01*
X155511D01*
X157415Y8499D02*
X155749D01*
X154797Y7071D02*
X151940D01*
Y7547D01*
X152178Y8023D01*
X152416Y8261D01*
X152892Y8499D01*
X153606D01*
X154083Y8261D01*
X154559Y7785D01*
X154797Y7071D01*
Y6595D01*
X154559Y5880D01*
X154083Y5404D01*
X153606Y5166D01*
X152892D01*
X152416Y5404D01*
X151940Y5880D01*
X150869Y8499D02*
Y5166D01*
Y7071D02*
X150631Y7785D01*
X150155Y8261D01*
X149679Y8499D01*
X148965D01*
X144585Y10165D02*
X142680Y5166D01*
X140776Y10165D02*
X142680Y5166D01*
X140133Y7071D02*
X137277D01*
Y7547D01*
X137515Y8023D01*
X137753Y8261D01*
X138229Y8499D01*
X138943D01*
X139419Y8261D01*
X139895Y7785D01*
X140133Y7071D01*
Y6595D01*
X139895Y5880D01*
X139419Y5404D01*
X138943Y5166D01*
X138229D01*
X137753Y5404D01*
X137277Y5880D01*
X136205Y8499D02*
Y5166D01*
Y7071D02*
X135967Y7785D01*
X135491Y8261D01*
X135015Y8499D01*
X134301D01*
X130992D02*
Y4690D01*
X131230Y3976D01*
X131468Y3738D01*
X131944Y3500D01*
X132659D01*
X133135Y3738D01*
X130992Y7785D02*
X131468Y8261D01*
X131944Y8499D01*
X132659D01*
X133135Y8261D01*
X133611Y7785D01*
X133849Y7071D01*
Y6595D01*
X133611Y5880D01*
X133135Y5404D01*
X132659Y5166D01*
X131944D01*
X131468Y5404D01*
X130992Y5880D01*
X126803Y8499D02*
Y5166D01*
Y7785D02*
X127279Y8261D01*
X127755Y8499D01*
X128469D01*
X128945Y8261D01*
X129421Y7785D01*
X129659Y7071D01*
Y6595D01*
X129421Y5880D01*
X128945Y5404D01*
X128469Y5166D01*
X127755D01*
X127279Y5404D01*
X126803Y5880D01*
X125470Y8499D02*
Y6118D01*
X125232Y5404D01*
X124755Y5166D01*
X124041D01*
X123565Y5404D01*
X122851Y6118D01*
Y8499D02*
Y5166D01*
X121542Y8499D02*
X120590Y5166D01*
X119638Y8499D02*
X120590Y5166D01*
X119638Y8499D02*
X118685Y5166D01*
X117733Y8499D02*
X118685Y5166D01*
X116567Y7071D02*
X113710D01*
Y7547D01*
X113948Y8023D01*
X114186Y8261D01*
X114662Y8499D01*
X115376D01*
X115853Y8261D01*
X116329Y7785D01*
X116567Y7071D01*
Y6595D01*
X116329Y5880D01*
X115853Y5404D01*
X115376Y5166D01*
X114662D01*
X114186Y5404D01*
X113710Y5880D01*
X112639Y8499D02*
Y5166D01*
Y7547D02*
X111925Y8261D01*
X111449Y8499D01*
X110735D01*
X110259Y8261D01*
X110020Y7547D01*
Y5166D01*
X100499Y8261D02*
X100737Y8023D01*
X100499Y7785D01*
X100261Y8023D01*
Y8261D01*
X100499Y8499D01*
X100737D01*
X100975Y8261D01*
X101213Y7785D01*
X101689Y6595D01*
X102165Y5880D01*
X102641Y5404D01*
X103117Y5166D01*
X103831D01*
X104545Y5404D01*
X104783Y5880D01*
Y6595D01*
X104545Y7071D01*
X103117Y8023D01*
X102641Y8499D01*
X102403Y8975D01*
Y9451D01*
X102641Y9927D01*
X103117Y10165D01*
X103593Y9927D01*
X103831Y9451D01*
Y8975D01*
X103593Y8261D01*
X103117Y7547D01*
X101927Y5880D01*
X101451Y5404D01*
X100737Y5166D01*
X100499D01*
X100261Y5404D01*
Y5642D01*
X103831Y5166D02*
X104307Y5404D01*
X104545Y5880D01*
Y6595D01*
X104307Y7071D01*
X103831Y7547D01*
Y8975D02*
X103593Y8499D01*
X101689Y5880D01*
X101213Y5404D01*
X100737Y5166D01*
X92001Y10165D02*
X95095D01*
Y5166D01*
X92001D01*
X95095Y7785D02*
X93191D01*
X91167Y10165D02*
Y5166D01*
X89644Y10165D02*
X89406Y9927D01*
X89168Y10165D01*
X89406Y10403D01*
X89644Y10165D01*
X89406Y8499D02*
Y5166D01*
X85431Y8499D02*
Y5166D01*
Y7785D02*
X85907Y8261D01*
X86383Y8499D01*
X87097D01*
X87573Y8261D01*
X88049Y7785D01*
X88287Y7071D01*
Y6595D01*
X88049Y5880D01*
X87573Y5404D01*
X87097Y5166D01*
X86383D01*
X85907Y5404D01*
X85431Y5880D01*
X81479Y7785D02*
X81717Y8261D01*
X82431Y8499D01*
X83145D01*
X83859Y8261D01*
X84097Y7785D01*
X83859Y7309D01*
X83383Y7071D01*
X82193Y6833D01*
X81717Y6595D01*
X81479Y6118D01*
Y5880D01*
X81717Y5404D01*
X82431Y5166D01*
X83145D01*
X83859Y5404D01*
X84097Y5880D01*
X76504Y10165D02*
Y5166D01*
Y10165D02*
X74838D01*
X74124Y9927D01*
X73647Y9451D01*
X73409Y8975D01*
X73171Y8261D01*
Y7071D01*
X73409Y6357D01*
X73647Y5880D01*
X74124Y5404D01*
X74838Y5166D01*
X76504D01*
X72053Y7071D02*
X69196D01*
Y7547D01*
X69434Y8023D01*
X69672Y8261D01*
X70148Y8499D01*
X70862D01*
X71338Y8261D01*
X71814Y7785D01*
X72053Y7071D01*
Y6595D01*
X71814Y5880D01*
X71338Y5404D01*
X70862Y5166D01*
X70148D01*
X69672Y5404D01*
X69196Y5880D01*
X64197Y10165D02*
Y5166D01*
Y10165D02*
X62055D01*
X61340Y9927D01*
X61102Y9689D01*
X60864Y9213D01*
Y8737D01*
X61102Y8261D01*
X61340Y8023D01*
X62055Y7785D01*
X64197D02*
X62055D01*
X61340Y7547D01*
X61102Y7309D01*
X60864Y6833D01*
Y6118D01*
X61102Y5642D01*
X61340Y5404D01*
X62055Y5166D01*
X64197D01*
X59746Y8499D02*
Y5166D01*
Y7071D02*
X59508Y7785D01*
X59031Y8261D01*
X58555Y8499D01*
X57841D01*
X56199D02*
X56675Y8261D01*
X57151Y7785D01*
X57389Y7071D01*
Y6595D01*
X57151Y5880D01*
X56675Y5404D01*
X56199Y5166D01*
X55485D01*
X55009Y5404D01*
X54532Y5880D01*
X54294Y6595D01*
Y7071D01*
X54532Y7785D01*
X55009Y8261D01*
X55485Y8499D01*
X56199D01*
X52961D02*
X51533Y5166D01*
X50105Y8499D02*
X51533Y5166D01*
X52009Y4214D01*
X52485Y3738D01*
X52961Y3500D01*
X53199D01*
X49272Y7071D02*
X46415D01*
Y7547D01*
X46653Y8023D01*
X46891Y8261D01*
X47367Y8499D01*
X48081D01*
X48557Y8261D01*
X49034Y7785D01*
X49272Y7071D01*
Y6595D01*
X49034Y5880D01*
X48557Y5404D01*
X48081Y5166D01*
X47367D01*
X46891Y5404D01*
X46415Y5880D01*
X45344Y8499D02*
Y5166D01*
Y7071D02*
X45106Y7785D01*
X44630Y8261D01*
X44154Y8499D01*
X43439D01*
X125835Y337370D02*
X126787Y338322D01*
X128215Y338798D01*
X130120D01*
X131548Y338322D01*
X132500Y337370D01*
Y336417D01*
X132024Y335465D01*
X131548Y334989D01*
X130596Y334513D01*
X127739Y333561D01*
X126787Y333085D01*
X126311Y332609D01*
X125835Y331657D01*
Y330228D01*
X126787Y329276D01*
X128215Y328800D01*
X130120D01*
X131548Y329276D01*
X132500Y330228D01*
X123597Y332609D02*
X117884D01*
Y333561D01*
X118360Y334513D01*
X118836Y334989D01*
X119788Y335465D01*
X121217D01*
X122169Y334989D01*
X123121Y334037D01*
X123597Y332609D01*
Y331657D01*
X123121Y330228D01*
X122169Y329276D01*
X121217Y328800D01*
X119788D01*
X118836Y329276D01*
X117884Y330228D01*
X110029Y334037D02*
X110981Y334989D01*
X111933Y335465D01*
X113361D01*
X114313Y334989D01*
X115266Y334037D01*
X115742Y332609D01*
Y331657D01*
X115266Y330228D01*
X114313Y329276D01*
X113361Y328800D01*
X111933D01*
X110981Y329276D01*
X110029Y330228D01*
X107886Y335465D02*
Y330704D01*
X107410Y329276D01*
X106458Y328800D01*
X105030D01*
X104077Y329276D01*
X102649Y330704D01*
Y335465D02*
Y328800D01*
X100031Y335465D02*
Y328800D01*
Y332609D02*
X99555Y334037D01*
X98602Y334989D01*
X97650Y335465D01*
X96222D01*
X94365Y338798D02*
X93889Y338322D01*
X93413Y338798D01*
X93889Y339274D01*
X94365Y338798D01*
X93889Y335465D02*
Y328800D01*
X87843Y338798D02*
X88795D01*
X89747Y338322D01*
X90223Y336894D01*
Y328800D01*
X91652Y335465D02*
X88319D01*
X85462Y338798D02*
X84986Y338322D01*
X84510Y338798D01*
X84986Y339274D01*
X85462Y338798D01*
X84986Y335465D02*
Y328800D01*
M02*
