G04*
G04 #@! TF.GenerationSoftware,Altium Limited,Altium Designer,20.0.13 (296)*
G04*
G04 Layer_Color=8388736*
%FSLAX25Y25*%
%MOIN*%
G70*
G01*
G75*
%ADD10C,0.00787*%
%ADD15C,0.00500*%
%ADD19C,0.00394*%
%ADD20C,0.01000*%
G36*
X94878Y-39236D02*
X87345D01*
Y-36222D01*
X94878D01*
Y-39236D01*
D02*
G37*
G36*
Y-49236D02*
X87328D01*
Y-46233D01*
X94878D01*
Y-49236D01*
D02*
G37*
G36*
Y-59236D02*
X87347D01*
Y-56246D01*
X94878D01*
Y-59236D01*
D02*
G37*
G36*
X105532Y-134282D02*
X105530D01*
Y-134284D01*
X98228D01*
Y-134282D01*
Y-121687D01*
X105532D01*
Y-134282D01*
D02*
G37*
G36*
X96428Y-151187D02*
X96427D01*
Y-151188D01*
X89128D01*
Y-151187D01*
Y-147787D01*
X96428D01*
Y-151187D01*
D02*
G37*
G36*
X114640Y-151199D02*
X107328D01*
Y-151195D01*
Y-147787D01*
X114640D01*
Y-151199D01*
D02*
G37*
G36*
X105535Y-151209D02*
X98228D01*
Y-151192D01*
Y-147787D01*
X105535D01*
Y-151209D01*
D02*
G37*
D10*
X158772Y-81713D02*
X157984D01*
X158772D01*
X181772D02*
X180984D01*
X181772D01*
X194272D02*
X193484D01*
X194272D01*
X3709Y-42173D02*
X60835D01*
X3709Y-77606D02*
Y-42173D01*
Y-77606D02*
X60835D01*
Y-42173D01*
X21988Y-310091D02*
Y-279382D01*
X5256Y-310091D02*
X21988D01*
X5256D02*
Y-279382D01*
X21988D01*
D15*
X133858Y-171555D02*
Y-164862D01*
X121260Y-171555D02*
Y-164862D01*
Y-171555D02*
X133858D01*
X121260Y-164862D02*
X133858D01*
X121260Y-182480D02*
Y-175787D01*
X133858Y-182480D02*
Y-175787D01*
X121260D02*
X133858D01*
X121260Y-182480D02*
X133858D01*
X110031Y-306610D02*
X116724D01*
X110031Y-319209D02*
X116724D01*
Y-306610D01*
X110031Y-319209D02*
Y-306610D01*
X92579Y-191083D02*
Y-184390D01*
X105177Y-191083D02*
Y-184390D01*
X92579D02*
X105177D01*
X92579Y-191083D02*
X105177D01*
X155032Y-98366D02*
Y-87106D01*
Y-98366D02*
X161724D01*
Y-87106D01*
X155032D02*
X161724D01*
X178032Y-98366D02*
Y-87106D01*
Y-98366D02*
X184724D01*
Y-87106D01*
X178032D02*
X184724D01*
X190532Y-98366D02*
Y-87106D01*
Y-98366D02*
X197224D01*
Y-87106D01*
X190532D02*
X197224D01*
X95532Y-319055D02*
X102224D01*
X95532Y-306457D02*
X102224D01*
X95532Y-319055D02*
Y-306457D01*
X102224Y-319055D02*
Y-306457D01*
X110031Y-286555D02*
X116724D01*
X110031Y-273957D02*
X116724D01*
X110031Y-286555D02*
Y-273957D01*
X116724Y-286555D02*
Y-273957D01*
X95532Y-286709D02*
X102224D01*
X95532Y-274110D02*
X102224D01*
X95532Y-286709D02*
Y-274110D01*
X102224Y-286709D02*
Y-274110D01*
X125531Y-302862D02*
X132224D01*
X125531Y-290264D02*
X132224D01*
X125531Y-302862D02*
Y-290264D01*
X132224Y-302862D02*
Y-290264D01*
D19*
X115110Y-237972D02*
X114847Y-236988D01*
X114126Y-236268D01*
X113142Y-236004D01*
X112157Y-236268D01*
X111437Y-236988D01*
X111173Y-237972D01*
X111437Y-238957D01*
X112157Y-239677D01*
X113142Y-239941D01*
X114126Y-239677D01*
X114847Y-238957D01*
X115110Y-237972D01*
X109598Y-241516D02*
X137157D01*
X109598Y-213957D02*
X137157D01*
X109598Y-241516D02*
Y-213957D01*
X137157Y-241516D02*
Y-213957D01*
X180177Y-310311D02*
Y-307161D01*
X173878D02*
X180177D01*
X173878Y-310311D02*
Y-307161D01*
Y-310311D02*
X180177D01*
X84303Y-86035D02*
X87453D01*
Y-79736D01*
X84303D02*
X87453D01*
X84303Y-86035D02*
Y-79736D01*
Y-100236D02*
X87453D01*
X84303Y-106535D02*
Y-100236D01*
Y-106535D02*
X87453D01*
Y-100236D01*
X45539Y-139905D02*
Y-115398D01*
Y-139905D02*
X53709Y-148075D01*
X70047D01*
X78216Y-139905D01*
Y-115398D01*
X45539D02*
X78216D01*
X167039Y-139905D02*
Y-115398D01*
Y-139905D02*
X175209Y-148075D01*
X191547D01*
X199717Y-139905D01*
Y-115398D01*
X167039D02*
X199717D01*
X123539Y-139905D02*
Y-115398D01*
Y-139905D02*
X131709Y-148075D01*
X148047D01*
X156217Y-139905D01*
Y-115398D01*
X123539D02*
X156217D01*
X33209Y-155949D02*
Y-107524D01*
X4547Y-155949D02*
X33209D01*
X4547D02*
Y-107524D01*
X33209D01*
X180677Y-278811D02*
Y-275661D01*
X174378D02*
X180677D01*
X174378Y-278811D02*
Y-275661D01*
Y-278811D02*
X180677D01*
D20*
X155437Y-303185D02*
X200319D01*
X155437D02*
Y-284287D01*
X200319D01*
Y-303185D02*
Y-284287D01*
X117544Y-55238D02*
X118377Y-56071D01*
Y-57738D01*
X117544Y-58571D01*
X116711D01*
X115878Y-57738D01*
Y-56904D01*
Y-57738D01*
X115044Y-58571D01*
X114211D01*
X113378Y-57738D01*
Y-56071D01*
X114211Y-55238D01*
X113378Y-48570D02*
Y-45232D01*
X116715Y-48570D01*
X117550D01*
X118384Y-47735D01*
Y-46067D01*
X117550Y-45232D01*
X113378Y-35212D02*
Y-36882D01*
Y-36047D01*
X118386D01*
X117551Y-35212D01*
X-0Y-0D02*
X221752D01*
Y-342618D02*
Y-0D01*
X591Y-342618D02*
X221752D01*
X-0Y-342028D02*
X591Y-342618D01*
X-0Y-342028D02*
Y-0D01*
M02*
