G04*
G04 #@! TF.GenerationSoftware,Altium Limited,Altium Designer,20.0.13 (296)*
G04*
G04 Layer_Color=8388736*
%FSLAX25Y25*%
%MOIN*%
G70*
G01*
G75*
%ADD20C,0.01000*%
%ADD37R,0.04619X0.07611*%
%ADD38O,0.02965X0.06706*%
%ADD39O,0.06706X0.02965*%
%ADD40R,0.07611X0.04619*%
%ADD41R,0.02926X0.04501*%
%ADD42R,0.04501X0.02926*%
%ADD43R,0.25800X0.15800*%
%ADD44R,0.16784X0.13792*%
G04:AMPARAMS|DCode=45|XSize=55.64mil|YSize=36.74mil|CornerRadius=6.59mil|HoleSize=0mil|Usage=FLASHONLY|Rotation=270.000|XOffset=0mil|YOffset=0mil|HoleType=Round|Shape=RoundedRectangle|*
%AMROUNDEDRECTD45*
21,1,0.05564,0.02357,0,0,270.0*
21,1,0.04247,0.03674,0,0,270.0*
1,1,0.01317,-0.01178,-0.02123*
1,1,0.01317,-0.01178,0.02123*
1,1,0.01317,0.01178,0.02123*
1,1,0.01317,0.01178,-0.02123*
%
%ADD45ROUNDEDRECTD45*%
%ADD46R,0.07887X0.17335*%
%ADD47R,0.14973X0.09461*%
%ADD48R,0.05600X0.09600*%
%ADD49R,0.22453X0.08674*%
%ADD50R,0.06902X0.03162*%
%ADD51R,0.08674X0.05524*%
%ADD52O,0.08674X0.04737*%
%ADD53O,0.08674X0.04737*%
%ADD54C,0.06800*%
%ADD55R,0.06737X0.06737*%
%ADD56C,0.06737*%
%ADD57C,0.06706*%
%ADD58R,0.06706X0.06706*%
%ADD59O,0.07099X0.08674*%
%ADD60R,0.07099X0.08674*%
%ADD61C,0.11351*%
%ADD62C,0.13800*%
%ADD63O,0.14000X0.07400*%
%ADD64R,0.08674X0.07099*%
%ADD65O,0.08674X0.07099*%
%ADD66C,0.05800*%
D20*
X-0Y-0D02*
X221752D01*
Y-342618D02*
Y-0D01*
X591Y-342618D02*
X221752D01*
X-0Y-342028D02*
X591Y-342618D01*
X-0Y-342028D02*
Y-0D01*
D37*
X121732Y-168209D02*
D03*
X133386D02*
D03*
Y-179134D02*
D03*
X121732D02*
D03*
X104705Y-187736D02*
D03*
X93051D02*
D03*
D38*
X112354Y-244468D02*
D03*
X115504D02*
D03*
X118654D02*
D03*
X121803D02*
D03*
X124953D02*
D03*
X128102D02*
D03*
X131252D02*
D03*
X134402D02*
D03*
Y-211004D02*
D03*
X131252D02*
D03*
X128102D02*
D03*
X124953D02*
D03*
X121803D02*
D03*
X118654D02*
D03*
X115504D02*
D03*
X112354D02*
D03*
D39*
X140110Y-238760D02*
D03*
Y-235610D02*
D03*
Y-232461D02*
D03*
Y-229311D02*
D03*
Y-226161D02*
D03*
Y-223012D02*
D03*
Y-219862D02*
D03*
Y-216713D02*
D03*
X106646D02*
D03*
Y-219862D02*
D03*
Y-223012D02*
D03*
Y-226161D02*
D03*
Y-229311D02*
D03*
Y-232461D02*
D03*
Y-235610D02*
D03*
Y-238760D02*
D03*
D40*
X113378Y-318736D02*
D03*
Y-307083D02*
D03*
X98878Y-306929D02*
D03*
Y-318583D02*
D03*
X113378Y-274429D02*
D03*
Y-286083D02*
D03*
X98878Y-274583D02*
D03*
Y-286236D02*
D03*
X128878Y-290736D02*
D03*
Y-302390D02*
D03*
D41*
X173878Y-308736D02*
D03*
X180177D02*
D03*
X174378Y-277236D02*
D03*
X180677D02*
D03*
D42*
X85878Y-79736D02*
D03*
Y-86035D02*
D03*
Y-106535D02*
D03*
Y-100236D02*
D03*
D43*
X28787Y-86898D02*
D03*
Y-34575D02*
D03*
D44*
X64772Y-62882D02*
D03*
D45*
X158378Y-99350D02*
D03*
Y-86122D02*
D03*
X181378Y-99350D02*
D03*
Y-86122D02*
D03*
X193878Y-99350D02*
D03*
Y-86122D02*
D03*
D46*
X61878Y-145319D02*
D03*
Y-118154D02*
D03*
X183378Y-145319D02*
D03*
Y-118154D02*
D03*
X139878Y-145319D02*
D03*
Y-118154D02*
D03*
D47*
X101878Y-126536D02*
D03*
D48*
X110978Y-150937D02*
D03*
X101878D02*
D03*
X92778D02*
D03*
D49*
X196579Y-293736D02*
D03*
X159177D02*
D03*
D50*
X24500Y-285287D02*
D03*
Y-289224D02*
D03*
Y-293161D02*
D03*
Y-297098D02*
D03*
Y-301035D02*
D03*
Y-304972D02*
D03*
D51*
X9638Y-280169D02*
D03*
Y-310091D02*
D03*
D52*
X71378Y-289236D02*
D03*
Y-284236D02*
D03*
X70878Y-314736D02*
D03*
Y-309736D02*
D03*
X70378Y-192236D02*
D03*
Y-187236D02*
D03*
D53*
X71378Y-279236D02*
D03*
X70878Y-304736D02*
D03*
X70378Y-182236D02*
D03*
D54*
X211221Y-332776D02*
D03*
Y-9941D02*
D03*
X10433D02*
D03*
Y-332776D02*
D03*
D55*
X39378Y-190236D02*
D03*
D56*
Y-180394D02*
D03*
D57*
X143811Y-84236D02*
D03*
X28878Y-151736D02*
D03*
Y-121736D02*
D03*
Y-111736D02*
D03*
X8878Y-151736D02*
D03*
Y-121736D02*
D03*
Y-111736D02*
D03*
D58*
X97945Y-84236D02*
D03*
D59*
X67878Y-225736D02*
D03*
X57878D02*
D03*
X47878D02*
D03*
X37878D02*
D03*
X27878D02*
D03*
X17878D02*
D03*
X67378Y-250236D02*
D03*
X57378D02*
D03*
X47378D02*
D03*
X37378D02*
D03*
X27378D02*
D03*
X17378D02*
D03*
X7378D02*
D03*
D60*
X7878Y-225736D02*
D03*
X77378Y-250236D02*
D03*
D61*
X13984Y-59890D02*
D03*
D62*
X157378Y-47736D02*
D03*
D63*
X88378Y-57736D02*
D03*
Y-47736D02*
D03*
Y-37736D02*
D03*
D64*
X178378Y-210736D02*
D03*
D65*
Y-220736D02*
D03*
Y-230736D02*
D03*
Y-240736D02*
D03*
Y-250736D02*
D03*
X168378Y-210736D02*
D03*
Y-220736D02*
D03*
Y-230736D02*
D03*
Y-240736D02*
D03*
Y-250736D02*
D03*
D66*
X113386Y-222136D02*
D03*
X86614Y-209055D02*
D03*
X86221Y-93307D02*
D03*
X189370Y-304331D02*
D03*
X192913Y-277165D02*
D03*
X118654Y-238109D02*
D03*
X121253Y-226236D02*
D03*
X120043Y-218121D02*
D03*
X118478Y-201236D02*
D03*
X148078Y-228436D02*
D03*
X31578Y-283336D02*
D03*
X32241Y-297098D02*
D03*
X98178Y-248536D02*
D03*
X147978Y-239536D02*
D03*
X157078Y-241636D02*
D03*
X134078Y-235736D02*
D03*
X149178Y-106836D02*
D03*
X121778Y-257210D02*
D03*
X63078Y-269236D02*
D03*
X154778Y-221936D02*
D03*
X144278Y-202136D02*
D03*
X87278Y-235736D02*
D03*
X89278Y-257936D02*
D03*
X86678Y-263036D02*
D03*
M02*
