G04*
G04 #@! TF.GenerationSoftware,Altium Limited,Altium Designer,20.0.13 (296)*
G04*
G04 Layer_Color=255*
%FSLAX25Y25*%
%MOIN*%
G70*
G01*
G75*
%ADD16C,0.06000*%
%ADD20C,0.01000*%
%ADD68O,0.07874X0.03937*%
%ADD69O,0.07874X0.03937*%
%ADD70R,0.05937X0.05937*%
%ADD71C,0.05937*%
%ADD72C,0.05906*%
%ADD73R,0.05906X0.05906*%
%ADD74O,0.06299X0.07874*%
%ADD75R,0.06299X0.07874*%
%ADD76C,0.10551*%
%ADD77C,0.13000*%
%ADD78O,0.13200X0.06600*%
%ADD79R,0.07874X0.06299*%
%ADD80O,0.07874X0.06299*%
D16*
X211221Y-332776D02*
D03*
Y-9941D02*
D03*
X10433D02*
D03*
Y-332776D02*
D03*
D20*
X-0Y-0D02*
X221752D01*
Y-342618D02*
Y-0D01*
X591Y-342618D02*
X221752D01*
X-0Y-342028D02*
X591Y-342618D01*
X-0Y-342028D02*
Y-0D01*
D68*
X71378Y-289236D02*
D03*
Y-284236D02*
D03*
X70878Y-314736D02*
D03*
Y-309736D02*
D03*
X70378Y-192236D02*
D03*
Y-187236D02*
D03*
D69*
X71378Y-279236D02*
D03*
X70878Y-304736D02*
D03*
X70378Y-182236D02*
D03*
D70*
X39378Y-190236D02*
D03*
D71*
Y-180394D02*
D03*
D72*
X143811Y-84236D02*
D03*
X28878Y-151736D02*
D03*
Y-121736D02*
D03*
Y-111736D02*
D03*
X8878Y-151736D02*
D03*
Y-121736D02*
D03*
Y-111736D02*
D03*
D73*
X97945Y-84236D02*
D03*
D74*
X67878Y-225736D02*
D03*
X57878D02*
D03*
X47878D02*
D03*
X37878D02*
D03*
X27878D02*
D03*
X17878D02*
D03*
X67378Y-250236D02*
D03*
X57378D02*
D03*
X47378D02*
D03*
X37378D02*
D03*
X27378D02*
D03*
X17378D02*
D03*
X7378D02*
D03*
D75*
X7878Y-225736D02*
D03*
X77378Y-250236D02*
D03*
D76*
X13984Y-59890D02*
D03*
D77*
X157378Y-47736D02*
D03*
D78*
X88378Y-57736D02*
D03*
Y-47736D02*
D03*
Y-37736D02*
D03*
D79*
X178378Y-210736D02*
D03*
D80*
Y-220736D02*
D03*
Y-230736D02*
D03*
Y-240736D02*
D03*
Y-250736D02*
D03*
X168378Y-210736D02*
D03*
Y-220736D02*
D03*
Y-230736D02*
D03*
Y-240736D02*
D03*
Y-250736D02*
D03*
M02*
