G04*
G04 #@! TF.GenerationSoftware,Altium Limited,Altium Designer,20.0.13 (296)*
G04*
G04 Layer_Color=32896*
%FSLAX25Y25*%
%MOIN*%
G70*
G01*
G75*
%ADD20C,0.01000*%
D20*
X184191Y-332453D02*
Y-337452D01*
Y-332453D02*
X182048D01*
X181334Y-332691D01*
X181096Y-332929D01*
X180858Y-333405D01*
Y-333881D01*
X181096Y-334357D01*
X181334Y-334595D01*
X182048Y-334833D01*
X184191D02*
X182048D01*
X181334Y-335071D01*
X181096Y-335309D01*
X180858Y-335786D01*
Y-336500D01*
X181096Y-336976D01*
X181334Y-337214D01*
X182048Y-337452D01*
X184191D01*
X179501Y-334119D02*
X178073Y-337452D01*
X176645Y-334119D02*
X178073Y-337452D01*
X178549Y-338404D01*
X179025Y-338880D01*
X179501Y-339118D01*
X179739D01*
X171884Y-332453D02*
X170693Y-337452D01*
X169503Y-332453D02*
X170693Y-337452D01*
X169503Y-332453D02*
X168313Y-337452D01*
X167123Y-332453D02*
X168313Y-337452D01*
X164933Y-334119D02*
X165409Y-334357D01*
X165885Y-334833D01*
X166123Y-335547D01*
Y-336023D01*
X165885Y-336738D01*
X165409Y-337214D01*
X164933Y-337452D01*
X164219D01*
X163743Y-337214D01*
X163267Y-336738D01*
X163028Y-336023D01*
Y-335547D01*
X163267Y-334833D01*
X163743Y-334357D01*
X164219Y-334119D01*
X164933D01*
X161933D02*
Y-336500D01*
X161695Y-337214D01*
X161219Y-337452D01*
X160505D01*
X160029Y-337214D01*
X159315Y-336500D01*
Y-334119D02*
Y-337452D01*
X157292Y-332453D02*
Y-336500D01*
X157053Y-337214D01*
X156577Y-337452D01*
X156101D01*
X158006Y-334119D02*
X156339D01*
X155387Y-335547D02*
X152531D01*
Y-335071D01*
X152769Y-334595D01*
X153007Y-334357D01*
X153483Y-334119D01*
X154197D01*
X154673Y-334357D01*
X155149Y-334833D01*
X155387Y-335547D01*
Y-336023D01*
X155149Y-336738D01*
X154673Y-337214D01*
X154197Y-337452D01*
X153483D01*
X153007Y-337214D01*
X152531Y-336738D01*
X151460Y-334119D02*
Y-337452D01*
Y-335547D02*
X151221Y-334833D01*
X150745Y-334357D01*
X150269Y-334119D01*
X149555D01*
X145175Y-332453D02*
X143271Y-337452D01*
X141366Y-332453D02*
X143271Y-337452D01*
X140724Y-335547D02*
X137867D01*
Y-335071D01*
X138105Y-334595D01*
X138343Y-334357D01*
X138819Y-334119D01*
X139533D01*
X140009Y-334357D01*
X140486Y-334833D01*
X140724Y-335547D01*
Y-336023D01*
X140486Y-336738D01*
X140009Y-337214D01*
X139533Y-337452D01*
X138819D01*
X138343Y-337214D01*
X137867Y-336738D01*
X136796Y-334119D02*
Y-337452D01*
Y-335547D02*
X136558Y-334833D01*
X136082Y-334357D01*
X135606Y-334119D01*
X134892D01*
X131583D02*
Y-337928D01*
X131821Y-338642D01*
X132059Y-338880D01*
X132535Y-339118D01*
X133249D01*
X133725Y-338880D01*
X131583Y-334833D02*
X132059Y-334357D01*
X132535Y-334119D01*
X133249D01*
X133725Y-334357D01*
X134201Y-334833D01*
X134439Y-335547D01*
Y-336023D01*
X134201Y-336738D01*
X133725Y-337214D01*
X133249Y-337452D01*
X132535D01*
X132059Y-337214D01*
X131583Y-336738D01*
X127393Y-334119D02*
Y-337452D01*
Y-334833D02*
X127869Y-334357D01*
X128345Y-334119D01*
X129060D01*
X129536Y-334357D01*
X130012Y-334833D01*
X130250Y-335547D01*
Y-336023D01*
X130012Y-336738D01*
X129536Y-337214D01*
X129060Y-337452D01*
X128345D01*
X127869Y-337214D01*
X127393Y-336738D01*
X126060Y-334119D02*
Y-336500D01*
X125822Y-337214D01*
X125346Y-337452D01*
X124632D01*
X124156Y-337214D01*
X123442Y-336500D01*
Y-334119D02*
Y-337452D01*
X122132Y-334119D02*
X121180Y-337452D01*
X120228Y-334119D02*
X121180Y-337452D01*
X120228Y-334119D02*
X119276Y-337452D01*
X118324Y-334119D02*
X119276Y-337452D01*
X117157Y-335547D02*
X114301D01*
Y-335071D01*
X114539Y-334595D01*
X114777Y-334357D01*
X115253Y-334119D01*
X115967D01*
X116443Y-334357D01*
X116919Y-334833D01*
X117157Y-335547D01*
Y-336023D01*
X116919Y-336738D01*
X116443Y-337214D01*
X115967Y-337452D01*
X115253D01*
X114777Y-337214D01*
X114301Y-336738D01*
X113230Y-334119D02*
Y-337452D01*
Y-335071D02*
X112515Y-334357D01*
X112039Y-334119D01*
X111325D01*
X110849Y-334357D01*
X110611Y-335071D01*
Y-337452D01*
X101089Y-334357D02*
X101327Y-334595D01*
X101089Y-334833D01*
X100851Y-334595D01*
Y-334357D01*
X101089Y-334119D01*
X101327D01*
X101565Y-334357D01*
X101803Y-334833D01*
X102279Y-336023D01*
X102756Y-336738D01*
X103232Y-337214D01*
X103708Y-337452D01*
X104422D01*
X105136Y-337214D01*
X105374Y-336738D01*
Y-336023D01*
X105136Y-335547D01*
X103708Y-334595D01*
X103232Y-334119D01*
X102994Y-333643D01*
Y-333167D01*
X103232Y-332691D01*
X103708Y-332453D01*
X104184Y-332691D01*
X104422Y-333167D01*
Y-333643D01*
X104184Y-334357D01*
X103708Y-335071D01*
X102518Y-336738D01*
X102041Y-337214D01*
X101327Y-337452D01*
X101089D01*
X100851Y-337214D01*
Y-336976D01*
X104422Y-337452D02*
X104898Y-337214D01*
X105136Y-336738D01*
Y-336023D01*
X104898Y-335547D01*
X104422Y-335071D01*
Y-333643D02*
X104184Y-334119D01*
X102279Y-336738D01*
X101803Y-337214D01*
X101327Y-337452D01*
X92591Y-332453D02*
X95686D01*
Y-337452D01*
X92591D01*
X95686Y-334833D02*
X93781D01*
X91758Y-332453D02*
Y-337452D01*
X90235Y-332453D02*
X89996Y-332691D01*
X89758Y-332453D01*
X89996Y-332215D01*
X90235Y-332453D01*
X89996Y-334119D02*
Y-337452D01*
X86021Y-334119D02*
Y-337452D01*
Y-334833D02*
X86497Y-334357D01*
X86973Y-334119D01*
X87687D01*
X88164Y-334357D01*
X88640Y-334833D01*
X88878Y-335547D01*
Y-336023D01*
X88640Y-336738D01*
X88164Y-337214D01*
X87687Y-337452D01*
X86973D01*
X86497Y-337214D01*
X86021Y-336738D01*
X82070Y-334833D02*
X82308Y-334357D01*
X83022Y-334119D01*
X83736D01*
X84450Y-334357D01*
X84688Y-334833D01*
X84450Y-335309D01*
X83974Y-335547D01*
X82784Y-335786D01*
X82308Y-336023D01*
X82070Y-336500D01*
Y-336738D01*
X82308Y-337214D01*
X83022Y-337452D01*
X83736D01*
X84450Y-337214D01*
X84688Y-336738D01*
X77094Y-332453D02*
Y-337452D01*
Y-332453D02*
X75428D01*
X74714Y-332691D01*
X74238Y-333167D01*
X74000Y-333643D01*
X73762Y-334357D01*
Y-335547D01*
X74000Y-336262D01*
X74238Y-336738D01*
X74714Y-337214D01*
X75428Y-337452D01*
X77094D01*
X72643Y-335547D02*
X69787D01*
Y-335071D01*
X70025Y-334595D01*
X70263Y-334357D01*
X70739Y-334119D01*
X71453D01*
X71929Y-334357D01*
X72405Y-334833D01*
X72643Y-335547D01*
Y-336023D01*
X72405Y-336738D01*
X71929Y-337214D01*
X71453Y-337452D01*
X70739D01*
X70263Y-337214D01*
X69787Y-336738D01*
X64788Y-332453D02*
Y-337452D01*
Y-332453D02*
X62645D01*
X61931Y-332691D01*
X61693Y-332929D01*
X61455Y-333405D01*
Y-333881D01*
X61693Y-334357D01*
X61931Y-334595D01*
X62645Y-334833D01*
X64788D02*
X62645D01*
X61931Y-335071D01*
X61693Y-335309D01*
X61455Y-335786D01*
Y-336500D01*
X61693Y-336976D01*
X61931Y-337214D01*
X62645Y-337452D01*
X64788D01*
X60336Y-334119D02*
Y-337452D01*
Y-335547D02*
X60098Y-334833D01*
X59622Y-334357D01*
X59146Y-334119D01*
X58432D01*
X56789D02*
X57265Y-334357D01*
X57741Y-334833D01*
X57980Y-335547D01*
Y-336023D01*
X57741Y-336738D01*
X57265Y-337214D01*
X56789Y-337452D01*
X56075D01*
X55599Y-337214D01*
X55123Y-336738D01*
X54885Y-336023D01*
Y-335547D01*
X55123Y-334833D01*
X55599Y-334357D01*
X56075Y-334119D01*
X56789D01*
X53552D02*
X52124Y-337452D01*
X50695Y-334119D02*
X52124Y-337452D01*
X52600Y-338404D01*
X53076Y-338880D01*
X53552Y-339118D01*
X53790D01*
X49862Y-335547D02*
X47006D01*
Y-335071D01*
X47244Y-334595D01*
X47482Y-334357D01*
X47958Y-334119D01*
X48672D01*
X49148Y-334357D01*
X49624Y-334833D01*
X49862Y-335547D01*
Y-336023D01*
X49624Y-336738D01*
X49148Y-337214D01*
X48672Y-337452D01*
X47958D01*
X47482Y-337214D01*
X47006Y-336738D01*
X45934Y-334119D02*
Y-337452D01*
Y-335547D02*
X45696Y-334833D01*
X45220Y-334357D01*
X44744Y-334119D01*
X44030D01*
X126425Y-5249D02*
X127377Y-4296D01*
X128806Y-3820D01*
X130710D01*
X132138Y-4296D01*
X133091Y-5249D01*
Y-6201D01*
X132615Y-7153D01*
X132138Y-7629D01*
X131186Y-8105D01*
X128330Y-9057D01*
X127377Y-9533D01*
X126901Y-10009D01*
X126425Y-10962D01*
Y-12390D01*
X127377Y-13342D01*
X128806Y-13818D01*
X130710D01*
X132138Y-13342D01*
X133091Y-12390D01*
X124188Y-10009D02*
X118475D01*
Y-9057D01*
X118951Y-8105D01*
X119427Y-7629D01*
X120379Y-7153D01*
X121807D01*
X122759Y-7629D01*
X123712Y-8581D01*
X124188Y-10009D01*
Y-10962D01*
X123712Y-12390D01*
X122759Y-13342D01*
X121807Y-13818D01*
X120379D01*
X119427Y-13342D01*
X118475Y-12390D01*
X110619Y-8581D02*
X111571Y-7629D01*
X112523Y-7153D01*
X113952D01*
X114904Y-7629D01*
X115856Y-8581D01*
X116332Y-10009D01*
Y-10962D01*
X115856Y-12390D01*
X114904Y-13342D01*
X113952Y-13818D01*
X112523D01*
X111571Y-13342D01*
X110619Y-12390D01*
X108477Y-7153D02*
Y-11914D01*
X108001Y-13342D01*
X107048Y-13818D01*
X105620D01*
X104668Y-13342D01*
X103240Y-11914D01*
Y-7153D02*
Y-13818D01*
X100621Y-7153D02*
Y-13818D01*
Y-10009D02*
X100145Y-8581D01*
X99193Y-7629D01*
X98241Y-7153D01*
X96813D01*
X94956Y-3820D02*
X94480Y-4296D01*
X94004Y-3820D01*
X94480Y-3344D01*
X94956Y-3820D01*
X94480Y-7153D02*
Y-13818D01*
X88433Y-3820D02*
X89386D01*
X90338Y-4296D01*
X90814Y-5725D01*
Y-13818D01*
X92242Y-7153D02*
X88910D01*
X86053Y-3820D02*
X85577Y-4296D01*
X85101Y-3820D01*
X85577Y-3344D01*
X86053Y-3820D01*
X85577Y-7153D02*
Y-13818D01*
X-0Y-0D02*
X221752D01*
Y-342618D02*
Y-0D01*
X591Y-342618D02*
X221752D01*
X-0Y-342028D02*
X591Y-342618D01*
X-0Y-342028D02*
Y-0D01*
M02*
