G04*
G04 #@! TF.GenerationSoftware,Altium Limited,Altium Designer,20.0.13 (296)*
G04*
G04 Layer_Color=16711935*
%FSLAX25Y25*%
%MOIN*%
G70*
G01*
G75*
%ADD20C,0.01000*%
D20*
X136259Y-172609D02*
Y-163809D01*
X118859D02*
X136259D01*
X118859Y-172509D02*
Y-163809D01*
Y-172509D02*
X118959Y-172609D01*
X136259D01*
X118859Y-183534D02*
Y-174734D01*
Y-183534D02*
X136259D01*
Y-174834D01*
X136159Y-174734D02*
X136259Y-174834D01*
X118859Y-174734D02*
X136159D01*
X102807Y-207165D02*
X143949D01*
Y-248307D02*
Y-207165D01*
X102807Y-248307D02*
X143949D01*
X102807D02*
Y-207165D01*
X108978Y-304209D02*
X117778D01*
X108978Y-321609D02*
Y-304209D01*
Y-321609D02*
X117678D01*
X117778Y-321509D01*
Y-304209D01*
X172205Y-311197D02*
Y-306276D01*
X181850D01*
Y-311098D02*
Y-306276D01*
X181752Y-311197D02*
X181850Y-311098D01*
X172205Y-311197D02*
X181752D01*
X90178Y-192136D02*
Y-183336D01*
Y-192136D02*
X107578D01*
Y-183436D01*
X107478Y-183336D02*
X107578Y-183436D01*
X90178Y-183336D02*
X107478D01*
X1978Y-201015D02*
X49578D01*
X1978D02*
Y-169615D01*
X49578D01*
Y-201015D02*
Y-169615D01*
X83417Y-78063D02*
X88339D01*
Y-87709D02*
Y-78063D01*
X83516Y-87709D02*
X88339D01*
X83417Y-87610D02*
X83516Y-87709D01*
X83417Y-87610D02*
Y-78063D01*
X2878Y-218736D02*
X72878D01*
Y-232736D02*
Y-218736D01*
X2878Y-232736D02*
X72878D01*
X2878D02*
Y-218736D01*
X3709Y-94634D02*
Y-77508D01*
Y-94634D02*
X73098D01*
Y-29673D01*
X41405Y-26917D02*
X73098D01*
Y-29673D02*
Y-26917D01*
X3709D02*
X41405D01*
X3709Y-77508D02*
Y-26917D01*
X174878Y-68236D02*
Y-48236D01*
Y-27236D01*
X80878D02*
X174878D01*
X80878Y-68236D02*
X174878D01*
X80878D02*
Y-27236D01*
X83417Y-108209D02*
X88339D01*
X83417D02*
Y-98563D01*
X88240D01*
X88339Y-98661D01*
Y-108209D02*
Y-98661D01*
X43177Y-155555D02*
Y-107917D01*
Y-155555D02*
X80579D01*
Y-107917D01*
X43177D02*
X80579D01*
X114678Y-152437D02*
Y-125037D01*
X89078D02*
X114678D01*
X89078Y-152437D02*
X114678D01*
X89078D02*
Y-125037D01*
X164677Y-155555D02*
Y-107917D01*
Y-155555D02*
X202079D01*
Y-107917D01*
X164677D02*
X202079D01*
X121177Y-155555D02*
Y-107917D01*
Y-155555D02*
X158579D01*
Y-107917D01*
X121177D02*
X158579D01*
X4705Y-107524D02*
X33248D01*
X4705Y-155949D02*
Y-107524D01*
Y-155949D02*
X33248D01*
Y-107524D01*
X148153Y-297772D02*
Y-284091D01*
X207602D01*
Y-297772D02*
Y-284091D01*
X202091Y-303185D02*
X207504D01*
X207602Y-303087D01*
Y-297772D01*
X148153Y-303185D02*
X202091D01*
X148153D02*
Y-297772D01*
X172705Y-279697D02*
Y-274776D01*
X182350D01*
Y-279598D02*
Y-274776D01*
X182252Y-279697D02*
X182350Y-279598D01*
X172705Y-279697D02*
X182252D01*
X94478Y-321456D02*
X103278D01*
Y-304056D01*
X94578D02*
X103278D01*
X94478Y-304156D02*
X94578Y-304056D01*
X94478Y-321456D02*
Y-304156D01*
X108978Y-288956D02*
X117778D01*
Y-271556D01*
X109078D02*
X117778D01*
X108978Y-271656D02*
X109078Y-271556D01*
X108978Y-288956D02*
Y-271656D01*
X94478Y-289109D02*
X103278D01*
Y-271709D01*
X94578D02*
X103278D01*
X94478Y-271809D02*
X94578Y-271709D01*
X94478Y-289109D02*
Y-271809D01*
X166705Y-190579D02*
X220051D01*
Y-270713D02*
Y-190579D01*
X220032Y-270732D02*
X220051Y-270713D01*
X166685Y-270732D02*
X220032D01*
X166685D02*
X166705Y-270713D01*
Y-190579D01*
X124478Y-305263D02*
X133278D01*
Y-287863D01*
X124578D02*
X133278D01*
X124478Y-287963D02*
X124578Y-287863D01*
X124478Y-305263D02*
Y-287963D01*
X1295Y-273870D02*
X31512D01*
Y-316390D02*
Y-273870D01*
X1295Y-316390D02*
X31512D01*
X1295D02*
Y-273870D01*
X82378Y-255236D02*
Y-245236D01*
X2378D02*
X82378D01*
X2378Y-255236D02*
Y-245236D01*
Y-255236D02*
X82378D01*
X126559Y-169209D02*
Y-175207D01*
X123560D01*
X122560Y-174207D01*
Y-172208D01*
X123560Y-171208D01*
X126559D01*
X124560D02*
X122560Y-169209D01*
X120561Y-175207D02*
X116562D01*
Y-174207D01*
X120561Y-170208D01*
Y-169209D01*
X128559Y-178134D02*
Y-172136D01*
X131558D01*
X132558Y-173135D01*
Y-175135D01*
X131558Y-176135D01*
X128559D01*
X130558D02*
X132558Y-178134D01*
X134557Y-173135D02*
X135557Y-172136D01*
X137556D01*
X138556Y-173135D01*
Y-174135D01*
X137556Y-175135D01*
X138556Y-176135D01*
Y-177134D01*
X137556Y-178134D01*
X135557D01*
X134557Y-177134D01*
Y-176135D01*
X135557Y-175135D01*
X134557Y-174135D01*
Y-173135D01*
X135557Y-175135D02*
X137556D01*
X116380Y-226736D02*
X121378D01*
X122378Y-225736D01*
Y-223737D01*
X121378Y-222738D01*
X116380D01*
X122378Y-220738D02*
Y-218739D01*
Y-219739D01*
X116380D01*
X117380Y-220738D01*
X114378Y-313910D02*
X120376D01*
Y-316909D01*
X119376Y-317908D01*
X117377D01*
X116377Y-316909D01*
Y-313910D01*
Y-315909D02*
X114378Y-317908D01*
X120376Y-323906D02*
Y-319907D01*
X117377D01*
X118377Y-321907D01*
Y-322907D01*
X117377Y-323906D01*
X115378D01*
X114378Y-322907D01*
Y-320907D01*
X115378Y-319907D01*
X172029Y-314735D02*
X173029Y-315734D01*
X175028D01*
X176028Y-314735D01*
Y-310736D01*
X175028Y-309736D01*
X173029D01*
X172029Y-310736D01*
X170029Y-309736D02*
X168030D01*
X169030D01*
Y-315734D01*
X170029Y-314735D01*
X99878Y-186736D02*
Y-180738D01*
X102877D01*
X103877Y-181738D01*
Y-183737D01*
X102877Y-184737D01*
X99878D01*
X101877D02*
X103877Y-186736D01*
X105876D02*
X107875D01*
X106876D01*
Y-180738D01*
X105876Y-181738D01*
X32380Y-180316D02*
Y-182316D01*
Y-181316D01*
X37378D01*
X38378Y-182316D01*
Y-183315D01*
X37378Y-184315D01*
X32380Y-174318D02*
X33380Y-176318D01*
X35379Y-178317D01*
X37378D01*
X38378Y-177317D01*
Y-175318D01*
X37378Y-174318D01*
X36379D01*
X35379Y-175318D01*
Y-178317D01*
X79880Y-77887D02*
X78880Y-78887D01*
Y-80886D01*
X79880Y-81886D01*
X83878D01*
X84878Y-80886D01*
Y-78887D01*
X83878Y-77887D01*
X84878Y-72889D02*
X78880D01*
X81879Y-75888D01*
Y-71889D01*
X30880Y-220738D02*
Y-222737D01*
Y-221737D01*
X35878D01*
X36878Y-222737D01*
Y-223737D01*
X35878Y-224736D01*
X31880Y-218738D02*
X30880Y-217739D01*
Y-215739D01*
X31880Y-214739D01*
X32879D01*
X33879Y-215739D01*
Y-216739D01*
Y-215739D01*
X34879Y-214739D01*
X35878D01*
X36878Y-215739D01*
Y-217739D01*
X35878Y-218738D01*
X46376Y-65735D02*
Y-63736D01*
Y-64735D01*
X41378D01*
X40378Y-63736D01*
Y-62736D01*
X41378Y-61736D01*
X40378Y-71733D02*
Y-67734D01*
X44377Y-71733D01*
X45376D01*
X46376Y-70733D01*
Y-68734D01*
X45376Y-67734D01*
X129876Y-48736D02*
X124878D01*
X123878Y-49736D01*
Y-51735D01*
X124878Y-52735D01*
X129876D01*
X123878Y-58733D02*
Y-54734D01*
X127877Y-58733D01*
X128876D01*
X129876Y-57733D01*
Y-55734D01*
X128876Y-54734D01*
X91876Y-108385D02*
X92876Y-107385D01*
Y-105385D01*
X91876Y-104386D01*
X87878D01*
X86878Y-105385D01*
Y-107385D01*
X87878Y-108385D01*
X91876Y-110384D02*
X92876Y-111384D01*
Y-113383D01*
X91876Y-114383D01*
X90877D01*
X89877Y-113383D01*
Y-112383D01*
Y-113383D01*
X88877Y-114383D01*
X87878D01*
X86878Y-113383D01*
Y-111384D01*
X87878Y-110384D01*
X55880Y-126737D02*
X54880Y-127737D01*
Y-129736D01*
X55880Y-130736D01*
X59878D01*
X60878Y-129736D01*
Y-127737D01*
X59878Y-126737D01*
X54880Y-120739D02*
Y-124738D01*
X57879D01*
X56879Y-122739D01*
Y-121739D01*
X57879Y-120739D01*
X59878D01*
X60878Y-121739D01*
Y-123739D01*
X59878Y-124738D01*
X94880Y-137736D02*
X99878D01*
X100878Y-136737D01*
Y-134737D01*
X99878Y-133738D01*
X94880D01*
X95880Y-131738D02*
X94880Y-130738D01*
Y-128739D01*
X95880Y-127740D01*
X96879D01*
X97879Y-128739D01*
Y-129739D01*
Y-128739D01*
X98879Y-127740D01*
X99878D01*
X100878Y-128739D01*
Y-130738D01*
X99878Y-131738D01*
X177380Y-126737D02*
X176380Y-127737D01*
Y-129736D01*
X177380Y-130736D01*
X181378D01*
X182378Y-129736D01*
Y-127737D01*
X181378Y-126737D01*
X176380Y-124738D02*
Y-120739D01*
X177380D01*
X181378Y-124738D01*
X182378D01*
X133880Y-126737D02*
X132880Y-127737D01*
Y-129736D01*
X133880Y-130736D01*
X137878D01*
X138878Y-129736D01*
Y-127737D01*
X137878Y-126737D01*
X132880Y-120739D02*
X133880Y-122739D01*
X135879Y-124738D01*
X137878D01*
X138878Y-123739D01*
Y-121739D01*
X137878Y-120739D01*
X136879D01*
X135879Y-121739D01*
Y-124738D01*
X25876Y-132736D02*
X19878D01*
X21877D01*
X25876Y-136735D01*
X22877Y-133736D01*
X19878Y-136735D01*
Y-138734D02*
Y-140734D01*
Y-139734D01*
X25876D01*
X24876Y-138734D01*
X176878Y-300734D02*
Y-299735D01*
X174879Y-297735D01*
X172879Y-299735D01*
Y-300734D01*
X174879Y-297735D02*
Y-294736D01*
X170880D02*
X168880D01*
X169880D01*
Y-300734D01*
X170880Y-299735D01*
X172529Y-283235D02*
X173529Y-284234D01*
X175528D01*
X176528Y-283235D01*
Y-279236D01*
X175528Y-278236D01*
X173529D01*
X172529Y-279236D01*
X166531Y-278236D02*
X170529D01*
X166531Y-282235D01*
Y-283235D01*
X167531Y-284234D01*
X169530D01*
X170529Y-283235D01*
X97878Y-311756D02*
X91880D01*
Y-308757D01*
X92880Y-307757D01*
X94879D01*
X95879Y-308757D01*
Y-311756D01*
Y-309757D02*
X97878Y-307757D01*
Y-302759D02*
X91880D01*
X94879Y-305758D01*
Y-301759D01*
X112378Y-279256D02*
X106380D01*
Y-276257D01*
X107380Y-275257D01*
X109379D01*
X110379Y-276257D01*
Y-279256D01*
Y-277257D02*
X112378Y-275257D01*
Y-269259D02*
Y-273258D01*
X108379Y-269259D01*
X107380D01*
X106380Y-270259D01*
Y-272258D01*
X107380Y-273258D01*
X97878Y-279410D02*
X91880D01*
Y-276410D01*
X92880Y-275411D01*
X94879D01*
X95879Y-276410D01*
Y-279410D01*
Y-277410D02*
X97878Y-275411D01*
X92880Y-273411D02*
X91880Y-272412D01*
Y-270412D01*
X92880Y-269413D01*
X93879D01*
X94879Y-270412D01*
Y-271412D01*
Y-270412D01*
X95879Y-269413D01*
X96878D01*
X97878Y-270412D01*
Y-272412D01*
X96878Y-273411D01*
X178377Y-219738D02*
X176377D01*
X177377D01*
Y-224736D01*
X176377Y-225736D01*
X175378D01*
X174378Y-224736D01*
X180376Y-225736D02*
X182375D01*
X181376D01*
Y-219738D01*
X180376Y-220738D01*
X127878Y-295563D02*
X121880D01*
Y-292564D01*
X122880Y-291564D01*
X124879D01*
X125879Y-292564D01*
Y-295563D01*
Y-293564D02*
X127878Y-291564D01*
X121880Y-285566D02*
X122880Y-287566D01*
X124879Y-289565D01*
X126878D01*
X127878Y-288565D01*
Y-286566D01*
X126878Y-285566D01*
X125879D01*
X124879Y-286566D01*
Y-289565D01*
X21876Y-299735D02*
Y-297736D01*
Y-298735D01*
X16878D01*
X15878Y-297736D01*
Y-296736D01*
X16878Y-295736D01*
X15878Y-304733D02*
X21876D01*
X18877Y-301734D01*
Y-305733D01*
X49376Y-255235D02*
Y-253236D01*
Y-254235D01*
X44378D01*
X43378Y-253236D01*
Y-252236D01*
X44378Y-251236D01*
X49376Y-261233D02*
Y-257234D01*
X46377D01*
X47377Y-259234D01*
Y-260233D01*
X46377Y-261233D01*
X44378D01*
X43378Y-260233D01*
Y-258234D01*
X44378Y-257234D01*
X-0Y-0D02*
X221752D01*
Y-342618D02*
Y-0D01*
X591Y-342618D02*
X221752D01*
X-0Y-342028D02*
X591Y-342618D01*
X-0Y-342028D02*
Y-0D01*
M02*
