G04*
G04 #@! TF.GenerationSoftware,Altium Limited,Altium Designer,20.0.13 (296)*
G04*
G04 Layer_Color=65535*
%FSLAX25Y25*%
%MOIN*%
G70*
G01*
G75*
%ADD10C,0.00787*%
%ADD11C,0.00984*%
%ADD12C,0.02362*%
%ADD13C,0.00000*%
%ADD14C,0.01181*%
%ADD15C,0.00500*%
%ADD16C,0.06000*%
%ADD17C,0.00200*%
%ADD18C,0.00800*%
%ADD19C,0.00394*%
%ADD20C,0.01000*%
%ADD21C,0.00591*%
G36*
X108378Y-40236D02*
X97350D01*
Y-39236D01*
X94870D01*
Y-36231D01*
X97350D01*
Y-35214D01*
X108378D01*
Y-40236D01*
D02*
G37*
G36*
Y-50236D02*
X97356D01*
Y-49236D01*
X94869D01*
Y-46235D01*
X97356D01*
Y-45233D01*
X108378D01*
Y-50236D01*
D02*
G37*
G36*
Y-60236D02*
X97360D01*
Y-59236D01*
X94872D01*
Y-56239D01*
X97360D01*
Y-55245D01*
X108378D01*
Y-60236D01*
D02*
G37*
D10*
X76693Y-276677D02*
X75838Y-276143D01*
X74929Y-275705D01*
X73979Y-275369D01*
X72997Y-275138D01*
X71996Y-275016D01*
X70987Y-275004D01*
X69984Y-275101D01*
X68997Y-275308D01*
X68038Y-275620D01*
X67119Y-276035D01*
X66251Y-276548D01*
X65444Y-277153D01*
X64707Y-277842D01*
X64050Y-278607D01*
X63480Y-279439D01*
X63005Y-280328D01*
X62629Y-281263D01*
X62357Y-282234D01*
X62192Y-283229D01*
X62137Y-284236D01*
X62192Y-285243D01*
X62357Y-286238D01*
X62629Y-287209D01*
X63005Y-288145D01*
X63480Y-289034D01*
X64050Y-289866D01*
X64707Y-290631D01*
X65444Y-291320D01*
X66251Y-291924D01*
X67119Y-292437D01*
X68038Y-292852D01*
X68997Y-293165D01*
X69984Y-293371D01*
X70987Y-293469D01*
X71996Y-293456D01*
X72997Y-293334D01*
X73979Y-293103D01*
X74929Y-292767D01*
X75838Y-292329D01*
X76693Y-291795D01*
X76193Y-302177D02*
X75338Y-301643D01*
X74429Y-301205D01*
X73479Y-300869D01*
X72497Y-300639D01*
X71496Y-300516D01*
X70487Y-300504D01*
X69484Y-300601D01*
X68497Y-300808D01*
X67538Y-301120D01*
X66619Y-301536D01*
X65751Y-302048D01*
X64944Y-302653D01*
X64207Y-303342D01*
X63550Y-304107D01*
X62980Y-304939D01*
X62505Y-305828D01*
X62129Y-306763D01*
X61857Y-307734D01*
X61692Y-308729D01*
X61637Y-309736D01*
X61692Y-310743D01*
X61857Y-311738D01*
X62129Y-312709D01*
X62505Y-313645D01*
X62980Y-314534D01*
X63550Y-315366D01*
X64207Y-316131D01*
X64944Y-316820D01*
X65751Y-317424D01*
X66619Y-317937D01*
X67538Y-318352D01*
X68497Y-318665D01*
X69484Y-318871D01*
X70487Y-318969D01*
X71496Y-318956D01*
X72497Y-318834D01*
X73479Y-318603D01*
X74429Y-318267D01*
X75338Y-317829D01*
X76193Y-317295D01*
X75693Y-179677D02*
X74838Y-179143D01*
X73929Y-178705D01*
X72979Y-178369D01*
X71997Y-178138D01*
X70996Y-178016D01*
X69987Y-178004D01*
X68984Y-178101D01*
X67997Y-178308D01*
X67038Y-178620D01*
X66119Y-179035D01*
X65251Y-179548D01*
X64444Y-180153D01*
X63707Y-180842D01*
X63050Y-181607D01*
X62480Y-182439D01*
X62005Y-183328D01*
X61629Y-184263D01*
X61357Y-185234D01*
X61192Y-186229D01*
X61137Y-187236D01*
X61192Y-188243D01*
X61357Y-189238D01*
X61629Y-190209D01*
X62005Y-191145D01*
X62480Y-192034D01*
X63050Y-192866D01*
X63707Y-193631D01*
X64444Y-194320D01*
X65251Y-194924D01*
X66119Y-195437D01*
X67038Y-195852D01*
X67997Y-196165D01*
X68984Y-196371D01*
X69987Y-196469D01*
X70996Y-196456D01*
X71997Y-196334D01*
X72979Y-196103D01*
X73929Y-195767D01*
X74838Y-195329D01*
X75693Y-194795D01*
X158772Y-81713D02*
X157984D01*
X158772D01*
X181772D02*
X180984D01*
X181772D01*
X194272D02*
X193484D01*
X194272D01*
X76693Y-277346D02*
Y-276677D01*
Y-291795D02*
Y-291126D01*
X76193Y-302846D02*
Y-302177D01*
Y-317295D02*
Y-316626D01*
X75693Y-180346D02*
Y-179677D01*
Y-194795D02*
Y-194126D01*
X111173Y-239941D02*
Y-215531D01*
Y-239941D02*
X135583D01*
X111173Y-215531D02*
X135583D01*
Y-239941D02*
Y-215531D01*
X177027Y-309917D02*
Y-307555D01*
X110445Y-89748D02*
X131311D01*
X110445Y-78724D02*
X131311D01*
X110445Y-89748D02*
Y-78724D01*
X131311Y-89748D02*
Y-78724D01*
X84697Y-82886D02*
X87059D01*
X2878Y-218736D02*
X72878D01*
Y-232736D02*
Y-218736D01*
X2878Y-232736D02*
X72878D01*
X2878D02*
Y-218736D01*
X3709Y-42173D02*
X14878D01*
X42713D02*
X60835D01*
Y-55181D02*
Y-42173D01*
Y-77606D02*
Y-70760D01*
X3709Y-77606D02*
X60835D01*
X3709D02*
Y-42173D01*
X84697Y-103386D02*
X87059D01*
X45539Y-153587D02*
Y-115398D01*
X78216Y-139905D02*
Y-115398D01*
X167039Y-153587D02*
Y-115398D01*
X199717Y-139905D02*
Y-115398D01*
X123539Y-153587D02*
Y-115398D01*
X156217Y-139905D02*
Y-115398D01*
X177527Y-278417D02*
Y-276055D01*
X2378Y-255236D02*
X82378D01*
X2378D02*
Y-245236D01*
X82378D01*
Y-255236D02*
Y-245236D01*
D11*
X109598Y-244468D02*
X108860Y-244042D01*
Y-244895D01*
X109598Y-244468D01*
D12*
X116291Y-236004D02*
X115847Y-235081D01*
X114847Y-234852D01*
X114046Y-235491D01*
Y-236516D01*
X114847Y-237155D01*
X115847Y-236927D01*
X116291Y-236004D01*
D13*
X38409Y-203031D02*
X37909Y-202166D01*
X36909D01*
X36409Y-203031D01*
X36909Y-203898D01*
X37909D01*
X38409Y-203031D01*
D14*
X78099Y-63146D02*
X77271Y-62668D01*
Y-63623D01*
X78099Y-63146D01*
D15*
X164478Y-47736D02*
X164409Y-46748D01*
X164203Y-45779D01*
X163864Y-44848D01*
X163399Y-43974D01*
X162817Y-43172D01*
X162129Y-42460D01*
X161348Y-41850D01*
X160490Y-41355D01*
X159572Y-40984D01*
X158611Y-40744D01*
X157626Y-40641D01*
X156636Y-40675D01*
X155660Y-40847D01*
X154718Y-41153D01*
X153828Y-41587D01*
X153007Y-42141D01*
X152271Y-42804D01*
X151634Y-43563D01*
X151109Y-44403D01*
X150706Y-45308D01*
X150433Y-46260D01*
X150295Y-47241D01*
Y-48232D01*
X150433Y-49212D01*
X150706Y-50165D01*
X151109Y-51069D01*
X151634Y-51910D01*
X152271Y-52668D01*
X153007Y-53331D01*
X153828Y-53885D01*
X154718Y-54319D01*
X155660Y-54625D01*
X156636Y-54797D01*
X157626Y-54832D01*
X158611Y-54728D01*
X159572Y-54489D01*
X160490Y-54118D01*
X161348Y-53622D01*
X162129Y-53013D01*
X162817Y-52300D01*
X163399Y-51499D01*
X163864Y-50624D01*
X164203Y-49693D01*
X164409Y-48724D01*
X164478Y-47736D01*
X87878Y-151237D02*
X87128Y-150804D01*
Y-151670D01*
X87878Y-151237D01*
X124921Y-164862D02*
X130197D01*
X124921Y-171555D02*
X130197D01*
X124921Y-182480D02*
X130197D01*
X124921Y-175787D02*
X130197D01*
X110031Y-315547D02*
Y-310272D01*
X116724Y-315547D02*
Y-310272D01*
X96240Y-191083D02*
X101516D01*
X96240Y-184390D02*
X101516D01*
X3158Y-199882D02*
Y-170748D01*
X48433D01*
Y-199882D02*
Y-170748D01*
X3158Y-199882D02*
X48433D01*
X163378Y-27236D02*
X170878D01*
X108378D02*
X157378D01*
X163378Y-68236D02*
X170878D01*
X108378D02*
X157378D01*
X170878D02*
Y-27236D01*
X108378Y-68236D02*
Y-27236D01*
X155032Y-98051D02*
Y-87421D01*
X161724Y-98051D02*
Y-87421D01*
X178032Y-98051D02*
Y-87421D01*
X184724Y-98051D02*
Y-87421D01*
X190532Y-98051D02*
Y-87421D01*
X197224Y-98051D02*
Y-87421D01*
X102224Y-315394D02*
Y-310118D01*
X95532Y-315394D02*
Y-310118D01*
X116724Y-282894D02*
Y-277618D01*
X110031Y-282894D02*
Y-277618D01*
X102224Y-283047D02*
Y-277772D01*
X95532Y-283047D02*
Y-277772D01*
X132224Y-299201D02*
Y-293925D01*
X125531Y-299201D02*
Y-293925D01*
D16*
X178378Y-202736D02*
D03*
D17*
X110878Y-29736D02*
X143378D01*
Y-65736D02*
Y-29736D01*
X110878Y-65736D02*
X143378D01*
X110878D02*
Y-29736D01*
D18*
X88978Y-131737D02*
X114778D01*
X88978Y-145737D02*
Y-131737D01*
Y-145737D02*
X114778D01*
Y-131737D01*
D19*
X33209Y-155949D02*
Y-107524D01*
X4547Y-155949D02*
X33209D01*
X4547D02*
Y-107524D01*
X33209D01*
X21988Y-281350D02*
Y-279382D01*
X17512D02*
X21988D01*
Y-310091D02*
Y-308909D01*
X17512Y-310091D02*
X21988D01*
X5256Y-304972D02*
Y-285287D01*
D20*
X155437Y-303185D02*
X200319D01*
X155437Y-284287D02*
X200319D01*
X185622Y-210736D02*
Y-190657D01*
Y-250736D02*
Y-210736D01*
Y-270972D02*
Y-250894D01*
Y-190657D02*
X220465D01*
X185622Y-270972D02*
X220465D01*
Y-190657D01*
X91656Y-5148D02*
X90704Y-4196D01*
X89275Y-3720D01*
X87371D01*
X85943Y-4196D01*
X84991Y-5148D01*
Y-6101D01*
X85467Y-7053D01*
X85943Y-7529D01*
X86895Y-8005D01*
X89751Y-8957D01*
X90704Y-9433D01*
X91180Y-9909D01*
X91656Y-10862D01*
Y-12290D01*
X90704Y-13242D01*
X89275Y-13718D01*
X87371D01*
X85943Y-13242D01*
X84991Y-12290D01*
X93893Y-9909D02*
X99607D01*
Y-8957D01*
X99130Y-8005D01*
X98654Y-7529D01*
X97702Y-7053D01*
X96274D01*
X95322Y-7529D01*
X94370Y-8481D01*
X93893Y-9909D01*
Y-10862D01*
X94370Y-12290D01*
X95322Y-13242D01*
X96274Y-13718D01*
X97702D01*
X98654Y-13242D01*
X99607Y-12290D01*
X107462Y-8481D02*
X106510Y-7529D01*
X105558Y-7053D01*
X104129D01*
X103177Y-7529D01*
X102225Y-8481D01*
X101749Y-9909D01*
Y-10862D01*
X102225Y-12290D01*
X103177Y-13242D01*
X104129Y-13718D01*
X105558D01*
X106510Y-13242D01*
X107462Y-12290D01*
X109604Y-7053D02*
Y-11814D01*
X110080Y-13242D01*
X111033Y-13718D01*
X112461D01*
X113413Y-13242D01*
X114841Y-11814D01*
Y-7053D02*
Y-13718D01*
X117460Y-7053D02*
Y-13718D01*
Y-9909D02*
X117936Y-8481D01*
X118888Y-7529D01*
X119840Y-7053D01*
X121268D01*
X123125Y-3720D02*
X123601Y-4196D01*
X124077Y-3720D01*
X123601Y-3244D01*
X123125Y-3720D01*
X123601Y-7053D02*
Y-13718D01*
X129648Y-3720D02*
X128695D01*
X127743Y-4196D01*
X127267Y-5625D01*
Y-13718D01*
X125839Y-7053D02*
X129172D01*
X132028Y-3720D02*
X132504Y-4196D01*
X132980Y-3720D01*
X132504Y-3244D01*
X132028Y-3720D01*
X132504Y-7053D02*
Y-13718D01*
X110021Y-143718D02*
X109487Y-143184D01*
Y-142116D01*
X110021Y-141583D01*
X110555D01*
X111089Y-142116D01*
Y-142650D01*
Y-142116D01*
X111623Y-141583D01*
X112157D01*
X112691Y-142116D01*
Y-143184D01*
X112157Y-143718D01*
X10378Y-216236D02*
Y-214237D01*
Y-215236D01*
X4380D01*
X5380Y-216236D01*
X94490Y-143618D02*
Y-142551D01*
Y-143085D01*
X91290D01*
X91823Y-143618D01*
X103891Y-134318D02*
X100690D01*
X102290Y-135918D01*
Y-133784D01*
X74378Y-258236D02*
Y-260236D01*
Y-259236D01*
X80376D01*
X79376Y-258236D01*
X118919Y-190794D02*
Y-184796D01*
X121918D01*
X122918Y-185796D01*
Y-187795D01*
X121918Y-188795D01*
X118919D01*
X120918D02*
X122918Y-190794D01*
X124917Y-185796D02*
X125917Y-184796D01*
X127916D01*
X128916Y-185796D01*
Y-186796D01*
X127916Y-187795D01*
X128916Y-188795D01*
Y-189795D01*
X127916Y-190794D01*
X125917D01*
X124917Y-189795D01*
Y-188795D01*
X125917Y-187795D01*
X124917Y-186796D01*
Y-185796D01*
X125917Y-187795D02*
X127916D01*
X119214Y-162448D02*
Y-156450D01*
X122213D01*
X123213Y-157449D01*
Y-159449D01*
X122213Y-160449D01*
X119214D01*
X121214D02*
X123213Y-162448D01*
X125212Y-156450D02*
X129211D01*
Y-157449D01*
X125212Y-161448D01*
Y-162448D01*
X148678Y-274638D02*
Y-275638D01*
X150677Y-277637D01*
X152677Y-275638D01*
Y-274638D01*
X150677Y-277637D02*
Y-280636D01*
X154676D02*
X156675D01*
X155676D01*
Y-274638D01*
X154676Y-275638D01*
X85078Y-112738D02*
Y-117736D01*
X86078Y-118736D01*
X88077D01*
X89077Y-117736D01*
Y-112738D01*
X91076Y-113738D02*
X92076Y-112738D01*
X94075D01*
X95075Y-113738D01*
Y-114737D01*
X94075Y-115737D01*
X93075D01*
X94075D01*
X95075Y-116737D01*
Y-117736D01*
X94075Y-118736D01*
X92076D01*
X91076Y-117736D01*
X81378Y-17738D02*
Y-22737D01*
X82378Y-23736D01*
X84377D01*
X85377Y-22737D01*
Y-17738D01*
X91375Y-23736D02*
X87376D01*
X91375Y-19737D01*
Y-18738D01*
X90375Y-17738D01*
X88376D01*
X87376Y-18738D01*
X100923Y-205761D02*
Y-210759D01*
X101922Y-211759D01*
X103922D01*
X104921Y-210759D01*
Y-205761D01*
X106921Y-211759D02*
X108920D01*
X107920D01*
Y-205761D01*
X106921Y-206761D01*
X121878Y-281536D02*
Y-275538D01*
X124877D01*
X125877Y-276538D01*
Y-278537D01*
X124877Y-279537D01*
X121878D01*
X123877D02*
X125877Y-281536D01*
X131875Y-275538D02*
X129875Y-276538D01*
X127876Y-278537D01*
Y-280537D01*
X128876Y-281536D01*
X130875D01*
X131875Y-280537D01*
Y-279537D01*
X130875Y-278537D01*
X127876D01*
X106880Y-298082D02*
Y-292084D01*
X109879D01*
X110878Y-293083D01*
Y-295083D01*
X109879Y-296082D01*
X106880D01*
X108879D02*
X110878Y-298082D01*
X116876Y-292084D02*
X112878D01*
Y-295083D01*
X114877Y-294083D01*
X115877D01*
X116876Y-295083D01*
Y-297082D01*
X115877Y-298082D01*
X113877D01*
X112878Y-297082D01*
X91878Y-297783D02*
Y-291785D01*
X94877D01*
X95877Y-292784D01*
Y-294784D01*
X94877Y-295783D01*
X91878D01*
X93877D02*
X95877Y-297783D01*
X100875D02*
Y-291785D01*
X97876Y-294784D01*
X101875D01*
X91878Y-265383D02*
Y-259385D01*
X94877D01*
X95877Y-260384D01*
Y-262384D01*
X94877Y-263383D01*
X91878D01*
X93877D02*
X95877Y-265383D01*
X97876Y-260384D02*
X98876Y-259385D01*
X100875D01*
X101875Y-260384D01*
Y-261384D01*
X100875Y-262384D01*
X99875D01*
X100875D01*
X101875Y-263383D01*
Y-264383D01*
X100875Y-265383D01*
X98876D01*
X97876Y-264383D01*
X106378Y-265229D02*
Y-259231D01*
X109377D01*
X110377Y-260231D01*
Y-262230D01*
X109377Y-263230D01*
X106378D01*
X108377D02*
X110377Y-265229D01*
X116375D02*
X112376D01*
X116375Y-261230D01*
Y-260231D01*
X115375Y-259231D01*
X113376D01*
X112376Y-260231D01*
X95017Y-182231D02*
Y-176233D01*
X98016D01*
X99016Y-177233D01*
Y-179232D01*
X98016Y-180232D01*
X95017D01*
X97016D02*
X99016Y-182231D01*
X101015D02*
X103015D01*
X102015D01*
Y-176233D01*
X101015Y-177233D01*
X57891Y-300817D02*
Y-296819D01*
X56891Y-295819D01*
X54892D01*
X53892Y-296819D01*
Y-300817D01*
X54892Y-301817D01*
X56891D01*
X55892Y-299818D02*
X57891Y-301817D01*
X56891D02*
X57891Y-300817D01*
X59890Y-296819D02*
X60890Y-295819D01*
X62889D01*
X63889Y-296819D01*
Y-297818D01*
X62889Y-298818D01*
X61890D01*
X62889D01*
X63889Y-299818D01*
Y-300817D01*
X62889Y-301817D01*
X60890D01*
X59890Y-300817D01*
X57291Y-275117D02*
Y-271119D01*
X56291Y-270119D01*
X54292D01*
X53292Y-271119D01*
Y-275117D01*
X54292Y-276117D01*
X56291D01*
X55291Y-274118D02*
X57291Y-276117D01*
X56291D02*
X57291Y-275117D01*
X63289Y-276117D02*
X59290D01*
X63289Y-272118D01*
Y-271119D01*
X62289Y-270119D01*
X60290D01*
X59290Y-271119D01*
X59646Y-179263D02*
Y-175264D01*
X58646Y-174265D01*
X56647D01*
X55647Y-175264D01*
Y-179263D01*
X56647Y-180263D01*
X58646D01*
X57646Y-178263D02*
X59646Y-180263D01*
X58646D02*
X59646Y-179263D01*
X61645Y-180263D02*
X63644D01*
X62645D01*
Y-174265D01*
X61645Y-175264D01*
X5078Y-98038D02*
Y-104036D01*
Y-102037D01*
X9077Y-98038D01*
X6078Y-101037D01*
X9077Y-104036D01*
X11076D02*
X13075D01*
X12076D01*
Y-98038D01*
X11076Y-99038D01*
X8378Y-160737D02*
X6379D01*
X7379D01*
Y-165736D01*
X6379Y-166735D01*
X5379D01*
X4380Y-165736D01*
X14376Y-160737D02*
X12377Y-161737D01*
X10378Y-163736D01*
Y-165736D01*
X11377Y-166735D01*
X13377D01*
X14376Y-165736D01*
Y-164736D01*
X13377Y-163736D01*
X10378D01*
X6877Y-235738D02*
X4877D01*
X5877D01*
Y-240737D01*
X4877Y-241736D01*
X3878D01*
X2878Y-240737D01*
X12875Y-235738D02*
X8876D01*
Y-238737D01*
X10875Y-237737D01*
X11875D01*
X12875Y-238737D01*
Y-240737D01*
X11875Y-241736D01*
X9876D01*
X8876Y-240737D01*
X5777Y-264338D02*
X3777D01*
X4777D01*
Y-269337D01*
X3777Y-270336D01*
X2778D01*
X1778Y-269337D01*
X10775Y-270336D02*
Y-264338D01*
X7776Y-267337D01*
X11775D01*
X7377Y-204238D02*
X5377D01*
X6377D01*
Y-209237D01*
X5377Y-210236D01*
X4378D01*
X3378Y-209237D01*
X9376Y-205238D02*
X10376Y-204238D01*
X12375D01*
X13375Y-205238D01*
Y-206238D01*
X12375Y-207237D01*
X11375D01*
X12375D01*
X13375Y-208237D01*
Y-209237D01*
X12375Y-210236D01*
X10376D01*
X9376Y-209237D01*
X8177Y-17438D02*
X6177D01*
X7177D01*
Y-22436D01*
X6177Y-23436D01*
X5178D01*
X4178Y-22436D01*
X14175Y-23436D02*
X10176D01*
X14175Y-19437D01*
Y-18438D01*
X13175Y-17438D01*
X11176D01*
X10176Y-18438D01*
X169077Y-181038D02*
X167077D01*
X168077D01*
Y-186037D01*
X167077Y-187036D01*
X166078D01*
X165078Y-186037D01*
X171076Y-187036D02*
X173075D01*
X172076D01*
Y-181038D01*
X171076Y-182038D01*
X121378Y-71237D02*
X117379D01*
Y-74236D01*
X119379D01*
X117379D01*
Y-77235D01*
X123377D02*
X125377D01*
X124377D01*
Y-71237D01*
X123377Y-72237D01*
X154978Y-71938D02*
Y-77936D01*
X157977D01*
X158977Y-76937D01*
Y-72938D01*
X157977Y-71938D01*
X154978D01*
X160976Y-72938D02*
X161976Y-71938D01*
X163975D01*
X164975Y-72938D01*
Y-73937D01*
X163975Y-74937D01*
X162975D01*
X163975D01*
X164975Y-75937D01*
Y-76937D01*
X163975Y-77936D01*
X161976D01*
X160976Y-76937D01*
X190478Y-71938D02*
Y-77936D01*
X193477D01*
X194477Y-76937D01*
Y-72938D01*
X193477Y-71938D01*
X190478D01*
X200475Y-77936D02*
X196476D01*
X200475Y-73937D01*
Y-72938D01*
X199475Y-71938D01*
X197476D01*
X196476Y-72938D01*
X177978Y-71938D02*
Y-77936D01*
X180977D01*
X181977Y-76937D01*
Y-72938D01*
X180977Y-71938D01*
X177978D01*
X183976Y-77936D02*
X185975D01*
X184976D01*
Y-71938D01*
X183976Y-72938D01*
X169127Y-99388D02*
X168127Y-98388D01*
X166128D01*
X165128Y-99388D01*
Y-103386D01*
X166128Y-104386D01*
X168127D01*
X169127Y-103386D01*
X171126Y-98388D02*
X175125D01*
Y-99388D01*
X171126Y-103386D01*
Y-104386D01*
X125627Y-99388D02*
X124627Y-98388D01*
X122628D01*
X121628Y-99388D01*
Y-103386D01*
X122628Y-104386D01*
X124627D01*
X125627Y-103386D01*
X131625Y-98388D02*
X129625Y-99388D01*
X127626Y-101387D01*
Y-103386D01*
X128626Y-104386D01*
X130625D01*
X131625Y-103386D01*
Y-102387D01*
X130625Y-101387D01*
X127626D01*
X47677Y-99438D02*
X46677Y-98438D01*
X44678D01*
X43678Y-99438D01*
Y-103437D01*
X44678Y-104436D01*
X46677D01*
X47677Y-103437D01*
X53675Y-98438D02*
X49676D01*
Y-101437D01*
X51675Y-100437D01*
X52675D01*
X53675Y-101437D01*
Y-103437D01*
X52675Y-104436D01*
X50676D01*
X49676Y-103437D01*
X87878Y-70237D02*
X86879Y-69237D01*
X84879D01*
X83880Y-70237D01*
Y-74236D01*
X84879Y-75235D01*
X86879D01*
X87878Y-74236D01*
X92877Y-75235D02*
Y-69237D01*
X89878Y-72236D01*
X93876D01*
X87877Y-90038D02*
X86877Y-89038D01*
X84878D01*
X83878Y-90038D01*
Y-94037D01*
X84878Y-95036D01*
X86877D01*
X87877Y-94037D01*
X89876Y-90038D02*
X90876Y-89038D01*
X92875D01*
X93875Y-90038D01*
Y-91037D01*
X92875Y-92037D01*
X91875D01*
X92875D01*
X93875Y-93037D01*
Y-94037D01*
X92875Y-95036D01*
X90876D01*
X89876Y-94037D01*
X170577Y-266238D02*
X169577Y-265238D01*
X167578D01*
X166578Y-266238D01*
Y-270236D01*
X167578Y-271236D01*
X169577D01*
X170577Y-270236D01*
X176575Y-271236D02*
X172576D01*
X176575Y-267237D01*
Y-266238D01*
X175575Y-265238D01*
X173576D01*
X172576Y-266238D01*
X176878Y-324236D02*
X177878Y-325235D01*
X179877D01*
X180877Y-324236D01*
Y-320237D01*
X179877Y-319237D01*
X177878D01*
X176878Y-320237D01*
X174879Y-319237D02*
X172879D01*
X173879D01*
Y-325235D01*
X174879Y-324236D01*
X-0Y-0D02*
X221752D01*
Y-342618D02*
Y-0D01*
X591Y-342618D02*
X221752D01*
X-0Y-342028D02*
X591Y-342618D01*
X-0Y-342028D02*
Y-0D01*
D21*
X80134Y-287328D02*
X81118Y-286344D01*
X83086D01*
X84070Y-287328D01*
Y-288312D01*
X83086Y-289296D01*
X82102D01*
X83086D01*
X84070Y-290280D01*
Y-291264D01*
X83086Y-292248D01*
X81118D01*
X80134Y-291264D01*
Y-282031D02*
X82102D01*
X81118D01*
Y-276128D01*
X80134Y-277112D01*
X79634Y-312828D02*
X80618Y-311844D01*
X82586D01*
X83570Y-312828D01*
Y-313812D01*
X82586Y-314796D01*
X81602D01*
X82586D01*
X83570Y-315780D01*
Y-316764D01*
X82586Y-317748D01*
X80618D01*
X79634Y-316764D01*
Y-307531D02*
X81602D01*
X80618D01*
Y-301628D01*
X79634Y-302612D01*
X79134Y-185031D02*
X81102D01*
X80118D01*
Y-179128D01*
X79134Y-180112D01*
M02*
