M48
;Layer_Color=9474304
;FILE_FORMAT=2:5
INCH,TZ
;TYPE=PLATED
T1F00S00C0.02756
T2F00S00C0.02800
T3F00S00C0.03543
T4F00S00C0.03937
T5F00S00C0.04331
T6F00S00C0.04400
T7F00S00C0.07008
T8F00S00C0.09843
;TYPE=NON_PLATED
T9F00S00C0.13000
%
T01
X70878Y-314736
Y-309736
Y-304736
X71378Y-289236
Y-284236
Y-279236
X70378Y-192236
Y-187236
Y-182236
T02
X63078Y-269236
X86678Y-263036
X89278Y-257936
X98178Y-248536
X87278Y-235736
X86614Y-209055
X118478Y-201236
X120043Y-218121
X121253Y-226236
X113386Y-222136
X118654Y-238109
X134078Y-235736
X147978Y-239536
X148078Y-228436
X154778Y-221936
X157078Y-241636
X121778Y-257210
X144278Y-202136
X192913Y-277165
X189370Y-304331
X32241Y-297098
X31578Y-283336
X86221Y-93307
X149178Y-106836
T03
X67378Y-250236
X77378
X67878Y-225736
X57878
X47878
X37878
X27878
X17878
X7878
X7378Y-250236
X17378
X27378
X37378
X47378
X57378
X97945Y-84236
X143811
T04
X39378Y-190236
Y-180394
X28878Y-151736
X8878
Y-121736
Y-111736
X28878
Y-121736
T05
X168378Y-250736
X178378
Y-240736
Y-230736
Y-220736
Y-210736
X168378
Y-220736
Y-230736
Y-240736
T06
X88378Y-57736
Y-47736
Y-37736
T07
X13984Y-59890
T08
X211221Y-332776
X10433
X211221Y-9941
X10433
T09
X157378Y-47736
M30
